<mxfile host="Electron" agent="Mozilla/5.0 (Windows NT 10.0; Win64; x64) AppleWebKit/537.36 (KHTML, like Gecko) draw.io/25.0.2 Chrome/128.0.6613.186 Electron/32.2.5 Safari/537.36" version="25.0.2">
  <diagram name="to-be" id="-FQbQIRzEgXYEJ3rUFKh">
    <mxGraphModel dx="4360" dy="2610" grid="1" gridSize="10" guides="1" tooltips="1" connect="1" arrows="1" fold="1" page="1" pageScale="1" pageWidth="827" pageHeight="1169" math="0" shadow="0">
      <root>
        <mxCell id="0" />
        <mxCell id="1" parent="0" />
        <mxCell id="ivyYnvaPWOOoQjRPQurW-3" value="" style="group" vertex="1" connectable="0" parent="1">
          <mxGeometry x="523" y="100" width="152" height="130" as="geometry" />
        </mxCell>
        <mxCell id="ivyYnvaPWOOoQjRPQurW-276" style="edgeStyle=orthogonalEdgeStyle;rounded=0;orthogonalLoop=1;jettySize=auto;html=1;" edge="1" parent="ivyYnvaPWOOoQjRPQurW-3" source="Zcm5tQwCMB2YyKj0-IPv-39">
          <mxGeometry relative="1" as="geometry">
            <mxPoint x="-60" y="65" as="targetPoint" />
          </mxGeometry>
        </mxCell>
        <mxCell id="Zcm5tQwCMB2YyKj0-IPv-39" style="vsdxID=5;fillColor=none;gradientColor=none;shape=stencil(vVPLEoIgFP0aljgEVuPa6j+YRGUica6U9vdhUKk4LWzG3X0cOPdcOIilTclrgShpDOiLaGVmSsQOiFJZlQKksRFiR8TSXIMoQN+qzOU175F9dNX3/obOnSP9CUoeLktIFL8KJ4flcLZN8NhtRJiDwxsf7VwhQHjAhniCDvNONhi04UbqakSuOBQCWy6cK16MWk0rRB2U/XRKVgMlSRwl+1nyhWI+s0+Xs4KYgNvPtlBKuJvVniX4En+9yfxWVpDx2yc2+Bosl0o5fw77U0PakjMzOz4B);strokeColor=#ff5958;spacingTop=-3;spacingBottom=-3;spacingLeft=-3;spacingRight=-3;points=[];labelBackgroundColor=none;rounded=0;html=1;whiteSpace=wrap;container=0;" parent="ivyYnvaPWOOoQjRPQurW-3" vertex="1">
          <mxGeometry width="152" height="130" as="geometry" />
        </mxCell>
        <mxCell id="Zcm5tQwCMB2YyKj0-IPv-40" value="&lt;div style=&quot;font-size: 1px&quot;&gt;&lt;font style=&quot;font-size:22.58px;font-family:Arial;color:#000000;direction:ltr;letter-spacing:0px;line-height:120%;opacity:1&quot;&gt;Браузер&amp;nbsp;&lt;/font&gt;&lt;/div&gt;&lt;div style=&quot;font-size: 1px&quot;&gt;&lt;font style=&quot;font-size:22.58px;font-family:Arial;color:#000000;direction:ltr;letter-spacing:0px;line-height:120%;opacity:1&quot;&gt;пользователя&lt;/font&gt;&lt;/div&gt;" style="verticalAlign=bottom;align=center;overflow=width;vsdxID=6;fillColor=none;gradientColor=none;strokeColor=none;spacingTop=-3;spacingBottom=-3;spacingLeft=-3;spacingRight=-3;points=[];labelBackgroundColor=none;rounded=0;html=1;whiteSpace=wrap;container=0;" parent="ivyYnvaPWOOoQjRPQurW-3" vertex="1">
          <mxGeometry y="70" width="152" height="53" as="geometry" />
        </mxCell>
        <mxCell id="Zcm5tQwCMB2YyKj0-IPv-38" value="" style="aspect=fixed;sketch=0;html=1;dashed=0;whitespace=wrap;verticalLabelPosition=bottom;verticalAlign=top;fillColor=#2875E2;strokeColor=#ffffff;points=[[0.005,0.63,0],[0.1,0.2,0],[0.9,0.2,0],[0.5,0,0],[0.995,0.63,0],[0.72,0.99,0],[0.5,1,0],[0.28,0.99,0]];shape=mxgraph.kubernetes.icon2;prIcon=group;container=0;" parent="ivyYnvaPWOOoQjRPQurW-3" vertex="1">
          <mxGeometry x="90" y="10" width="50" height="48" as="geometry" />
        </mxCell>
        <mxCell id="ivyYnvaPWOOoQjRPQurW-47" value="" style="group" vertex="1" connectable="0" parent="1">
          <mxGeometry x="273" y="145" width="190" height="40" as="geometry" />
        </mxCell>
        <mxCell id="ivyYnvaPWOOoQjRPQurW-27" value="&lt;div style=&quot;font-size: 1px&quot;&gt;&lt;font style=&quot;font-size:22.58px;font-family:Arial;color:#000000;direction:ltr;letter-spacing:0px;line-height:120%;opacity:1&quot;&gt;GSLB&lt;/font&gt;&lt;/div&gt;" style="verticalAlign=middle;align=center;overflow=width;vsdxID=5;fillColor=#e3ebff;gradientColor=none;shape=stencil(vVNBDsIgEHwNRwxCjHqu+g9iaUtEaBa09fdSwdpi9dBDb8vOwOwsGcQyW/FaIEqsA3MRjcxdhdgBUSp1JUA6XyF2RCwrDIgSzE3n4VzzjtlVV3PvXmjDPdLdoOQRTrvtavNqnAKXw9mDELkBIhDJaxrJZIy/YRLfbjFvpcVgHHfS6JGu4lAK7GVwoXg5gmwjRP3VjoMpqQcm9tPKs0z0Y6crWcBHqt0PN8tJspXFfmNKdpaBH8tYwML/VPjiE6dCKhXSOMTT+PlWiC47PgE=);strokeColor=none;spacingTop=-3;spacingBottom=-3;spacingLeft=-3;spacingRight=-3;points=[];labelBackgroundColor=none;rounded=0;html=1;whiteSpace=wrap;" vertex="1" parent="ivyYnvaPWOOoQjRPQurW-47">
          <mxGeometry width="190" height="40" as="geometry" />
        </mxCell>
        <mxCell id="ivyYnvaPWOOoQjRPQurW-28" value="" style="shape=image;verticalLabelPosition=bottom;verticalAlign=top;imageAspect=0;aspect=fixed;image=data:image/svg+xml,PHN2ZyB4bWxucz0iaHR0cDovL3d3dy53My5vcmcvMjAwMC9zdmciIHdpZHRoPSIzMiIgaGVpZ2h0PSIzMiIgdmlld0JveD0iMCAwIDMyIDMyIiBmaWxsPSJub25lIj4mI3hhOzxwYXRoIGQ9Ik0wIDE2QzAgNy4xNjM0NCA3LjE2MzQ0IDAgMTYgMFYwQzI0LjgzNjYgMCAzMiA3LjE2MzQ0IDMyIDE2VjE2QzMyIDI0LjgzNjYgMjQuODM2NiAzMiAxNiAzMlYzMkM3LjE2MzQ0IDMyIDAgMjQuODM2NiAwIDE2VjE2WiIgZmlsbD0iIzUyODJGRiIvPiYjeGE7PHBhdGggZD0iTTE3IDE3SDE5LjNDMTkuNyAxNy42IDIwLjMgMTggMjEgMThDMjIuMSAxOCAyMyAxNy4xIDIzIDE2QzIzIDE0LjkgMjIuMSAxNCAyMSAxNEMyMC4zIDE0IDE5LjYgMTQuNCAxOS4zIDE1SDE3VjExSDE5LjNDMTkuNyAxMS42IDIwLjMgMTIgMjEgMTJDMjIuMSAxMiAyMyAxMS4xIDIzIDEwQzIzIDguOSAyMi4xIDggMjEgOEMyMC4zIDggMTkuNiA4LjQgMTkuMyA5SDE3QzE1LjkgOSAxNSA5LjkgMTUgMTFWMTUuM0wxMCAxMlYxNUg3VjE3SDEwVjIwTDE1IDE2LjdWMjFDMTUgMjIuMSAxNS45IDIzIDE3IDIzSDE5LjNDMTkuNyAyMy42IDIwLjMgMjQgMjEgMjRDMjIuMSAyNCAyMyAyMy4xIDIzIDIyQzIzIDIwLjkgMjIuMSAyMCAyMSAyMEMyMC4zIDIwIDE5LjYgMjAuNCAxOS4zIDIxSDE3VjE3WiIgZmlsbD0id2hpdGUiLz4mI3hhOzwvc3ZnPg==;" vertex="1" parent="ivyYnvaPWOOoQjRPQurW-47">
          <mxGeometry x="150" y="4" width="32" height="32" as="geometry" />
        </mxCell>
        <mxCell id="ivyYnvaPWOOoQjRPQurW-29" value="" style="shape=image;verticalLabelPosition=bottom;verticalAlign=top;imageAspect=0;aspect=fixed;image=data:image/svg+xml,PHN2ZyB4bWxucz0iaHR0cDovL3d3dy53My5vcmcvMjAwMC9zdmciIGZpbGw9Im5vbmUiIHZpZXdCb3g9IjAgMCAzMiAzMiIgaGVpZ2h0PSIzMiIgd2lkdGg9IjMyIj4mI3hhOzxyZWN0IGZpbGw9IiM1MjgyRkYiIHJ4PSIxNiIgaGVpZ2h0PSIzMiIgd2lkdGg9IjMyIi8+JiN4YTs8cGF0aCBmaWxsPSJ3aGl0ZSIgZD0iTTggMjAuMDAyVjExSDEwLjE1QzExLjE3NSAxMSAxMS45MDcgMTEuMjI4IDEyLjM0MyAxMS42ODVDMTIuNzgxIDEyLjE0MyAxMyAxMi45MDcgMTMgMTMuOTc4VjE2LjQ5OEMxMy4wMDQgMTcuODUyIDEyLjgxMiAxOC43NzMgMTIuNDI1IDE5LjI2NEMxMi4wNCAxOS43NTQgMTEuMzExIDIwLjAwMSAxMC4yNCAyMC4wMDFMOCAyMC4wMDJaTTE0IDIwLjAwMlYxMUgxNkwxNy42OTIgMTcuNTk3VjExSDE5VjIwLjAwMUgxN0wxNS4zMSAxMy4zMzlWMjAuMDAxTDE0IDIwLjAwMlpNMjAuNDU1IDE5LjQxNUMyMC4xNTIgMTkuMDI0IDIwIDE4LjM4NiAyMCAxNy41MDRWMTcuMTYySDIxLjI4OFYxNy40MjJDMjEuMjgxIDE3Ljg0NCAyMS4zMzggMTguMTYgMjEuNDU4IDE4LjM3QzIxLjU3NiAxOC41ODEgMjEuNzU4IDE4LjY4NiAyMi4wMDEgMTguNjg2QzIyLjEwNzMgMTguNjkxNyAyMi4yMTMgMTguNjY4MSAyMi4zMDY4IDE4LjYxNzhDMjIuNDAwNiAxOC41Njc2IDIyLjQ3ODkgMTguNDkyNiAyMi41MzMgMTguNDAxQzIyLjY1MSAxOC4yMTEgMjIuNzA4IDE3LjkyNSAyMi43MDggMTcuNTQxQzIyLjcwOCAxNy4yNTYgMjIuNjM4IDE3LjAxMSAyMi40OTMgMTYuODAzQzIyLjM1MiAxNi41OTcgMjIuMTA0IDE2LjM3OCAyMS43NDggMTYuMTQ3QzIxLjEyOCAxNS43NDYgMjAuNjkzIDE1LjM1MyAyMC40NDcgMTQuOTYzQzIwLjE5OSAxNC41OCAyMC4wNzUgMTQuMTAzIDIwLjA3NSAxMy41MzNDMjAuMDc1IDEyLjY4NyAyMC4yNDEgMTIuMDUzIDIwLjU3MyAxMS42MzJDMjAuOTA3IDExLjIxMSAyMS40MDcgMTEgMjIuMDc1IDExQzIyLjc2MSAxMSAyMy4yNDUgMTEuMTk2IDIzLjUyOCAxMS41ODhDMjMuNzk1IDExLjk2IDIzLjkyNCAxMi41NTggMjMuOTIxIDEzLjM4NEwyMy45MjMgMTMuNTc2VjEzLjgzNkgyMi42MzVWMTMuNTc2QzIyLjY0MSAxMy4xMTQgMjIuNTk5IDEyLjc4OCAyMi41MDggMTIuNTk3QzIyLjQxOCAxMi40MDggMjIuMjYgMTIuMzEzIDIyLjAzNSAxMi4zMTNDMjEuOTM1NCAxMi4zMDc0IDIxLjgzNjEgMTIuMzI4OCAyMS43NDc3IDEyLjM3NTJDMjEuNjU5MyAxMi40MjE1IDIxLjU4NTEgMTIuNDkwOSAyMS41MzMgMTIuNTc2QzIxLjQyMSAxMi43NTIgMjEuMzY3IDEzLjAxNSAyMS4zNjcgMTMuMzY2QzIxLjM2NyAxMy42MzggMjEuNDMyIDEzLjg3MSAyMS41NjUgMTQuMDY2QzIxLjY5MyAxNC4yNiAyMS45MjMgMTQuNDYyIDIyLjI1MiAxNC42NzJDMjIuODk5IDE1LjA5NCAyMy4zNTIgMTUuNTA1IDIzLjYxMSAxNS45MDVDMjMuODcxIDE2LjMwNiAyNCAxNi43OTcgMjQgMTcuMzhDMjQgMTguMjU0IDIzLjgzMyAxOC45MSAyMy41MDEgMTkuMzQ1QzIzLjE2OCAxOS43ODEgMjIuNjY4IDE5Ljk5OSAyMiAxOS45OTlDMjEuMjcyIDE5Ljk5OSAyMC43NTYgMTkuODA0IDIwLjQ1NSAxOS40MTVaTTExLjEgMTguMjk1QzExLjI3NiAxOC4wNTggMTEuMzY1IDE3LjYwMiAxMS4zNjUgMTYuOTI2VjEzLjk1NEMxMS4zNjUgMTMuMzQ0IDExLjI2NyAxMi45MjUgMTEuMDY4IDEyLjY5NkMxMC44NzEgMTIuNDY2IDEwLjUwOCAxMi4zNTIgOS45OCAxMi4zNTJIOS42MzZWMTguNjQ4SDEwLjA2NkMxMC41NzcgMTguNjQ4IDEwLjkyMyAxOC41MyAxMS4xIDE4LjI5NlYxOC4yOTVaIi8+JiN4YTs8L3N2Zz4=;" vertex="1" parent="ivyYnvaPWOOoQjRPQurW-47">
          <mxGeometry x="10" y="4" width="32" height="32" as="geometry" />
        </mxCell>
        <mxCell id="ivyYnvaPWOOoQjRPQurW-48" value="" style="group" vertex="1" connectable="0" parent="1">
          <mxGeometry x="53" y="100" width="152" height="130" as="geometry" />
        </mxCell>
        <mxCell id="ivyYnvaPWOOoQjRPQurW-49" style="vsdxID=5;fillColor=none;gradientColor=none;shape=stencil(vVPLEoIgFP0aljgEVuPa6j+YRGUica6U9vdhUKk4LWzG3X0cOPdcOIilTclrgShpDOiLaGVmSsQOiFJZlQKksRFiR8TSXIMoQN+qzOU175F9dNX3/obOnSP9CUoeLktIFL8KJ4flcLZN8NhtRJiDwxsf7VwhQHjAhniCDvNONhi04UbqakSuOBQCWy6cK16MWk0rRB2U/XRKVgMlSRwl+1nyhWI+s0+Xs4KYgNvPtlBKuJvVniX4En+9yfxWVpDx2yc2+Bosl0o5fw77U0PakjMzOz4B);strokeColor=#ff5958;spacingTop=-3;spacingBottom=-3;spacingLeft=-3;spacingRight=-3;points=[];labelBackgroundColor=none;rounded=0;html=1;whiteSpace=wrap;container=0;" vertex="1" parent="ivyYnvaPWOOoQjRPQurW-48">
          <mxGeometry width="152" height="130" as="geometry" />
        </mxCell>
        <mxCell id="ivyYnvaPWOOoQjRPQurW-50" value="&lt;div style=&quot;&quot;&gt;&lt;font face=&quot;Arial&quot;&gt;&lt;span style=&quot;font-size: 22.58px;&quot;&gt;Корпоративные клиенты&lt;/span&gt;&lt;/font&gt;&lt;/div&gt;" style="verticalAlign=bottom;align=center;overflow=width;vsdxID=6;fillColor=none;gradientColor=none;strokeColor=none;spacingTop=-3;spacingBottom=-3;spacingLeft=-3;spacingRight=-3;points=[];labelBackgroundColor=none;rounded=0;html=1;whiteSpace=wrap;container=0;" vertex="1" parent="ivyYnvaPWOOoQjRPQurW-48">
          <mxGeometry y="70" width="152" height="53" as="geometry" />
        </mxCell>
        <mxCell id="ivyYnvaPWOOoQjRPQurW-51" value="" style="aspect=fixed;sketch=0;html=1;dashed=0;whitespace=wrap;verticalLabelPosition=bottom;verticalAlign=top;fillColor=#2875E2;strokeColor=#ffffff;points=[[0.005,0.63,0],[0.1,0.2,0],[0.9,0.2,0],[0.5,0,0],[0.995,0.63,0],[0.72,0.99,0],[0.5,1,0],[0.28,0.99,0]];shape=mxgraph.kubernetes.icon2;prIcon=group;container=0;" vertex="1" parent="ivyYnvaPWOOoQjRPQurW-48">
          <mxGeometry x="90" y="10" width="50" height="48" as="geometry" />
        </mxCell>
        <mxCell id="ivyYnvaPWOOoQjRPQurW-169" value="" style="group" vertex="1" connectable="0" parent="1">
          <mxGeometry x="-747" y="363.71" width="1110.22" height="1030" as="geometry" />
        </mxCell>
        <mxCell id="Zcm5tQwCMB2YyKj0-IPv-7" value="&lt;div style=&quot;font-size: 1px&quot;&gt;&lt;font style=&quot;font-size:22.58px;font-family:Arial;color:#000000;direction:ltr;letter-spacing:0px;line-height:120%;opacity:1&quot;&gt;Зона доступности 1&lt;br&gt;&lt;/font&gt;&lt;/div&gt;" style="verticalAlign=bottom;align=center;overflow=width;vsdxID=5;fillColor=#e3ebff;gradientColor=none;shape=stencil(vVNBDsIgEHwNRwxCjHqu+g9iaUtEaBa09fdSwdpi9dBDb8vOwOwsGcQyW/FaIEqsA3MRjcxdhdgBUSp1JUA6XyF2RCwrDIgSzE3n4VzzjtlVV3PvXmjDPdLdoOQRTrvtavNqnAKXw9mDELkBIhDJaxrJZIy/YRLfbjFvpcVgHHfS6JGu4lAK7GVwoXg5gmwjRP3VjoMpqQcm9tPKs0z0Y6crWcBHqt0PN8tJspXFfmNKdpaBH8tYwML/VPjiE6dCKhXSOMTT+PlWiC47PgE=);strokeColor=none;spacingTop=-3;spacingBottom=-3;spacingLeft=-3;spacingRight=-3;points=[];labelBackgroundColor=none;rounded=0;html=1;whiteSpace=wrap;container=0;" parent="ivyYnvaPWOOoQjRPQurW-169" vertex="1">
          <mxGeometry width="1110.22" height="1030" as="geometry" />
        </mxCell>
        <mxCell id="Zcm5tQwCMB2YyKj0-IPv-57" value="" style="group" parent="ivyYnvaPWOOoQjRPQurW-169" vertex="1" connectable="0">
          <mxGeometry x="410" y="26.29000000000002" width="320" height="133.71" as="geometry" />
        </mxCell>
        <mxCell id="Zcm5tQwCMB2YyKj0-IPv-8" value="" style="shape=image;verticalLabelPosition=bottom;verticalAlign=top;imageAspect=0;aspect=fixed;image=data:image/svg+xml,PHN2ZyB4bWxucz0iaHR0cDovL3d3dy53My5vcmcvMjAwMC9zdmciIHdpZHRoPSIzMiIgaGVpZ2h0PSIzMiIgdmlld0JveD0iMCAwIDMyIDMyIiBmaWxsPSJub25lIj4mI3hhOzxwYXRoIGQ9Ik0wIDE2QzAgNy4xNjM0NCA3LjE2MzQ0IDAgMTYgMFYwQzI0LjgzNjYgMCAzMiA3LjE2MzQ0IDMyIDE2VjE2QzMyIDI0LjgzNjYgMjQuODM2NiAzMiAxNiAzMlYzMkM3LjE2MzQ0IDMyIDAgMjQuODM2NiAwIDE2VjE2WiIgZmlsbD0iIzUyODJGRiIvPiYjeGE7PHBhdGggZD0iTTExLjk5NSAyNEw3LjAwMDk4IDE3LjczOEw4Ljc4MTk4IDkuOTI3TDE2IDYuNDUzTDIzLjIxOCA5LjkyOEwyNC45OTkgMTcuNzM5TDIwLjAwNSAyNEgxMS45OTVaTTIwIDEzLjE5NkwxNS45OTkgMTAuODk5TDEyIDEzLjE5NlYxOC4xTDE2IDIwLjQwMUwyMCAxOC4xVjEzLjE5NlpNMTguNzggMTMuODk2SDE4Ljc4N0wxNiAxNS40OTlMMTMuMjE0IDEzLjg5NUgxMy4yMTlMMTUuOTk5IDEyLjI5OUwxOC43OCAxMy44OTZaIiBmaWxsPSJ3aGl0ZSIvPiYjeGE7PC9zdmc+;container=0;" parent="Zcm5tQwCMB2YyKj0-IPv-57" vertex="1">
          <mxGeometry x="43.99515151515152" y="86.14999999999996" width="27.69545454545455" height="27.69545454545455" as="geometry" />
        </mxCell>
        <mxCell id="Zcm5tQwCMB2YyKj0-IPv-6" value="&lt;div style=&quot;font-size: 1px&quot;&gt;&lt;font style=&quot;font-size:22.58px;font-family:Arial;color:#000000;direction:ltr;letter-spacing:0px;line-height:120%;opacity:1&quot;&gt;Kubernetes&lt;br&gt;&lt;/font&gt;&lt;/div&gt;&lt;div style=&quot;font-size: 1px&quot;&gt;&lt;font style=&quot;font-size:22.58px;font-family:Arial;color:#000000;direction:ltr;letter-spacing:0px;line-height:120%;opacity:1&quot;&gt;cluster 1&lt;/font&gt;&lt;/div&gt;" style="verticalAlign=middle;align=center;overflow=width;vsdxID=7;fillColor=none;gradientColor=none;shape=stencil(nZBLDoAgDERP0z3SIyjew0SURgSD+Lu9kMZoXLhwN9O+tukAlrNpJg1SzDH4QW/URgNYgZTkjA4UkwJUgGXng+6DX1zLfmoymdXo17xh5zmRJ6Q42BWCfc2oJfdAr+Yv+AP9Cb7OJ3H/2JG1HNGz/84klThPVCc=);strokeColor=none;points=[];labelBackgroundColor=none;rounded=0;html=1;whiteSpace=wrap;container=0;" parent="Zcm5tQwCMB2YyKj0-IPv-57" vertex="1">
          <mxGeometry x="9.696969696969697" width="116.36363636363637" height="86.13999999999999" as="geometry" />
        </mxCell>
        <mxCell id="Zcm5tQwCMB2YyKj0-IPv-5" style="vsdxID=6;fillColor=none;gradientColor=none;shape=stencil(vVNdD4IgFP01POIQms1nq//BEpVF4q6U9u/DoFJxPdjm2/04cO65cBDL2oo3AlHSGtAX0cncVIgdEKWyrgRIYyPEjohlhQZRgr7VucsbPiCH6Krvww29O0eGE5Q8XJaSaPcqnByWw9k2wWNZRFMHhzc+SlwhQHhATDxBj3kvWwzacCN1PSFXHEqBLRcuFC8nrbYTognKfjol65GSNIn28SL5SjGf2efL2UBMwO1nWykl3M1mzxJ8ib/eZHkrG8j47RMbfA1WSKWcP8f9uSFtyZmZHZ8=);strokeColor=#5282ff;spacingTop=-3;spacingBottom=-3;spacingLeft=-3;spacingRight=-3;points=[];labelBackgroundColor=none;rounded=0;html=1;whiteSpace=wrap;container=0;" parent="Zcm5tQwCMB2YyKj0-IPv-57" vertex="1">
          <mxGeometry width="320" height="133.70999999999998" as="geometry" />
        </mxCell>
        <mxCell id="ivyYnvaPWOOoQjRPQurW-21" value="" style="group" vertex="1" connectable="0" parent="Zcm5tQwCMB2YyKj0-IPv-57">
          <mxGeometry x="169" y="20" width="130" height="100" as="geometry" />
        </mxCell>
        <mxCell id="Zcm5tQwCMB2YyKj0-IPv-14" value="" style="shape=image;verticalLabelPosition=bottom;verticalAlign=top;imageAspect=0;aspect=fixed;image=data:image/svg+xml,PHN2ZyB4bWxucz0iaHR0cDovL3d3dy53My5vcmcvMjAwMC9zdmciIHdpZHRoPSIzMiIgaGVpZ2h0PSIzMiIgdmlld0JveD0iMCAwIDMyIDMyIiBmaWxsPSJub25lIj4mI3hhOzxwYXRoIGQ9Ik0wIDE2QzAgNy4xNjM0NCA3LjE2MzQ0IDAgMTYgMFYwQzI0LjgzNjYgMCAzMiA3LjE2MzQ0IDMyIDE2VjE2QzMyIDI0LjgzNjYgMjQuODM2NiAzMiAxNiAzMlYzMkM3LjE2MzQ0IDMyIDAgMjQuODM2NiAwIDE2VjE2WiIgZmlsbD0iIzUyODJGRiIvPiYjeGE7PHBhdGggZD0iTTExLjk5NSAyNEw3LjAwMDk4IDE3LjczOEw4Ljc4MTk4IDkuOTI3TDE2IDYuNDUzTDIzLjIxOCA5LjkyOEwyNC45OTkgMTcuNzM5TDIwLjAwNSAyNEgxMS45OTVaTTIwIDEzLjE5NkwxNS45OTkgMTAuODk5TDEyIDEzLjE5NlYxOC4xTDE2IDIwLjQwMUwyMCAxOC4xVjEzLjE5NlpNMTguNzggMTMuODk2SDE4Ljc4N0wxNiAxNS40OTlMMTMuMjE0IDEzLjg5NUgxMy4yMTlMMTUuOTk5IDEyLjI5OUwxOC43OCAxMy44OTZaIiBmaWxsPSJ3aGl0ZSIvPiYjeGE7PC9zdmc+;container=0;" parent="ivyYnvaPWOOoQjRPQurW-21" vertex="1">
          <mxGeometry x="53.819999999999936" y="10" width="28.571428571428573" height="28.571428571428573" as="geometry" />
        </mxCell>
        <mxCell id="Zcm5tQwCMB2YyKj0-IPv-15" style="vsdxID=5;fillColor=none;gradientColor=none;shape=stencil(vVPLEoIgFP0aljgEVuPa6j+YRGUica6U9vdhUKk4LWzG3X0cOPdcOIilTclrgShpDOiLaGVmSsQOiFJZlQKksRFiR8TSXIMoQN+qzOU175F9dNX3/obOnSP9CUoeLktIFL8KJ4flcLZN8NhtRJiDwxsf7VwhQHjAhniCDvNONhi04UbqakSuOBQCWy6cK16MWk0rRB2U/XRKVgMlSRwl+1nyhWI+s0+Xs4KYgNvPtlBKuJvVniX4En+9yfxWVpDx2yc2+Bosl0o5fw77U0PakjMzOz4B);strokeColor=#ff5958;spacingTop=-3;spacingBottom=-3;spacingLeft=-3;spacingRight=-3;points=[];labelBackgroundColor=none;rounded=0;html=1;whiteSpace=wrap;container=0;" parent="ivyYnvaPWOOoQjRPQurW-21" vertex="1">
          <mxGeometry width="130" height="100" as="geometry" />
        </mxCell>
        <mxCell id="Zcm5tQwCMB2YyKj0-IPv-16" value="&lt;div style=&quot;font-size: 1px&quot;&gt;&lt;font style=&quot;font-size:22.58px;font-family:Arial;color:#000000;direction:ltr;letter-spacing:0px;line-height:120%;opacity:1&quot;&gt;InsureTech&lt;/font&gt;&lt;/div&gt;&lt;div style=&quot;font-size: 1px&quot;&gt;&lt;font style=&quot;font-size:22.58px;font-family:Arial;color:#000000;direction:ltr;letter-spacing:0px;line-height:120%;opacity:1&quot;&gt;namespace&lt;/font&gt;&lt;/div&gt;" style="verticalAlign=bottom;align=center;overflow=width;vsdxID=6;fillColor=none;gradientColor=none;strokeColor=none;spacingTop=-3;spacingBottom=-3;spacingLeft=-3;spacingRight=-3;points=[];labelBackgroundColor=none;rounded=0;html=1;whiteSpace=wrap;container=0;" parent="ivyYnvaPWOOoQjRPQurW-21" vertex="1">
          <mxGeometry y="46" width="130" height="54" as="geometry" />
        </mxCell>
        <mxCell id="ivyYnvaPWOOoQjRPQurW-124" value="" style="group" vertex="1" connectable="0" parent="ivyYnvaPWOOoQjRPQurW-169">
          <mxGeometry x="690" y="186.29000000000002" width="320" height="160" as="geometry" />
        </mxCell>
        <mxCell id="ivyYnvaPWOOoQjRPQurW-117" value="" style="shape=image;verticalLabelPosition=bottom;verticalAlign=top;imageAspect=0;aspect=fixed;image=data:image/svg+xml,PHN2ZyB4bWxucz0iaHR0cDovL3d3dy53My5vcmcvMjAwMC9zdmciIHdpZHRoPSIzMiIgaGVpZ2h0PSIzMiIgdmlld0JveD0iMCAwIDMyIDMyIiBmaWxsPSJub25lIj4mI3hhOzxwYXRoIGQ9Ik0wIDE2QzAgNy4xNjM0NCA3LjE2MzQ0IDAgMTYgMFYwQzI0LjgzNjYgMCAzMiA3LjE2MzQ0IDMyIDE2VjE2QzMyIDI0LjgzNjYgMjQuODM2NiAzMiAxNiAzMlYzMkM3LjE2MzQ0IDMyIDAgMjQuODM2NiAwIDE2VjE2WiIgZmlsbD0iIzUyODJGRiIvPiYjeGE7PHBhdGggZD0iTTExLjk5NSAyNEw3LjAwMDk4IDE3LjczOEw4Ljc4MTk4IDkuOTI3TDE2IDYuNDUzTDIzLjIxOCA5LjkyOEwyNC45OTkgMTcuNzM5TDIwLjAwNSAyNEgxMS45OTVaTTIwIDEzLjE5NkwxNS45OTkgMTAuODk5TDEyIDEzLjE5NlYxOC4xTDE2IDIwLjQwMUwyMCAxOC4xVjEzLjE5NlpNMTguNzggMTMuODk2SDE4Ljc4N0wxNiAxNS40OTlMMTMuMjE0IDEzLjg5NUgxMy4yMTlMMTUuOTk5IDEyLjI5OUwxOC43OCAxMy44OTZaIiBmaWxsPSJ3aGl0ZSIvPiYjeGE7PC9zdmc+;container=0;" vertex="1" parent="ivyYnvaPWOOoQjRPQurW-124">
          <mxGeometry x="46.305151515151465" y="69.99999999999977" width="27.69545454545455" height="27.69545454545455" as="geometry" />
        </mxCell>
        <mxCell id="ivyYnvaPWOOoQjRPQurW-118" value="&lt;div style=&quot;&quot;&gt;&lt;font face=&quot;Arial&quot;&gt;&lt;span style=&quot;font-size: 22.58px;&quot;&gt;VM1&lt;/span&gt;&lt;/font&gt;&lt;/div&gt;" style="verticalAlign=middle;align=center;overflow=width;vsdxID=7;fillColor=none;gradientColor=none;shape=stencil(nZBLDoAgDERP0z3SIyjew0SURgSD+Lu9kMZoXLhwN9O+tukAlrNpJg1SzDH4QW/URgNYgZTkjA4UkwJUgGXng+6DX1zLfmoymdXo17xh5zmRJ6Q42BWCfc2oJfdAr+Yv+AP9Cb7OJ3H/2JG1HNGz/84klThPVCc=);strokeColor=none;points=[];labelBackgroundColor=none;rounded=0;html=1;whiteSpace=wrap;container=0;" vertex="1" parent="ivyYnvaPWOOoQjRPQurW-124">
          <mxGeometry x="20" y="20" width="80.3" height="50" as="geometry" />
        </mxCell>
        <mxCell id="ivyYnvaPWOOoQjRPQurW-119" style="vsdxID=6;fillColor=none;gradientColor=none;shape=stencil(vVNdD4IgFP01POIQms1nq//BEpVF4q6U9u/DoFJxPdjm2/04cO65cBDL2oo3AlHSGtAX0cncVIgdEKWyrgRIYyPEjohlhQZRgr7VucsbPiCH6Krvww29O0eGE5Q8XJaSaPcqnByWw9k2wWNZRFMHhzc+SlwhQHhATDxBj3kvWwzacCN1PSFXHEqBLRcuFC8nrbYTognKfjol65GSNIn28SL5SjGf2efL2UBMwO1nWykl3M1mzxJ8ib/eZHkrG8j47RMbfA1WSKWcP8f9uSFtyZmZHZ8=);strokeColor=#5282ff;spacingTop=-3;spacingBottom=-3;spacingLeft=-3;spacingRight=-3;points=[];labelBackgroundColor=none;rounded=0;html=1;whiteSpace=wrap;container=0;" vertex="1" parent="ivyYnvaPWOOoQjRPQurW-124">
          <mxGeometry width="320" height="160" as="geometry" />
        </mxCell>
        <mxCell id="ivyYnvaPWOOoQjRPQurW-34" value="" style="group" vertex="1" connectable="0" parent="ivyYnvaPWOOoQjRPQurW-124">
          <mxGeometry x="160" y="30" width="130" height="105.5" as="geometry" />
        </mxCell>
        <mxCell id="ivyYnvaPWOOoQjRPQurW-35" style="vsdxID=5;fillColor=none;gradientColor=none;shape=stencil(vVPLEoIgFP0aljgEVuPa6j+YRGUica6U9vdhUKk4LWzG3X0cOPdcOIilTclrgShpDOiLaGVmSsQOiFJZlQKksRFiR8TSXIMoQN+qzOU175F9dNX3/obOnSP9CUoeLktIFL8KJ4flcLZN8NhtRJiDwxsf7VwhQHjAhniCDvNONhi04UbqakSuOBQCWy6cK16MWk0rRB2U/XRKVgMlSRwl+1nyhWI+s0+Xs4KYgNvPtlBKuJvVniX4En+9yfxWVpDx2yc2+Bosl0o5fw77U0PakjMzOz4B);strokeColor=#ff5958;spacingTop=-3;spacingBottom=-3;spacingLeft=-3;spacingRight=-3;points=[];labelBackgroundColor=none;rounded=0;html=1;whiteSpace=wrap;container=0;" vertex="1" parent="ivyYnvaPWOOoQjRPQurW-34">
          <mxGeometry width="130" height="105.5" as="geometry" />
        </mxCell>
        <mxCell id="ivyYnvaPWOOoQjRPQurW-37" value="&lt;div style=&quot;&quot;&gt;&lt;font face=&quot;Arial&quot;&gt;&lt;span style=&quot;font-size: 22.58px;&quot;&gt;HAProxy&lt;/span&gt;&lt;/font&gt;&lt;/div&gt;" style="verticalAlign=bottom;align=center;overflow=width;vsdxID=6;fillColor=none;gradientColor=none;strokeColor=none;spacingTop=-3;spacingBottom=-3;spacingLeft=-3;spacingRight=-3;points=[];labelBackgroundColor=none;rounded=0;html=1;whiteSpace=wrap;container=0;" vertex="1" parent="ivyYnvaPWOOoQjRPQurW-34">
          <mxGeometry y="52.29" width="130" height="27.71" as="geometry" />
        </mxCell>
        <mxCell id="ivyYnvaPWOOoQjRPQurW-38" value="" style="shape=image;verticalLabelPosition=bottom;verticalAlign=top;imageAspect=0;aspect=fixed;image=data:image/svg+xml,PHN2ZyB4bWxucz0iaHR0cDovL3d3dy53My5vcmcvMjAwMC9zdmciIHdpZHRoPSIzMiIgaGVpZ2h0PSIzMiIgdmlld0JveD0iMCAwIDMyIDMyIiBmaWxsPSJub25lIj4mI3hhOzxwYXRoIGQ9Ik0wIDE2QzAgNy4xNjM0NCA3LjE2MzQ0IDAgMTYgMFYwQzI0LjgzNjYgMCAzMiA3LjE2MzQ0IDMyIDE2VjE2QzMyIDI0LjgzNjYgMjQuODM2NiAzMiAxNiAzMlYzMkM3LjE2MzQ0IDMyIDAgMjQuODM2NiAwIDE2VjE2WiIgZmlsbD0iIzUyODJGRiIvPiYjeGE7PHBhdGggZD0iTTE3IDE3SDE5LjNDMTkuNyAxNy42IDIwLjMgMTggMjEgMThDMjIuMSAxOCAyMyAxNy4xIDIzIDE2QzIzIDE0LjkgMjIuMSAxNCAyMSAxNEMyMC4zIDE0IDE5LjYgMTQuNCAxOS4zIDE1SDE3VjExSDE5LjNDMTkuNyAxMS42IDIwLjMgMTIgMjEgMTJDMjIuMSAxMiAyMyAxMS4xIDIzIDEwQzIzIDguOSAyMi4xIDggMjEgOEMyMC4zIDggMTkuNiA4LjQgMTkuMyA5SDE3QzE1LjkgOSAxNSA5LjkgMTUgMTFWMTUuM0wxMCAxMlYxNUg3VjE3SDEwVjIwTDE1IDE2LjdWMjFDMTUgMjIuMSAxNS45IDIzIDE3IDIzSDE5LjNDMTkuNyAyMy42IDIwLjMgMjQgMjEgMjRDMjIuMSAyNCAyMyAyMy4xIDIzIDIyQzIzIDIwLjkgMjIuMSAyMCAyMSAyMEMyMC4zIDIwIDE5LjYgMjAuNCAxOS4zIDIxSDE3VjE3WiIgZmlsbD0id2hpdGUiLz4mI3hhOzwvc3ZnPg==;" vertex="1" parent="ivyYnvaPWOOoQjRPQurW-34">
          <mxGeometry x="49" y="10" width="32" height="32" as="geometry" />
        </mxCell>
        <mxCell id="ivyYnvaPWOOoQjRPQurW-83" value="" style="group" vertex="1" connectable="0" parent="ivyYnvaPWOOoQjRPQurW-169">
          <mxGeometry x="60" y="366.29" width="460" height="440" as="geometry" />
        </mxCell>
        <mxCell id="ivyYnvaPWOOoQjRPQurW-78" style="vsdxID=6;fillColor=none;gradientColor=none;shape=stencil(vVNdD4IgFP01POIQms1nq//BEpVF4q6U9u/DoFJxPdjm2/04cO65cBDL2oo3AlHSGtAX0cncVIgdEKWyrgRIYyPEjohlhQZRgr7VucsbPiCH6Krvww29O0eGE5Q8XJaSaPcqnByWw9k2wWNZRFMHhzc+SlwhQHhATDxBj3kvWwzacCN1PSFXHEqBLRcuFC8nrbYTognKfjol65GSNIn28SL5SjGf2efL2UBMwO1nWykl3M1mzxJ8ib/eZHkrG8j47RMbfA1WSKWcP8f9uSFtyZmZHZ8=);strokeColor=#5282ff;spacingTop=-3;spacingBottom=-3;spacingLeft=-3;spacingRight=-3;points=[];labelBackgroundColor=none;rounded=0;html=1;whiteSpace=wrap;container=0;" vertex="1" parent="ivyYnvaPWOOoQjRPQurW-83">
          <mxGeometry width="460" height="440" as="geometry" />
        </mxCell>
        <mxCell id="ivyYnvaPWOOoQjRPQurW-77" value="&lt;div style=&quot;&quot;&gt;&lt;font face=&quot;Arial&quot;&gt;&lt;span style=&quot;font-size: 22.58px;&quot;&gt;VM2&lt;/span&gt;&lt;/font&gt;&lt;/div&gt;" style="verticalAlign=middle;align=center;overflow=width;vsdxID=7;fillColor=none;gradientColor=none;shape=stencil(nZBLDoAgDERP0z3SIyjew0SURgSD+Lu9kMZoXLhwN9O+tukAlrNpJg1SzDH4QW/URgNYgZTkjA4UkwJUgGXng+6DX1zLfmoymdXo17xh5zmRJ6Q42BWCfc2oJfdAr+Yv+AP9Cb7OJ3H/2JG1HNGz/84klThPVCc=);strokeColor=none;points=[];labelBackgroundColor=none;rounded=0;html=1;whiteSpace=wrap;container=0;" vertex="1" parent="ivyYnvaPWOOoQjRPQurW-83">
          <mxGeometry width="120" height="60" as="geometry" />
        </mxCell>
        <mxCell id="ivyYnvaPWOOoQjRPQurW-76" value="" style="shape=image;verticalLabelPosition=bottom;verticalAlign=top;imageAspect=0;aspect=fixed;image=data:image/svg+xml,PHN2ZyB4bWxucz0iaHR0cDovL3d3dy53My5vcmcvMjAwMC9zdmciIHdpZHRoPSIzMiIgaGVpZ2h0PSIzMiIgdmlld0JveD0iMCAwIDMyIDMyIiBmaWxsPSJub25lIj4mI3hhOzxwYXRoIGQ9Ik0wIDE2QzAgNy4xNjM0NCA3LjE2MzQ0IDAgMTYgMFYwQzI0LjgzNjYgMCAzMiA3LjE2MzQ0IDMyIDE2VjE2QzMyIDI0LjgzNjYgMjQuODM2NiAzMiAxNiAzMlYzMkM3LjE2MzQ0IDMyIDAgMjQuODM2NiAwIDE2VjE2WiIgZmlsbD0iIzUyODJGRiIvPiYjeGE7PHBhdGggZD0iTTExLjk5NSAyNEw3LjAwMDk4IDE3LjczOEw4Ljc4MTk4IDkuOTI3TDE2IDYuNDUzTDIzLjIxOCA5LjkyOEwyNC45OTkgMTcuNzM5TDIwLjAwNSAyNEgxMS45OTVaTTIwIDEzLjE5NkwxNS45OTkgMTAuODk5TDEyIDEzLjE5NlYxOC4xTDE2IDIwLjQwMUwyMCAxOC4xVjEzLjE5NlpNMTguNzggMTMuODk2SDE4Ljc4N0wxNiAxNS40OTlMMTMuMjE0IDEzLjg5NUgxMy4yMTlMMTUuOTk5IDEyLjI5OUwxOC43OCAxMy44OTZaIiBmaWxsPSJ3aGl0ZSIvPiYjeGE7PC9zdmc+;container=0;" vertex="1" parent="ivyYnvaPWOOoQjRPQurW-83">
          <mxGeometry x="46.15303030303028" y="49.99999999999977" width="27.69545454545455" height="27.69545454545455" as="geometry" />
        </mxCell>
        <mxCell id="ivyYnvaPWOOoQjRPQurW-84" value="" style="group" vertex="1" connectable="0" parent="ivyYnvaPWOOoQjRPQurW-83">
          <mxGeometry x="180" y="31.09999999999991" width="130" height="105.5" as="geometry" />
        </mxCell>
        <mxCell id="ivyYnvaPWOOoQjRPQurW-85" style="vsdxID=5;fillColor=none;gradientColor=none;shape=stencil(vVPLEoIgFP0aljgEVuPa6j+YRGUica6U9vdhUKk4LWzG3X0cOPdcOIilTclrgShpDOiLaGVmSsQOiFJZlQKksRFiR8TSXIMoQN+qzOU175F9dNX3/obOnSP9CUoeLktIFL8KJ4flcLZN8NhtRJiDwxsf7VwhQHjAhniCDvNONhi04UbqakSuOBQCWy6cK16MWk0rRB2U/XRKVgMlSRwl+1nyhWI+s0+Xs4KYgNvPtlBKuJvVniX4En+9yfxWVpDx2yc2+Bosl0o5fw77U0PakjMzOz4B);strokeColor=#ff5958;spacingTop=-3;spacingBottom=-3;spacingLeft=-3;spacingRight=-3;points=[];labelBackgroundColor=none;rounded=0;html=1;whiteSpace=wrap;container=0;" vertex="1" parent="ivyYnvaPWOOoQjRPQurW-84">
          <mxGeometry width="130" height="105.5" as="geometry" />
        </mxCell>
        <mxCell id="ivyYnvaPWOOoQjRPQurW-86" value="" style="shape=image;verticalLabelPosition=bottom;verticalAlign=top;imageAspect=0;aspect=fixed;image=data:image/svg+xml,PHN2ZyB4bWxucz0iaHR0cDovL3d3dy53My5vcmcvMjAwMC9zdmciIHdpZHRoPSIzMiIgaGVpZ2h0PSIzMiIgdmlld0JveD0iMCAwIDMyIDMyIiBmaWxsPSJub25lIj4mI3hhOzxwYXRoIGQ9Ik0wIDE2QzAgNy4xNjM0NCA3LjE2MzQ0IDAgMTYgMFYwQzI0LjgzNjYgMCAzMiA3LjE2MzQ0IDMyIDE2VjE2QzMyIDI0LjgzNjYgMjQuODM2NiAzMiAxNiAzMlYzMkM3LjE2MzQ0IDMyIDAgMjQuODM2NiAwIDE2VjE2WiIgZmlsbD0iIzUyODJGRiIvPiYjeGE7PHBhdGggZmlsbC1ydWxlPSJldmVub2RkIiBjbGlwLXJ1bGU9ImV2ZW5vZGQiIGQ9Ik0xMyA4SDE4QzIxLjMgOCAyNCAxMC43IDI0IDE0VjI0SDIwVjIwSDIyVjE5SDE4LjZDMTUuNSAxOSAxMyAxNi41IDEzIDEzLjRWOFpNMTkgMTdIMjFWMTVIMTlWMTdaTTEyIDkuMDk5OThWMTMuNEMxMiAxNi44IDE0LjYgMTkuNyAxOCAyMC4xVjIwLjZDMTggMjIgMTUuOCAyMy4xIDEzIDIzLjFDMTAuMiAyMy4xIDggMjIgOCAyMC42VjExLjZDOCAxMC4zIDkuNyA5LjI5OTk4IDEyIDkuMDk5OThaIiBmaWxsPSJ3aGl0ZSIvPiYjeGE7PC9zdmc+;container=0;" vertex="1" parent="ivyYnvaPWOOoQjRPQurW-84">
          <mxGeometry x="46.87000000000002" y="3.730000000000018" width="36.26923076923077" height="36.26923076923077" as="geometry" />
        </mxCell>
        <mxCell id="ivyYnvaPWOOoQjRPQurW-87" value="&lt;div style=&quot;font-size: 1px&quot;&gt;&lt;font style=&quot;font-size:22.58px;font-family:Arial;color:#000000;direction:ltr;letter-spacing:0px;line-height:120%;opacity:1&quot;&gt;PosrgreSQL&lt;br&gt;&lt;/font&gt;&lt;/div&gt;&lt;div style=&quot;font-size: 1px&quot;&gt;&lt;font style=&quot;font-size:22.58px;font-family:Arial;color:#000000;direction:ltr;letter-spacing:0px;line-height:120%;opacity:1&quot;&gt;(shard)&lt;/font&gt;&lt;/div&gt;&lt;div style=&quot;font-size: 1px&quot;&gt;&lt;br&gt;&lt;/div&gt;" style="verticalAlign=bottom;align=center;overflow=width;vsdxID=6;fillColor=none;gradientColor=none;strokeColor=none;spacingTop=-3;spacingBottom=-3;spacingLeft=-3;spacingRight=-3;points=[];labelBackgroundColor=none;rounded=0;html=1;whiteSpace=wrap;container=0;" vertex="1" parent="ivyYnvaPWOOoQjRPQurW-84">
          <mxGeometry y="52.289999999999964" width="130" height="53.21" as="geometry" />
        </mxCell>
        <mxCell id="ivyYnvaPWOOoQjRPQurW-88" value="" style="group" vertex="1" connectable="0" parent="ivyYnvaPWOOoQjRPQurW-83">
          <mxGeometry x="270" y="199.99999999999991" width="130" height="105.5" as="geometry" />
        </mxCell>
        <mxCell id="ivyYnvaPWOOoQjRPQurW-89" style="vsdxID=5;fillColor=none;gradientColor=none;shape=stencil(vVPLEoIgFP0aljgEVuPa6j+YRGUica6U9vdhUKk4LWzG3X0cOPdcOIilTclrgShpDOiLaGVmSsQOiFJZlQKksRFiR8TSXIMoQN+qzOU175F9dNX3/obOnSP9CUoeLktIFL8KJ4flcLZN8NhtRJiDwxsf7VwhQHjAhniCDvNONhi04UbqakSuOBQCWy6cK16MWk0rRB2U/XRKVgMlSRwl+1nyhWI+s0+Xs4KYgNvPtlBKuJvVniX4En+9yfxWVpDx2yc2+Bosl0o5fw77U0PakjMzOz4B);strokeColor=#ff5958;spacingTop=-3;spacingBottom=-3;spacingLeft=-3;spacingRight=-3;points=[];labelBackgroundColor=none;rounded=0;html=1;whiteSpace=wrap;container=0;" vertex="1" parent="ivyYnvaPWOOoQjRPQurW-88">
          <mxGeometry width="130" height="105.5" as="geometry" />
        </mxCell>
        <mxCell id="ivyYnvaPWOOoQjRPQurW-90" value="&lt;div style=&quot;&quot;&gt;&lt;font face=&quot;Arial&quot;&gt;&lt;span style=&quot;font-size: 22.58px;&quot;&gt;PPM Client&lt;/span&gt;&lt;/font&gt;&lt;/div&gt;" style="verticalAlign=bottom;align=center;overflow=width;vsdxID=6;fillColor=none;gradientColor=none;strokeColor=none;spacingTop=-3;spacingBottom=-3;spacingLeft=-3;spacingRight=-3;points=[];labelBackgroundColor=none;rounded=0;html=1;whiteSpace=wrap;container=0;" vertex="1" parent="ivyYnvaPWOOoQjRPQurW-88">
          <mxGeometry y="52.289999999999964" width="130" height="53.21" as="geometry" />
        </mxCell>
        <mxCell id="ivyYnvaPWOOoQjRPQurW-91" value="" style="shape=image;verticalLabelPosition=bottom;verticalAlign=top;imageAspect=0;aspect=fixed;image=data:image/svg+xml,PHN2ZyB4bWxucz0iaHR0cDovL3d3dy53My5vcmcvMjAwMC9zdmciIHdpZHRoPSIzMiIgaGVpZ2h0PSIzMiIgdmlld0JveD0iMCAwIDMyIDMyIiBmaWxsPSJub25lIj4mI3hhOzxwYXRoIGQ9Ik0wIDE2QzAgNy4xNjM0NCA3LjE2MzQ0IDAgMTYgMFYwQzI0LjgzNjYgMCAzMiA3LjE2MzQ0IDMyIDE2VjE2QzMyIDI0LjgzNjYgMjQuODM2NiAzMiAxNiAzMlYzMkM3LjE2MzQ0IDMyIDAgMjQuODM2NiAwIDE2VjE2WiIgZmlsbD0iIzUyODJGRiIvPiYjeGE7PHBhdGggZD0iTTkgMTBIOFYyMkgyNFYyMEg5VjEwWk0yMC41IDE1LjVMMTcgMTJMMTMuNSAxNS41TDEwIDEyVjE5SDI0VjEyTDIwLjUgMTUuNVoiIGZpbGw9IndoaXRlIi8+JiN4YTs8L3N2Zz4=;" vertex="1" parent="ivyYnvaPWOOoQjRPQurW-88">
          <mxGeometry x="49" y="10" width="32" height="32" as="geometry" />
        </mxCell>
        <mxCell id="ivyYnvaPWOOoQjRPQurW-71" value="" style="group" vertex="1" connectable="0" parent="ivyYnvaPWOOoQjRPQurW-83">
          <mxGeometry x="30" y="170" width="130" height="105.5" as="geometry" />
        </mxCell>
        <mxCell id="ivyYnvaPWOOoQjRPQurW-72" style="vsdxID=5;fillColor=none;gradientColor=none;shape=stencil(vVPLEoIgFP0aljgEVuPa6j+YRGUica6U9vdhUKk4LWzG3X0cOPdcOIilTclrgShpDOiLaGVmSsQOiFJZlQKksRFiR8TSXIMoQN+qzOU175F9dNX3/obOnSP9CUoeLktIFL8KJ4flcLZN8NhtRJiDwxsf7VwhQHjAhniCDvNONhi04UbqakSuOBQCWy6cK16MWk0rRB2U/XRKVgMlSRwl+1nyhWI+s0+Xs4KYgNvPtlBKuJvVniX4En+9yfxWVpDx2yc2+Bosl0o5fw77U0PakjMzOz4B);strokeColor=#ff5958;spacingTop=-3;spacingBottom=-3;spacingLeft=-3;spacingRight=-3;points=[];labelBackgroundColor=none;rounded=0;html=1;whiteSpace=wrap;container=0;" vertex="1" parent="ivyYnvaPWOOoQjRPQurW-71">
          <mxGeometry width="130" height="105.5" as="geometry" />
        </mxCell>
        <mxCell id="ivyYnvaPWOOoQjRPQurW-73" value="&lt;div style=&quot;&quot;&gt;&lt;font face=&quot;Arial&quot;&gt;&lt;span style=&quot;font-size: 22.58px;&quot;&gt;P&lt;/span&gt;&lt;/font&gt;&lt;span style=&quot;font-size: 22.58px; font-family: Arial; background-color: initial;&quot;&gt;atroni&lt;/span&gt;&lt;/div&gt;" style="verticalAlign=bottom;align=center;overflow=width;vsdxID=6;fillColor=none;gradientColor=none;strokeColor=none;spacingTop=-3;spacingBottom=-3;spacingLeft=-3;spacingRight=-3;points=[];labelBackgroundColor=none;rounded=0;html=1;whiteSpace=wrap;container=0;" vertex="1" parent="ivyYnvaPWOOoQjRPQurW-71">
          <mxGeometry y="52.289999999999964" width="130" height="53.21" as="geometry" />
        </mxCell>
        <mxCell id="ivyYnvaPWOOoQjRPQurW-74" value="" style="shape=image;verticalLabelPosition=bottom;verticalAlign=top;imageAspect=0;aspect=fixed;image=data:image/svg+xml,PHN2ZyB4bWxucz0iaHR0cDovL3d3dy53My5vcmcvMjAwMC9zdmciIHdpZHRoPSIzMiIgaGVpZ2h0PSIzMiIgdmlld0JveD0iMCAwIDMyIDMyIiBmaWxsPSJub25lIj4mI3hhOzxwYXRoIGQ9Ik0wIDE2QzAgNy4xNjM0NCA3LjE2MzQ0IDAgMTYgMFYwQzI0LjgzNjYgMCAzMiA3LjE2MzQ0IDMyIDE2VjE2QzMyIDI0LjgzNjYgMjQuODM2NiAzMiAxNiAzMlYzMkM3LjE2MzQ0IDMyIDAgMjQuODM2NiAwIDE2VjE2WiIgZmlsbD0iIzUyODJGRiIvPiYjeGE7PHBhdGggZmlsbC1ydWxlPSJldmVub2RkIiBjbGlwLXJ1bGU9ImV2ZW5vZGQiIGQ9Ik0xNS4xIDExLjg2QzE1LjI1IDExIDE3LjA0IDEwIDE5LjUgMTBDMjIgMTAgMjQgMTEgMjQgMTIuMThMMjMuNzYgMTRDMjMuNjcgMTQuNyAyMiAxNiAxOSAxNkMxNi42MiAxNiAxNC43MSAxNC42NiAxNC44NSAxMy42M0wxNS4xIDExLjg2Wk0xNC42NiAxNUwxNC4zOSAxN0MxNC4yNSAxNy44MSAxNi41NCAxOSAxOSAxOUMyMS4yNSAxOSAyMy4yNCAxOC4wNSAyMy4zNSAxNy4yMUMyMy40MiAxNi42MyAyMy41IDE2LjAzIDIzLjU4IDE1LjQ0QzIyLjc2IDE2LjQ1IDIxIDE3IDE5LjE2IDE3QzE3LjE2IDE3IDE1LjI1IDE2LjI4IDE0LjY2IDE1Wk0xNC4yIDE4LjMxOTlDMTQuMDggMTkuMTk5OSAxNCAxOS44MTk5IDE0IDE5LjgxOTlDMTMuODQgMjAuOTk5OSAxNiAyMS45OTk5IDE4LjUgMjEuOTk5OUMyMC43NyAyMS45OTk5IDIyLjg1IDIxLjA2OTkgMjIuOTYgMjAuMTE5OUwyMy4xNSAxOC42OTk5QzIxLjk5MTggMTkuNjYyOCAyMC41MDA1IDIwLjEyOTkgMTkgMTkuOTk5OUMxNi42MiAxOS45OTk5IDE0Ljg0IDE5LjI3OTkgMTQuMiAxOC4zMTk5Wk0xMyAxNEg4VjE1SDEzVjE0Wk05IDE3SDEzVjE4SDlWMTdaIiBmaWxsPSJ3aGl0ZSIvPiYjeGE7PC9zdmc+;" vertex="1" parent="ivyYnvaPWOOoQjRPQurW-71">
          <mxGeometry x="49" y="10" width="32" height="32" as="geometry" />
        </mxCell>
        <mxCell id="ivyYnvaPWOOoQjRPQurW-67" value="" style="group" vertex="1" connectable="0" parent="ivyYnvaPWOOoQjRPQurW-83">
          <mxGeometry x="30" y="330" width="130" height="105.5" as="geometry" />
        </mxCell>
        <mxCell id="ivyYnvaPWOOoQjRPQurW-68" style="vsdxID=5;fillColor=none;gradientColor=none;shape=stencil(vVPLEoIgFP0aljgEVuPa6j+YRGUica6U9vdhUKk4LWzG3X0cOPdcOIilTclrgShpDOiLaGVmSsQOiFJZlQKksRFiR8TSXIMoQN+qzOU175F9dNX3/obOnSP9CUoeLktIFL8KJ4flcLZN8NhtRJiDwxsf7VwhQHjAhniCDvNONhi04UbqakSuOBQCWy6cK16MWk0rRB2U/XRKVgMlSRwl+1nyhWI+s0+Xs4KYgNvPtlBKuJvVniX4En+9yfxWVpDx2yc2+Bosl0o5fw77U0PakjMzOz4B);strokeColor=#ff5958;spacingTop=-3;spacingBottom=-3;spacingLeft=-3;spacingRight=-3;points=[];labelBackgroundColor=none;rounded=0;html=1;whiteSpace=wrap;container=0;" vertex="1" parent="ivyYnvaPWOOoQjRPQurW-67">
          <mxGeometry width="130" height="105.5" as="geometry" />
        </mxCell>
        <mxCell id="ivyYnvaPWOOoQjRPQurW-69" value="&lt;div style=&quot;&quot;&gt;&lt;font face=&quot;Arial&quot;&gt;&lt;span style=&quot;font-size: 22.58px;&quot;&gt;ETCD&lt;/span&gt;&lt;/font&gt;&lt;/div&gt;" style="verticalAlign=bottom;align=center;overflow=width;vsdxID=6;fillColor=none;gradientColor=none;strokeColor=none;spacingTop=-3;spacingBottom=-3;spacingLeft=-3;spacingRight=-3;points=[];labelBackgroundColor=none;rounded=0;html=1;whiteSpace=wrap;container=0;" vertex="1" parent="ivyYnvaPWOOoQjRPQurW-67">
          <mxGeometry y="52.289999999999964" width="130" height="53.21" as="geometry" />
        </mxCell>
        <mxCell id="ivyYnvaPWOOoQjRPQurW-66" value="" style="shape=image;verticalLabelPosition=bottom;verticalAlign=top;imageAspect=0;aspect=fixed;image=data:image/svg+xml,PHN2ZyB4bWxucz0iaHR0cDovL3d3dy53My5vcmcvMjAwMC9zdmciIHdpZHRoPSIzMiIgaGVpZ2h0PSIzMiIgdmlld0JveD0iMCAwIDMyIDMyIiBmaWxsPSJub25lIj4mI3hhOzxwYXRoIGQ9Ik0wIDE2QzAgNy4xNjM0NCA3LjE2MzQ0IDAgMTYgMFYwQzI0LjgzNjYgMCAzMiA3LjE2MzQ0IDMyIDE2VjE2QzMyIDI0LjgzNjYgMjQuODM2NiAzMiAxNiAzMlYzMkM3LjE2MzQ0IDMyIDAgMjQuODM2NiAwIDE2VjE2WiIgZmlsbD0iIzUyODJGRiIvPiYjeGE7PHBhdGggZmlsbC1ydWxlPSJldmVub2RkIiBjbGlwLXJ1bGU9ImV2ZW5vZGQiIGQ9Ik0xNS4xIDExLjg2QzE1LjI1IDExIDE3LjA0IDEwIDE5LjUgMTBDMjIgMTAgMjQgMTEgMjQgMTIuMThMMjMuNzYgMTRDMjMuNjcgMTQuNyAyMiAxNiAxOSAxNkMxNi42MiAxNiAxNC43MSAxNC42NiAxNC44NSAxMy42M0wxNS4xIDExLjg2Wk0xNC42NiAxNUwxNC4zOSAxN0MxNC4yNSAxNy44MSAxNi41NCAxOSAxOSAxOUMyMS4yNSAxOSAyMy4yNCAxOC4wNSAyMy4zNSAxNy4yMUMyMy40MiAxNi42MyAyMy41IDE2LjAzIDIzLjU4IDE1LjQ0QzIyLjc2IDE2LjQ1IDIxIDE3IDE5LjE2IDE3QzE3LjE2IDE3IDE1LjI1IDE2LjI4IDE0LjY2IDE1Wk0xNC4yIDE4LjMxOTlDMTQuMDggMTkuMTk5OSAxNCAxOS44MTk5IDE0IDE5LjgxOTlDMTMuODQgMjAuOTk5OSAxNiAyMS45OTk5IDE4LjUgMjEuOTk5OUMyMC43NyAyMS45OTk5IDIyLjg1IDIxLjA2OTkgMjIuOTYgMjAuMTE5OUwyMy4xNSAxOC42OTk5QzIxLjk5MTggMTkuNjYyOCAyMC41MDA1IDIwLjEyOTkgMTkgMTkuOTk5OUMxNi42MiAxOS45OTk5IDE0Ljg0IDE5LjI3OTkgMTQuMiAxOC4zMTk5Wk0xMyAxNEg4VjE1SDEzVjE0Wk05IDE3SDEzVjE4SDlWMTdaIiBmaWxsPSJ3aGl0ZSIvPiYjeGE7PC9zdmc+;" vertex="1" parent="ivyYnvaPWOOoQjRPQurW-67">
          <mxGeometry x="49" y="10" width="32" height="32" as="geometry" />
        </mxCell>
        <mxCell id="ivyYnvaPWOOoQjRPQurW-113" style="edgeStyle=orthogonalEdgeStyle;rounded=0;orthogonalLoop=1;jettySize=auto;html=1;entryX=0.495;entryY=0.008;entryDx=0;entryDy=0;entryPerimeter=0;exitX=1.001;exitY=0.426;exitDx=0;exitDy=0;exitPerimeter=0;" edge="1" parent="ivyYnvaPWOOoQjRPQurW-83" source="ivyYnvaPWOOoQjRPQurW-87" target="ivyYnvaPWOOoQjRPQurW-89">
          <mxGeometry relative="1" as="geometry" />
        </mxCell>
        <mxCell id="ivyYnvaPWOOoQjRPQurW-114" style="edgeStyle=orthogonalEdgeStyle;rounded=0;orthogonalLoop=1;jettySize=auto;html=1;entryX=0.478;entryY=0.015;entryDx=0;entryDy=0;entryPerimeter=0;startArrow=classic;startFill=1;" edge="1" parent="ivyYnvaPWOOoQjRPQurW-83" source="ivyYnvaPWOOoQjRPQurW-85" target="ivyYnvaPWOOoQjRPQurW-72">
          <mxGeometry relative="1" as="geometry" />
        </mxCell>
        <mxCell id="ivyYnvaPWOOoQjRPQurW-115" style="edgeStyle=orthogonalEdgeStyle;rounded=0;orthogonalLoop=1;jettySize=auto;html=1;entryX=0.496;entryY=-0.001;entryDx=0;entryDy=0;entryPerimeter=0;startArrow=classic;startFill=1;" edge="1" parent="ivyYnvaPWOOoQjRPQurW-83" source="ivyYnvaPWOOoQjRPQurW-73" target="ivyYnvaPWOOoQjRPQurW-68">
          <mxGeometry relative="1" as="geometry" />
        </mxCell>
        <mxCell id="ivyYnvaPWOOoQjRPQurW-137" value="" style="group" vertex="1" connectable="0" parent="ivyYnvaPWOOoQjRPQurW-169">
          <mxGeometry x="600" y="366.29" width="460" height="440" as="geometry" />
        </mxCell>
        <mxCell id="ivyYnvaPWOOoQjRPQurW-138" style="vsdxID=6;fillColor=none;gradientColor=none;shape=stencil(vVNdD4IgFP01POIQms1nq//BEpVF4q6U9u/DoFJxPdjm2/04cO65cBDL2oo3AlHSGtAX0cncVIgdEKWyrgRIYyPEjohlhQZRgr7VucsbPiCH6Krvww29O0eGE5Q8XJaSaPcqnByWw9k2wWNZRFMHhzc+SlwhQHhATDxBj3kvWwzacCN1PSFXHEqBLRcuFC8nrbYTognKfjol65GSNIn28SL5SjGf2efL2UBMwO1nWykl3M1mzxJ8ib/eZHkrG8j47RMbfA1WSKWcP8f9uSFtyZmZHZ8=);strokeColor=#5282ff;spacingTop=-3;spacingBottom=-3;spacingLeft=-3;spacingRight=-3;points=[];labelBackgroundColor=none;rounded=0;html=1;whiteSpace=wrap;container=0;" vertex="1" parent="ivyYnvaPWOOoQjRPQurW-137">
          <mxGeometry width="460" height="440" as="geometry" />
        </mxCell>
        <mxCell id="ivyYnvaPWOOoQjRPQurW-139" value="&lt;div style=&quot;&quot;&gt;&lt;font face=&quot;Arial&quot;&gt;&lt;span style=&quot;font-size: 22.58px;&quot;&gt;VM3&lt;/span&gt;&lt;/font&gt;&lt;/div&gt;" style="verticalAlign=middle;align=center;overflow=width;vsdxID=7;fillColor=none;gradientColor=none;shape=stencil(nZBLDoAgDERP0z3SIyjew0SURgSD+Lu9kMZoXLhwN9O+tukAlrNpJg1SzDH4QW/URgNYgZTkjA4UkwJUgGXng+6DX1zLfmoymdXo17xh5zmRJ6Q42BWCfc2oJfdAr+Yv+AP9Cb7OJ3H/2JG1HNGz/84klThPVCc=);strokeColor=none;points=[];labelBackgroundColor=none;rounded=0;html=1;whiteSpace=wrap;container=0;" vertex="1" parent="ivyYnvaPWOOoQjRPQurW-137">
          <mxGeometry width="120" height="60" as="geometry" />
        </mxCell>
        <mxCell id="ivyYnvaPWOOoQjRPQurW-140" value="" style="shape=image;verticalLabelPosition=bottom;verticalAlign=top;imageAspect=0;aspect=fixed;image=data:image/svg+xml,PHN2ZyB4bWxucz0iaHR0cDovL3d3dy53My5vcmcvMjAwMC9zdmciIHdpZHRoPSIzMiIgaGVpZ2h0PSIzMiIgdmlld0JveD0iMCAwIDMyIDMyIiBmaWxsPSJub25lIj4mI3hhOzxwYXRoIGQ9Ik0wIDE2QzAgNy4xNjM0NCA3LjE2MzQ0IDAgMTYgMFYwQzI0LjgzNjYgMCAzMiA3LjE2MzQ0IDMyIDE2VjE2QzMyIDI0LjgzNjYgMjQuODM2NiAzMiAxNiAzMlYzMkM3LjE2MzQ0IDMyIDAgMjQuODM2NiAwIDE2VjE2WiIgZmlsbD0iIzUyODJGRiIvPiYjeGE7PHBhdGggZD0iTTExLjk5NSAyNEw3LjAwMDk4IDE3LjczOEw4Ljc4MTk4IDkuOTI3TDE2IDYuNDUzTDIzLjIxOCA5LjkyOEwyNC45OTkgMTcuNzM5TDIwLjAwNSAyNEgxMS45OTVaTTIwIDEzLjE5NkwxNS45OTkgMTAuODk5TDEyIDEzLjE5NlYxOC4xTDE2IDIwLjQwMUwyMCAxOC4xVjEzLjE5NlpNMTguNzggMTMuODk2SDE4Ljc4N0wxNiAxNS40OTlMMTMuMjE0IDEzLjg5NUgxMy4yMTlMMTUuOTk5IDEyLjI5OUwxOC43OCAxMy44OTZaIiBmaWxsPSJ3aGl0ZSIvPiYjeGE7PC9zdmc+;container=0;" vertex="1" parent="ivyYnvaPWOOoQjRPQurW-137">
          <mxGeometry x="46.15303030303028" y="49.99999999999977" width="27.69545454545455" height="27.69545454545455" as="geometry" />
        </mxCell>
        <mxCell id="ivyYnvaPWOOoQjRPQurW-141" value="" style="group" vertex="1" connectable="0" parent="ivyYnvaPWOOoQjRPQurW-137">
          <mxGeometry x="180" y="31.09999999999991" width="130" height="105.5" as="geometry" />
        </mxCell>
        <mxCell id="ivyYnvaPWOOoQjRPQurW-142" style="vsdxID=5;fillColor=none;gradientColor=none;shape=stencil(vVPLEoIgFP0aljgEVuPa6j+YRGUica6U9vdhUKk4LWzG3X0cOPdcOIilTclrgShpDOiLaGVmSsQOiFJZlQKksRFiR8TSXIMoQN+qzOU175F9dNX3/obOnSP9CUoeLktIFL8KJ4flcLZN8NhtRJiDwxsf7VwhQHjAhniCDvNONhi04UbqakSuOBQCWy6cK16MWk0rRB2U/XRKVgMlSRwl+1nyhWI+s0+Xs4KYgNvPtlBKuJvVniX4En+9yfxWVpDx2yc2+Bosl0o5fw77U0PakjMzOz4B);strokeColor=#ff5958;spacingTop=-3;spacingBottom=-3;spacingLeft=-3;spacingRight=-3;points=[];labelBackgroundColor=none;rounded=0;html=1;whiteSpace=wrap;container=0;" vertex="1" parent="ivyYnvaPWOOoQjRPQurW-141">
          <mxGeometry width="130" height="105.5" as="geometry" />
        </mxCell>
        <mxCell id="ivyYnvaPWOOoQjRPQurW-143" value="" style="shape=image;verticalLabelPosition=bottom;verticalAlign=top;imageAspect=0;aspect=fixed;image=data:image/svg+xml,PHN2ZyB4bWxucz0iaHR0cDovL3d3dy53My5vcmcvMjAwMC9zdmciIHdpZHRoPSIzMiIgaGVpZ2h0PSIzMiIgdmlld0JveD0iMCAwIDMyIDMyIiBmaWxsPSJub25lIj4mI3hhOzxwYXRoIGQ9Ik0wIDE2QzAgNy4xNjM0NCA3LjE2MzQ0IDAgMTYgMFYwQzI0LjgzNjYgMCAzMiA3LjE2MzQ0IDMyIDE2VjE2QzMyIDI0LjgzNjYgMjQuODM2NiAzMiAxNiAzMlYzMkM3LjE2MzQ0IDMyIDAgMjQuODM2NiAwIDE2VjE2WiIgZmlsbD0iIzUyODJGRiIvPiYjeGE7PHBhdGggZmlsbC1ydWxlPSJldmVub2RkIiBjbGlwLXJ1bGU9ImV2ZW5vZGQiIGQ9Ik0xMyA4SDE4QzIxLjMgOCAyNCAxMC43IDI0IDE0VjI0SDIwVjIwSDIyVjE5SDE4LjZDMTUuNSAxOSAxMyAxNi41IDEzIDEzLjRWOFpNMTkgMTdIMjFWMTVIMTlWMTdaTTEyIDkuMDk5OThWMTMuNEMxMiAxNi44IDE0LjYgMTkuNyAxOCAyMC4xVjIwLjZDMTggMjIgMTUuOCAyMy4xIDEzIDIzLjFDMTAuMiAyMy4xIDggMjIgOCAyMC42VjExLjZDOCAxMC4zIDkuNyA5LjI5OTk4IDEyIDkuMDk5OThaIiBmaWxsPSJ3aGl0ZSIvPiYjeGE7PC9zdmc+;container=0;" vertex="1" parent="ivyYnvaPWOOoQjRPQurW-141">
          <mxGeometry x="46.87000000000002" y="3.730000000000018" width="36.26923076923077" height="36.26923076923077" as="geometry" />
        </mxCell>
        <mxCell id="ivyYnvaPWOOoQjRPQurW-144" value="&lt;div style=&quot;font-size: 1px&quot;&gt;&lt;font style=&quot;font-size:22.58px;font-family:Arial;color:#000000;direction:ltr;letter-spacing:0px;line-height:120%;opacity:1&quot;&gt;PosrgreSQL&lt;br&gt;&lt;/font&gt;&lt;/div&gt;&lt;div style=&quot;font-size: 1px&quot;&gt;&lt;font style=&quot;font-size:22.58px;font-family:Arial;color:#000000;direction:ltr;letter-spacing:0px;line-height:120%;opacity:1&quot;&gt;(shard)&lt;/font&gt;&lt;/div&gt;&lt;div style=&quot;font-size: 1px&quot;&gt;&lt;br&gt;&lt;/div&gt;" style="verticalAlign=bottom;align=center;overflow=width;vsdxID=6;fillColor=none;gradientColor=none;strokeColor=none;spacingTop=-3;spacingBottom=-3;spacingLeft=-3;spacingRight=-3;points=[];labelBackgroundColor=none;rounded=0;html=1;whiteSpace=wrap;container=0;" vertex="1" parent="ivyYnvaPWOOoQjRPQurW-141">
          <mxGeometry y="52.289999999999964" width="130" height="53.21" as="geometry" />
        </mxCell>
        <mxCell id="ivyYnvaPWOOoQjRPQurW-145" value="" style="group" vertex="1" connectable="0" parent="ivyYnvaPWOOoQjRPQurW-137">
          <mxGeometry x="270" y="199.99999999999991" width="130" height="105.5" as="geometry" />
        </mxCell>
        <mxCell id="ivyYnvaPWOOoQjRPQurW-146" style="vsdxID=5;fillColor=none;gradientColor=none;shape=stencil(vVPLEoIgFP0aljgEVuPa6j+YRGUica6U9vdhUKk4LWzG3X0cOPdcOIilTclrgShpDOiLaGVmSsQOiFJZlQKksRFiR8TSXIMoQN+qzOU175F9dNX3/obOnSP9CUoeLktIFL8KJ4flcLZN8NhtRJiDwxsf7VwhQHjAhniCDvNONhi04UbqakSuOBQCWy6cK16MWk0rRB2U/XRKVgMlSRwl+1nyhWI+s0+Xs4KYgNvPtlBKuJvVniX4En+9yfxWVpDx2yc2+Bosl0o5fw77U0PakjMzOz4B);strokeColor=#ff5958;spacingTop=-3;spacingBottom=-3;spacingLeft=-3;spacingRight=-3;points=[];labelBackgroundColor=none;rounded=0;html=1;whiteSpace=wrap;container=0;" vertex="1" parent="ivyYnvaPWOOoQjRPQurW-145">
          <mxGeometry width="130" height="105.5" as="geometry" />
        </mxCell>
        <mxCell id="ivyYnvaPWOOoQjRPQurW-147" value="&lt;div style=&quot;&quot;&gt;&lt;font face=&quot;Arial&quot;&gt;&lt;span style=&quot;font-size: 22.58px;&quot;&gt;PPM Client&lt;/span&gt;&lt;/font&gt;&lt;/div&gt;" style="verticalAlign=bottom;align=center;overflow=width;vsdxID=6;fillColor=none;gradientColor=none;strokeColor=none;spacingTop=-3;spacingBottom=-3;spacingLeft=-3;spacingRight=-3;points=[];labelBackgroundColor=none;rounded=0;html=1;whiteSpace=wrap;container=0;" vertex="1" parent="ivyYnvaPWOOoQjRPQurW-145">
          <mxGeometry y="52.289999999999964" width="130" height="53.21" as="geometry" />
        </mxCell>
        <mxCell id="ivyYnvaPWOOoQjRPQurW-148" value="" style="shape=image;verticalLabelPosition=bottom;verticalAlign=top;imageAspect=0;aspect=fixed;image=data:image/svg+xml,PHN2ZyB4bWxucz0iaHR0cDovL3d3dy53My5vcmcvMjAwMC9zdmciIHdpZHRoPSIzMiIgaGVpZ2h0PSIzMiIgdmlld0JveD0iMCAwIDMyIDMyIiBmaWxsPSJub25lIj4mI3hhOzxwYXRoIGQ9Ik0wIDE2QzAgNy4xNjM0NCA3LjE2MzQ0IDAgMTYgMFYwQzI0LjgzNjYgMCAzMiA3LjE2MzQ0IDMyIDE2VjE2QzMyIDI0LjgzNjYgMjQuODM2NiAzMiAxNiAzMlYzMkM3LjE2MzQ0IDMyIDAgMjQuODM2NiAwIDE2VjE2WiIgZmlsbD0iIzUyODJGRiIvPiYjeGE7PHBhdGggZD0iTTkgMTBIOFYyMkgyNFYyMEg5VjEwWk0yMC41IDE1LjVMMTcgMTJMMTMuNSAxNS41TDEwIDEyVjE5SDI0VjEyTDIwLjUgMTUuNVoiIGZpbGw9IndoaXRlIi8+JiN4YTs8L3N2Zz4=;" vertex="1" parent="ivyYnvaPWOOoQjRPQurW-145">
          <mxGeometry x="49" y="10" width="32" height="32" as="geometry" />
        </mxCell>
        <mxCell id="ivyYnvaPWOOoQjRPQurW-149" value="" style="group" vertex="1" connectable="0" parent="ivyYnvaPWOOoQjRPQurW-137">
          <mxGeometry x="30" y="170" width="130" height="105.5" as="geometry" />
        </mxCell>
        <mxCell id="ivyYnvaPWOOoQjRPQurW-150" style="vsdxID=5;fillColor=none;gradientColor=none;shape=stencil(vVPLEoIgFP0aljgEVuPa6j+YRGUica6U9vdhUKk4LWzG3X0cOPdcOIilTclrgShpDOiLaGVmSsQOiFJZlQKksRFiR8TSXIMoQN+qzOU175F9dNX3/obOnSP9CUoeLktIFL8KJ4flcLZN8NhtRJiDwxsf7VwhQHjAhniCDvNONhi04UbqakSuOBQCWy6cK16MWk0rRB2U/XRKVgMlSRwl+1nyhWI+s0+Xs4KYgNvPtlBKuJvVniX4En+9yfxWVpDx2yc2+Bosl0o5fw77U0PakjMzOz4B);strokeColor=#ff5958;spacingTop=-3;spacingBottom=-3;spacingLeft=-3;spacingRight=-3;points=[];labelBackgroundColor=none;rounded=0;html=1;whiteSpace=wrap;container=0;" vertex="1" parent="ivyYnvaPWOOoQjRPQurW-149">
          <mxGeometry width="130" height="105.5" as="geometry" />
        </mxCell>
        <mxCell id="ivyYnvaPWOOoQjRPQurW-151" value="&lt;div style=&quot;&quot;&gt;&lt;font face=&quot;Arial&quot;&gt;&lt;span style=&quot;font-size: 22.58px;&quot;&gt;P&lt;/span&gt;&lt;/font&gt;&lt;span style=&quot;font-size: 22.58px; font-family: Arial; background-color: initial;&quot;&gt;atroni&lt;/span&gt;&lt;/div&gt;" style="verticalAlign=bottom;align=center;overflow=width;vsdxID=6;fillColor=none;gradientColor=none;strokeColor=none;spacingTop=-3;spacingBottom=-3;spacingLeft=-3;spacingRight=-3;points=[];labelBackgroundColor=none;rounded=0;html=1;whiteSpace=wrap;container=0;" vertex="1" parent="ivyYnvaPWOOoQjRPQurW-149">
          <mxGeometry y="52.289999999999964" width="130" height="53.21" as="geometry" />
        </mxCell>
        <mxCell id="ivyYnvaPWOOoQjRPQurW-152" value="" style="shape=image;verticalLabelPosition=bottom;verticalAlign=top;imageAspect=0;aspect=fixed;image=data:image/svg+xml,PHN2ZyB4bWxucz0iaHR0cDovL3d3dy53My5vcmcvMjAwMC9zdmciIHdpZHRoPSIzMiIgaGVpZ2h0PSIzMiIgdmlld0JveD0iMCAwIDMyIDMyIiBmaWxsPSJub25lIj4mI3hhOzxwYXRoIGQ9Ik0wIDE2QzAgNy4xNjM0NCA3LjE2MzQ0IDAgMTYgMFYwQzI0LjgzNjYgMCAzMiA3LjE2MzQ0IDMyIDE2VjE2QzMyIDI0LjgzNjYgMjQuODM2NiAzMiAxNiAzMlYzMkM3LjE2MzQ0IDMyIDAgMjQuODM2NiAwIDE2VjE2WiIgZmlsbD0iIzUyODJGRiIvPiYjeGE7PHBhdGggZmlsbC1ydWxlPSJldmVub2RkIiBjbGlwLXJ1bGU9ImV2ZW5vZGQiIGQ9Ik0xNS4xIDExLjg2QzE1LjI1IDExIDE3LjA0IDEwIDE5LjUgMTBDMjIgMTAgMjQgMTEgMjQgMTIuMThMMjMuNzYgMTRDMjMuNjcgMTQuNyAyMiAxNiAxOSAxNkMxNi42MiAxNiAxNC43MSAxNC42NiAxNC44NSAxMy42M0wxNS4xIDExLjg2Wk0xNC42NiAxNUwxNC4zOSAxN0MxNC4yNSAxNy44MSAxNi41NCAxOSAxOSAxOUMyMS4yNSAxOSAyMy4yNCAxOC4wNSAyMy4zNSAxNy4yMUMyMy40MiAxNi42MyAyMy41IDE2LjAzIDIzLjU4IDE1LjQ0QzIyLjc2IDE2LjQ1IDIxIDE3IDE5LjE2IDE3QzE3LjE2IDE3IDE1LjI1IDE2LjI4IDE0LjY2IDE1Wk0xNC4yIDE4LjMxOTlDMTQuMDggMTkuMTk5OSAxNCAxOS44MTk5IDE0IDE5LjgxOTlDMTMuODQgMjAuOTk5OSAxNiAyMS45OTk5IDE4LjUgMjEuOTk5OUMyMC43NyAyMS45OTk5IDIyLjg1IDIxLjA2OTkgMjIuOTYgMjAuMTE5OUwyMy4xNSAxOC42OTk5QzIxLjk5MTggMTkuNjYyOCAyMC41MDA1IDIwLjEyOTkgMTkgMTkuOTk5OUMxNi42MiAxOS45OTk5IDE0Ljg0IDE5LjI3OTkgMTQuMiAxOC4zMTk5Wk0xMyAxNEg4VjE1SDEzVjE0Wk05IDE3SDEzVjE4SDlWMTdaIiBmaWxsPSJ3aGl0ZSIvPiYjeGE7PC9zdmc+;" vertex="1" parent="ivyYnvaPWOOoQjRPQurW-149">
          <mxGeometry x="49" y="10" width="32" height="32" as="geometry" />
        </mxCell>
        <mxCell id="ivyYnvaPWOOoQjRPQurW-153" value="" style="group" vertex="1" connectable="0" parent="ivyYnvaPWOOoQjRPQurW-137">
          <mxGeometry x="30" y="330" width="130" height="105.5" as="geometry" />
        </mxCell>
        <mxCell id="ivyYnvaPWOOoQjRPQurW-154" style="vsdxID=5;fillColor=none;gradientColor=none;shape=stencil(vVPLEoIgFP0aljgEVuPa6j+YRGUica6U9vdhUKk4LWzG3X0cOPdcOIilTclrgShpDOiLaGVmSsQOiFJZlQKksRFiR8TSXIMoQN+qzOU175F9dNX3/obOnSP9CUoeLktIFL8KJ4flcLZN8NhtRJiDwxsf7VwhQHjAhniCDvNONhi04UbqakSuOBQCWy6cK16MWk0rRB2U/XRKVgMlSRwl+1nyhWI+s0+Xs4KYgNvPtlBKuJvVniX4En+9yfxWVpDx2yc2+Bosl0o5fw77U0PakjMzOz4B);strokeColor=#ff5958;spacingTop=-3;spacingBottom=-3;spacingLeft=-3;spacingRight=-3;points=[];labelBackgroundColor=none;rounded=0;html=1;whiteSpace=wrap;container=0;" vertex="1" parent="ivyYnvaPWOOoQjRPQurW-153">
          <mxGeometry width="130" height="105.5" as="geometry" />
        </mxCell>
        <mxCell id="ivyYnvaPWOOoQjRPQurW-155" value="&lt;div style=&quot;&quot;&gt;&lt;font face=&quot;Arial&quot;&gt;&lt;span style=&quot;font-size: 22.58px;&quot;&gt;ETCD&lt;/span&gt;&lt;/font&gt;&lt;/div&gt;" style="verticalAlign=bottom;align=center;overflow=width;vsdxID=6;fillColor=none;gradientColor=none;strokeColor=none;spacingTop=-3;spacingBottom=-3;spacingLeft=-3;spacingRight=-3;points=[];labelBackgroundColor=none;rounded=0;html=1;whiteSpace=wrap;container=0;" vertex="1" parent="ivyYnvaPWOOoQjRPQurW-153">
          <mxGeometry y="52.289999999999964" width="130" height="53.21" as="geometry" />
        </mxCell>
        <mxCell id="ivyYnvaPWOOoQjRPQurW-156" value="" style="shape=image;verticalLabelPosition=bottom;verticalAlign=top;imageAspect=0;aspect=fixed;image=data:image/svg+xml,PHN2ZyB4bWxucz0iaHR0cDovL3d3dy53My5vcmcvMjAwMC9zdmciIHdpZHRoPSIzMiIgaGVpZ2h0PSIzMiIgdmlld0JveD0iMCAwIDMyIDMyIiBmaWxsPSJub25lIj4mI3hhOzxwYXRoIGQ9Ik0wIDE2QzAgNy4xNjM0NCA3LjE2MzQ0IDAgMTYgMFYwQzI0LjgzNjYgMCAzMiA3LjE2MzQ0IDMyIDE2VjE2QzMyIDI0LjgzNjYgMjQuODM2NiAzMiAxNiAzMlYzMkM3LjE2MzQ0IDMyIDAgMjQuODM2NiAwIDE2VjE2WiIgZmlsbD0iIzUyODJGRiIvPiYjeGE7PHBhdGggZmlsbC1ydWxlPSJldmVub2RkIiBjbGlwLXJ1bGU9ImV2ZW5vZGQiIGQ9Ik0xNS4xIDExLjg2QzE1LjI1IDExIDE3LjA0IDEwIDE5LjUgMTBDMjIgMTAgMjQgMTEgMjQgMTIuMThMMjMuNzYgMTRDMjMuNjcgMTQuNyAyMiAxNiAxOSAxNkMxNi42MiAxNiAxNC43MSAxNC42NiAxNC44NSAxMy42M0wxNS4xIDExLjg2Wk0xNC42NiAxNUwxNC4zOSAxN0MxNC4yNSAxNy44MSAxNi41NCAxOSAxOSAxOUMyMS4yNSAxOSAyMy4yNCAxOC4wNSAyMy4zNSAxNy4yMUMyMy40MiAxNi42MyAyMy41IDE2LjAzIDIzLjU4IDE1LjQ0QzIyLjc2IDE2LjQ1IDIxIDE3IDE5LjE2IDE3QzE3LjE2IDE3IDE1LjI1IDE2LjI4IDE0LjY2IDE1Wk0xNC4yIDE4LjMxOTlDMTQuMDggMTkuMTk5OSAxNCAxOS44MTk5IDE0IDE5LjgxOTlDMTMuODQgMjAuOTk5OSAxNiAyMS45OTk5IDE4LjUgMjEuOTk5OUMyMC43NyAyMS45OTk5IDIyLjg1IDIxLjA2OTkgMjIuOTYgMjAuMTE5OUwyMy4xNSAxOC42OTk5QzIxLjk5MTggMTkuNjYyOCAyMC41MDA1IDIwLjEyOTkgMTkgMTkuOTk5OUMxNi42MiAxOS45OTk5IDE0Ljg0IDE5LjI3OTkgMTQuMiAxOC4zMTk5Wk0xMyAxNEg4VjE1SDEzVjE0Wk05IDE3SDEzVjE4SDlWMTdaIiBmaWxsPSJ3aGl0ZSIvPiYjeGE7PC9zdmc+;" vertex="1" parent="ivyYnvaPWOOoQjRPQurW-153">
          <mxGeometry x="49" y="10" width="32" height="32" as="geometry" />
        </mxCell>
        <mxCell id="ivyYnvaPWOOoQjRPQurW-157" style="edgeStyle=orthogonalEdgeStyle;rounded=0;orthogonalLoop=1;jettySize=auto;html=1;entryX=0.495;entryY=0.008;entryDx=0;entryDy=0;entryPerimeter=0;exitX=1.008;exitY=0.534;exitDx=0;exitDy=0;exitPerimeter=0;" edge="1" parent="ivyYnvaPWOOoQjRPQurW-137" source="ivyYnvaPWOOoQjRPQurW-144" target="ivyYnvaPWOOoQjRPQurW-146">
          <mxGeometry relative="1" as="geometry" />
        </mxCell>
        <mxCell id="ivyYnvaPWOOoQjRPQurW-158" style="edgeStyle=orthogonalEdgeStyle;rounded=0;orthogonalLoop=1;jettySize=auto;html=1;entryX=0.478;entryY=0.015;entryDx=0;entryDy=0;entryPerimeter=0;startArrow=classic;startFill=1;exitX=-0.012;exitY=0.481;exitDx=0;exitDy=0;exitPerimeter=0;" edge="1" parent="ivyYnvaPWOOoQjRPQurW-137" source="ivyYnvaPWOOoQjRPQurW-144" target="ivyYnvaPWOOoQjRPQurW-150">
          <mxGeometry relative="1" as="geometry" />
        </mxCell>
        <mxCell id="ivyYnvaPWOOoQjRPQurW-159" style="edgeStyle=orthogonalEdgeStyle;rounded=0;orthogonalLoop=1;jettySize=auto;html=1;entryX=0.496;entryY=-0.001;entryDx=0;entryDy=0;entryPerimeter=0;startArrow=classic;startFill=1;" edge="1" parent="ivyYnvaPWOOoQjRPQurW-137" source="ivyYnvaPWOOoQjRPQurW-151" target="ivyYnvaPWOOoQjRPQurW-154">
          <mxGeometry relative="1" as="geometry" />
        </mxCell>
        <mxCell id="ivyYnvaPWOOoQjRPQurW-160" value="" style="group" vertex="1" connectable="0" parent="ivyYnvaPWOOoQjRPQurW-169">
          <mxGeometry x="310" y="176.29000000000002" width="320" height="160" as="geometry" />
        </mxCell>
        <mxCell id="ivyYnvaPWOOoQjRPQurW-127" value="" style="shape=image;verticalLabelPosition=bottom;verticalAlign=top;imageAspect=0;aspect=fixed;image=data:image/svg+xml,PHN2ZyB4bWxucz0iaHR0cDovL3d3dy53My5vcmcvMjAwMC9zdmciIHdpZHRoPSIzMiIgaGVpZ2h0PSIzMiIgdmlld0JveD0iMCAwIDMyIDMyIiBmaWxsPSJub25lIj4mI3hhOzxwYXRoIGQ9Ik0wIDE2QzAgNy4xNjM0NCA3LjE2MzQ0IDAgMTYgMFYwQzI0LjgzNjYgMCAzMiA3LjE2MzQ0IDMyIDE2VjE2QzMyIDI0LjgzNjYgMjQuODM2NiAzMiAxNiAzMlYzMkM3LjE2MzQ0IDMyIDAgMjQuODM2NiAwIDE2VjE2WiIgZmlsbD0iIzUyODJGRiIvPiYjeGE7PHBhdGggZD0iTTExLjk5NSAyNEw3LjAwMDk4IDE3LjczOEw4Ljc4MTk4IDkuOTI3TDE2IDYuNDUzTDIzLjIxOCA5LjkyOEwyNC45OTkgMTcuNzM5TDIwLjAwNSAyNEgxMS45OTVaTTIwIDEzLjE5NkwxNS45OTkgMTAuODk5TDEyIDEzLjE5NlYxOC4xTDE2IDIwLjQwMUwyMCAxOC4xVjEzLjE5NlpNMTguNzggMTMuODk2SDE4Ljc4N0wxNiAxNS40OTlMMTMuMjE0IDEzLjg5NUgxMy4yMTlMMTUuOTk5IDEyLjI5OUwxOC43OCAxMy44OTZaIiBmaWxsPSJ3aGl0ZSIvPiYjeGE7PC9zdmc+;container=0;" vertex="1" parent="ivyYnvaPWOOoQjRPQurW-160">
          <mxGeometry x="29.995151515151463" y="59.99999999999977" width="27.69545454545455" height="27.69545454545455" as="geometry" />
        </mxCell>
        <mxCell id="ivyYnvaPWOOoQjRPQurW-129" style="vsdxID=6;fillColor=none;gradientColor=none;shape=stencil(vVNdD4IgFP01POIQms1nq//BEpVF4q6U9u/DoFJxPdjm2/04cO65cBDL2oo3AlHSGtAX0cncVIgdEKWyrgRIYyPEjohlhQZRgr7VucsbPiCH6Krvww29O0eGE5Q8XJaSaPcqnByWw9k2wWNZRFMHhzc+SlwhQHhATDxBj3kvWwzacCN1PSFXHEqBLRcuFC8nrbYTognKfjol65GSNIn28SL5SjGf2efL2UBMwO1nWykl3M1mzxJ8ib/eZHkrG8j47RMbfA1WSKWcP8f9uSFtyZmZHZ8=);strokeColor=#5282ff;spacingTop=-3;spacingBottom=-3;spacingLeft=-3;spacingRight=-3;points=[];labelBackgroundColor=none;rounded=0;html=1;whiteSpace=wrap;container=0;" vertex="1" parent="ivyYnvaPWOOoQjRPQurW-160">
          <mxGeometry width="320" height="160" as="geometry" />
        </mxCell>
        <mxCell id="ivyYnvaPWOOoQjRPQurW-128" value="&lt;div style=&quot;&quot;&gt;&lt;font face=&quot;Arial&quot;&gt;&lt;span style=&quot;font-size: 22.58px;&quot;&gt;VM4&lt;/span&gt;&lt;/font&gt;&lt;/div&gt;" style="verticalAlign=middle;align=center;overflow=width;vsdxID=7;fillColor=none;gradientColor=none;shape=stencil(nZBLDoAgDERP0z3SIyjew0SURgSD+Lu9kMZoXLhwN9O+tukAlrNpJg1SzDH4QW/URgNYgZTkjA4UkwJUgGXng+6DX1zLfmoymdXo17xh5zmRJ6Q42BWCfc2oJfdAr+Yv+AP9Cb7OJ3H/2JG1HNGz/84klThPVCc=);strokeColor=none;points=[];labelBackgroundColor=none;rounded=0;html=1;whiteSpace=wrap;container=0;" vertex="1" parent="ivyYnvaPWOOoQjRPQurW-160">
          <mxGeometry x="10" y="10" width="80.3" height="50" as="geometry" />
        </mxCell>
        <mxCell id="ivyYnvaPWOOoQjRPQurW-136" value="" style="group" vertex="1" connectable="0" parent="ivyYnvaPWOOoQjRPQurW-160">
          <mxGeometry x="170" y="27.25" width="130" height="105.5" as="geometry" />
        </mxCell>
        <mxCell id="ivyYnvaPWOOoQjRPQurW-131" style="vsdxID=5;fillColor=none;gradientColor=none;shape=stencil(vVPLEoIgFP0aljgEVuPa6j+YRGUica6U9vdhUKk4LWzG3X0cOPdcOIilTclrgShpDOiLaGVmSsQOiFJZlQKksRFiR8TSXIMoQN+qzOU175F9dNX3/obOnSP9CUoeLktIFL8KJ4flcLZN8NhtRJiDwxsf7VwhQHjAhniCDvNONhi04UbqakSuOBQCWy6cK16MWk0rRB2U/XRKVgMlSRwl+1nyhWI+s0+Xs4KYgNvPtlBKuJvVniX4En+9yfxWVpDx2yc2+Bosl0o5fw77U0PakjMzOz4B);strokeColor=#ff5958;spacingTop=-3;spacingBottom=-3;spacingLeft=-3;spacingRight=-3;points=[];labelBackgroundColor=none;rounded=0;html=1;whiteSpace=wrap;container=0;" vertex="1" parent="ivyYnvaPWOOoQjRPQurW-136">
          <mxGeometry width="130" height="105.5" as="geometry" />
        </mxCell>
        <mxCell id="ivyYnvaPWOOoQjRPQurW-132" value="&lt;div style=&quot;&quot;&gt;&lt;font face=&quot;Arial&quot;&gt;&lt;span style=&quot;font-size: 22.58px;&quot;&gt;pgBackRest&lt;/span&gt;&lt;/font&gt;&lt;/div&gt;" style="verticalAlign=bottom;align=center;overflow=width;vsdxID=6;fillColor=none;gradientColor=none;strokeColor=none;spacingTop=-3;spacingBottom=-3;spacingLeft=-3;spacingRight=-3;points=[];labelBackgroundColor=none;rounded=0;html=1;whiteSpace=wrap;container=0;" vertex="1" parent="ivyYnvaPWOOoQjRPQurW-136">
          <mxGeometry y="52.289999999999964" width="130" height="27.71" as="geometry" />
        </mxCell>
        <mxCell id="ivyYnvaPWOOoQjRPQurW-135" value="" style="shape=image;verticalLabelPosition=bottom;verticalAlign=top;imageAspect=0;aspect=fixed;image=data:image/svg+xml,PHN2ZyB4bWxucz0iaHR0cDovL3d3dy53My5vcmcvMjAwMC9zdmciIHdpZHRoPSIzMiIgaGVpZ2h0PSIzMiIgdmlld0JveD0iMCAwIDMyIDMyIiBmaWxsPSJub25lIj4mI3hhOzxwYXRoIGQ9Ik0wIDE2QzAgNy4xNjM0NCA3LjE2MzQ0IDAgMTYgMFYwQzI0LjgzNjYgMCAzMiA3LjE2MzQ0IDMyIDE2VjE2QzMyIDI0LjgzNjYgMjQuODM2NiAzMiAxNiAzMlYzMkM3LjE2MzQ0IDMyIDAgMjQuODM2NiAwIDE2VjE2WiIgZmlsbD0iIzUyODJGRiIvPiYjeGE7PHBhdGggZmlsbC1ydWxlPSJldmVub2RkIiBjbGlwLXJ1bGU9ImV2ZW5vZGQiIGQ9Ik0yMiA4QzIyIDcuNCAyMS42IDcgMjEgN0gxMUMxMC40IDcgMTAgNy40IDEwIDhWMTBIMjJWOFpNMjMgMTJDMjMgMTEuNCAyMi42IDExIDIyIDExSDEwQzkuNCAxMSA5IDExLjQgOSAxMlYxNEgyM1YxMlpNOSAxNUgyM0MyMy41IDE1IDI0IDE1LjQgMjQgMTZWMjJDMjQgMjIuNiAyMy42IDIzIDIzIDIzSDlDOC40IDIzIDggMjIuNiA4IDIyVjE2QzggMTUuNCA4LjQgMTUgOSAxNVpNMTQgMjBIMThDMTguNSAyMCAxOSAxOS41IDE5IDE5QzE5IDE4LjQgMTguNiAxOCAxOCAxOEgxNEMxMy40IDE4IDEzIDE4LjQgMTMgMTlDMTMgMTkuNiAxMy40IDIwIDE0IDIwWiIgZmlsbD0id2hpdGUiLz4mI3hhOzwvc3ZnPg==;" vertex="1" parent="ivyYnvaPWOOoQjRPQurW-136">
          <mxGeometry x="49" y="10" width="32" height="32" as="geometry" />
        </mxCell>
        <mxCell id="ivyYnvaPWOOoQjRPQurW-161" value="" style="group" vertex="1" connectable="0" parent="ivyYnvaPWOOoQjRPQurW-169">
          <mxGeometry x="330" y="836.29" width="320" height="160" as="geometry" />
        </mxCell>
        <mxCell id="ivyYnvaPWOOoQjRPQurW-162" value="" style="shape=image;verticalLabelPosition=bottom;verticalAlign=top;imageAspect=0;aspect=fixed;image=data:image/svg+xml,PHN2ZyB4bWxucz0iaHR0cDovL3d3dy53My5vcmcvMjAwMC9zdmciIHdpZHRoPSIzMiIgaGVpZ2h0PSIzMiIgdmlld0JveD0iMCAwIDMyIDMyIiBmaWxsPSJub25lIj4mI3hhOzxwYXRoIGQ9Ik0wIDE2QzAgNy4xNjM0NCA3LjE2MzQ0IDAgMTYgMFYwQzI0LjgzNjYgMCAzMiA3LjE2MzQ0IDMyIDE2VjE2QzMyIDI0LjgzNjYgMjQuODM2NiAzMiAxNiAzMlYzMkM3LjE2MzQ0IDMyIDAgMjQuODM2NiAwIDE2VjE2WiIgZmlsbD0iIzUyODJGRiIvPiYjeGE7PHBhdGggZD0iTTExLjk5NSAyNEw3LjAwMDk4IDE3LjczOEw4Ljc4MTk4IDkuOTI3TDE2IDYuNDUzTDIzLjIxOCA5LjkyOEwyNC45OTkgMTcuNzM5TDIwLjAwNSAyNEgxMS45OTVaTTIwIDEzLjE5NkwxNS45OTkgMTAuODk5TDEyIDEzLjE5NlYxOC4xTDE2IDIwLjQwMUwyMCAxOC4xVjEzLjE5NlpNMTguNzggMTMuODk2SDE4Ljc4N0wxNiAxNS40OTlMMTMuMjE0IDEzLjg5NUgxMy4yMTlMMTUuOTk5IDEyLjI5OUwxOC43OCAxMy44OTZaIiBmaWxsPSJ3aGl0ZSIvPiYjeGE7PC9zdmc+;container=0;" vertex="1" parent="ivyYnvaPWOOoQjRPQurW-161">
          <mxGeometry x="29.995151515151463" y="59.99999999999977" width="27.69545454545455" height="27.69545454545455" as="geometry" />
        </mxCell>
        <mxCell id="ivyYnvaPWOOoQjRPQurW-163" style="vsdxID=6;fillColor=none;gradientColor=none;shape=stencil(vVNdD4IgFP01POIQms1nq//BEpVF4q6U9u/DoFJxPdjm2/04cO65cBDL2oo3AlHSGtAX0cncVIgdEKWyrgRIYyPEjohlhQZRgr7VucsbPiCH6Krvww29O0eGE5Q8XJaSaPcqnByWw9k2wWNZRFMHhzc+SlwhQHhATDxBj3kvWwzacCN1PSFXHEqBLRcuFC8nrbYTognKfjol65GSNIn28SL5SjGf2efL2UBMwO1nWykl3M1mzxJ8ib/eZHkrG8j47RMbfA1WSKWcP8f9uSFtyZmZHZ8=);strokeColor=#5282ff;spacingTop=-3;spacingBottom=-3;spacingLeft=-3;spacingRight=-3;points=[];labelBackgroundColor=none;rounded=0;html=1;whiteSpace=wrap;container=0;" vertex="1" parent="ivyYnvaPWOOoQjRPQurW-161">
          <mxGeometry width="320" height="160" as="geometry" />
        </mxCell>
        <mxCell id="ivyYnvaPWOOoQjRPQurW-164" value="&lt;div style=&quot;&quot;&gt;&lt;font face=&quot;Arial&quot;&gt;&lt;span style=&quot;font-size: 22.58px;&quot;&gt;VM5&lt;/span&gt;&lt;/font&gt;&lt;/div&gt;" style="verticalAlign=middle;align=center;overflow=width;vsdxID=7;fillColor=none;gradientColor=none;shape=stencil(nZBLDoAgDERP0z3SIyjew0SURgSD+Lu9kMZoXLhwN9O+tukAlrNpJg1SzDH4QW/URgNYgZTkjA4UkwJUgGXng+6DX1zLfmoymdXo17xh5zmRJ6Q42BWCfc2oJfdAr+Yv+AP9Cb7OJ3H/2JG1HNGz/84klThPVCc=);strokeColor=none;points=[];labelBackgroundColor=none;rounded=0;html=1;whiteSpace=wrap;container=0;" vertex="1" parent="ivyYnvaPWOOoQjRPQurW-161">
          <mxGeometry x="10" y="10" width="80.3" height="50" as="geometry" />
        </mxCell>
        <mxCell id="ivyYnvaPWOOoQjRPQurW-165" value="" style="group" vertex="1" connectable="0" parent="ivyYnvaPWOOoQjRPQurW-161">
          <mxGeometry x="170" y="27.25" width="130" height="122.75" as="geometry" />
        </mxCell>
        <mxCell id="ivyYnvaPWOOoQjRPQurW-166" style="vsdxID=5;fillColor=none;gradientColor=none;shape=stencil(vVPLEoIgFP0aljgEVuPa6j+YRGUica6U9vdhUKk4LWzG3X0cOPdcOIilTclrgShpDOiLaGVmSsQOiFJZlQKksRFiR8TSXIMoQN+qzOU175F9dNX3/obOnSP9CUoeLktIFL8KJ4flcLZN8NhtRJiDwxsf7VwhQHjAhniCDvNONhi04UbqakSuOBQCWy6cK16MWk0rRB2U/XRKVgMlSRwl+1nyhWI+s0+Xs4KYgNvPtlBKuJvVniX4En+9yfxWVpDx2yc2+Bosl0o5fw77U0PakjMzOz4B);strokeColor=#ff5958;spacingTop=-3;spacingBottom=-3;spacingLeft=-3;spacingRight=-3;points=[];labelBackgroundColor=none;rounded=0;html=1;whiteSpace=wrap;container=0;" vertex="1" parent="ivyYnvaPWOOoQjRPQurW-165">
          <mxGeometry width="130" height="122.75" as="geometry" />
        </mxCell>
        <mxCell id="ivyYnvaPWOOoQjRPQurW-167" value="&lt;div style=&quot;&quot;&gt;&lt;font face=&quot;Arial&quot;&gt;&lt;span style=&quot;font-size: 22.58px;&quot;&gt;Percona (PMM)&lt;/span&gt;&lt;/font&gt;&lt;/div&gt;" style="verticalAlign=bottom;align=center;overflow=width;vsdxID=6;fillColor=none;gradientColor=none;strokeColor=none;spacingTop=-3;spacingBottom=-3;spacingLeft=-3;spacingRight=-3;points=[];labelBackgroundColor=none;rounded=0;html=1;whiteSpace=wrap;container=0;" vertex="1" parent="ivyYnvaPWOOoQjRPQurW-165">
          <mxGeometry y="60.84" width="130" height="59.16" as="geometry" />
        </mxCell>
        <mxCell id="ivyYnvaPWOOoQjRPQurW-168" value="" style="shape=image;verticalLabelPosition=bottom;verticalAlign=top;imageAspect=0;aspect=fixed;image=data:image/svg+xml,PHN2ZyB4bWxucz0iaHR0cDovL3d3dy53My5vcmcvMjAwMC9zdmciIHdpZHRoPSIzMiIgaGVpZ2h0PSIzMiIgdmlld0JveD0iMCAwIDMyIDMyIiBmaWxsPSJub25lIj4mI3hhOzxwYXRoIGQ9Ik0wIDE2QzAgNy4xNjM0NCA3LjE2MzQ0IDAgMTYgMFYwQzI0LjgzNjYgMCAzMiA3LjE2MzQ0IDMyIDE2VjE2QzMyIDI0LjgzNjYgMjQuODM2NiAzMiAxNiAzMlYzMkM3LjE2MzQ0IDMyIDAgMjQuODM2NiAwIDE2VjE2WiIgZmlsbD0iIzUyODJGRiIvPiYjeGE7PHBhdGggZmlsbC1ydWxlPSJldmVub2RkIiBjbGlwLXJ1bGU9ImV2ZW5vZGQiIGQ9Ik0yMiA4QzIyIDcuNCAyMS42IDcgMjEgN0gxMUMxMC40IDcgMTAgNy40IDEwIDhWMTBIMjJWOFpNMjMgMTJDMjMgMTEuNCAyMi42IDExIDIyIDExSDEwQzkuNCAxMSA5IDExLjQgOSAxMlYxNEgyM1YxMlpNOSAxNUgyM0MyMy41IDE1IDI0IDE1LjQgMjQgMTZWMjJDMjQgMjIuNiAyMy42IDIzIDIzIDIzSDlDOC40IDIzIDggMjIuNiA4IDIyVjE2QzggMTUuNCA4LjQgMTUgOSAxNVpNMTQgMjBIMThDMTguNSAyMCAxOSAxOS41IDE5IDE5QzE5IDE4LjQgMTguNiAxOCAxOCAxOEgxNEMxMy40IDE4IDEzIDE4LjQgMTMgMTlDMTMgMTkuNiAxMy40IDIwIDE0IDIwWiIgZmlsbD0id2hpdGUiLz4mI3hhOzwvc3ZnPg==;" vertex="1" parent="ivyYnvaPWOOoQjRPQurW-165">
          <mxGeometry x="49" y="11.635071090047393" width="32" height="32" as="geometry" />
        </mxCell>
        <mxCell id="ivyYnvaPWOOoQjRPQurW-170" style="edgeStyle=orthogonalEdgeStyle;rounded=0;orthogonalLoop=1;jettySize=auto;html=1;entryX=0.482;entryY=0.05;entryDx=0;entryDy=0;entryPerimeter=0;" edge="1" parent="ivyYnvaPWOOoQjRPQurW-169" source="ivyYnvaPWOOoQjRPQurW-35" target="ivyYnvaPWOOoQjRPQurW-142">
          <mxGeometry relative="1" as="geometry">
            <Array as="points">
              <mxPoint x="915" y="356" />
              <mxPoint x="843" y="356" />
            </Array>
          </mxGeometry>
        </mxCell>
        <mxCell id="ivyYnvaPWOOoQjRPQurW-171" style="edgeStyle=orthogonalEdgeStyle;rounded=0;orthogonalLoop=1;jettySize=auto;html=1;entryX=0.5;entryY=0.014;entryDx=0;entryDy=0;entryPerimeter=0;" edge="1" parent="ivyYnvaPWOOoQjRPQurW-169" source="ivyYnvaPWOOoQjRPQurW-35" target="ivyYnvaPWOOoQjRPQurW-85">
          <mxGeometry relative="1" as="geometry">
            <Array as="points">
              <mxPoint x="915" y="356" />
              <mxPoint x="305" y="356" />
            </Array>
          </mxGeometry>
        </mxCell>
        <mxCell id="ivyYnvaPWOOoQjRPQurW-172" style="edgeStyle=orthogonalEdgeStyle;rounded=0;orthogonalLoop=1;jettySize=auto;html=1;" edge="1" parent="ivyYnvaPWOOoQjRPQurW-169" source="ivyYnvaPWOOoQjRPQurW-90" target="ivyYnvaPWOOoQjRPQurW-166">
          <mxGeometry relative="1" as="geometry" />
        </mxCell>
        <mxCell id="ivyYnvaPWOOoQjRPQurW-174" style="edgeStyle=orthogonalEdgeStyle;rounded=0;orthogonalLoop=1;jettySize=auto;html=1;entryX=0.992;entryY=0.066;entryDx=0;entryDy=0;entryPerimeter=0;exitX=0.521;exitY=1.009;exitDx=0;exitDy=0;exitPerimeter=0;" edge="1" parent="ivyYnvaPWOOoQjRPQurW-169" source="ivyYnvaPWOOoQjRPQurW-147" target="ivyYnvaPWOOoQjRPQurW-167">
          <mxGeometry relative="1" as="geometry" />
        </mxCell>
        <mxCell id="ivyYnvaPWOOoQjRPQurW-175" style="edgeStyle=orthogonalEdgeStyle;rounded=0;orthogonalLoop=1;jettySize=auto;html=1;fillColor=#d5e8d4;strokeColor=#82b366;exitX=0.539;exitY=1.002;exitDx=0;exitDy=0;exitPerimeter=0;" edge="1" parent="ivyYnvaPWOOoQjRPQurW-169" source="ivyYnvaPWOOoQjRPQurW-131" target="ivyYnvaPWOOoQjRPQurW-142">
          <mxGeometry relative="1" as="geometry">
            <mxPoint x="780" y="416.29" as="targetPoint" />
            <Array as="points">
              <mxPoint x="550" y="309" />
              <mxPoint x="550" y="416" />
            </Array>
          </mxGeometry>
        </mxCell>
        <mxCell id="ivyYnvaPWOOoQjRPQurW-177" style="edgeStyle=orthogonalEdgeStyle;rounded=0;orthogonalLoop=1;jettySize=auto;html=1;entryX=1;entryY=0.194;entryDx=0;entryDy=0;entryPerimeter=0;fillColor=#d5e8d4;strokeColor=#82b366;" edge="1" parent="ivyYnvaPWOOoQjRPQurW-169" source="ivyYnvaPWOOoQjRPQurW-131" target="ivyYnvaPWOOoQjRPQurW-85">
          <mxGeometry relative="1" as="geometry">
            <Array as="points">
              <mxPoint x="550" y="416" />
              <mxPoint x="450" y="416" />
              <mxPoint x="450" y="418" />
            </Array>
          </mxGeometry>
        </mxCell>
        <mxCell id="ivyYnvaPWOOoQjRPQurW-178" style="edgeStyle=orthogonalEdgeStyle;rounded=0;orthogonalLoop=1;jettySize=auto;html=1;entryX=0.494;entryY=0.062;entryDx=0;entryDy=0;entryPerimeter=0;" edge="1" parent="ivyYnvaPWOOoQjRPQurW-169" source="Zcm5tQwCMB2YyKj0-IPv-16" target="ivyYnvaPWOOoQjRPQurW-35">
          <mxGeometry relative="1" as="geometry" />
        </mxCell>
        <mxCell id="ivyYnvaPWOOoQjRPQurW-179" style="edgeStyle=orthogonalEdgeStyle;rounded=0;orthogonalLoop=1;jettySize=auto;html=1;entryX=0.01;entryY=0.027;entryDx=0;entryDy=0;entryPerimeter=0;dashed=1;dashPattern=8 8;startArrow=none;startFill=0;endArrow=none;endFill=0;" edge="1" parent="ivyYnvaPWOOoQjRPQurW-169" source="ivyYnvaPWOOoQjRPQurW-68" target="ivyYnvaPWOOoQjRPQurW-155">
          <mxGeometry relative="1" as="geometry" />
        </mxCell>
        <mxCell id="ivyYnvaPWOOoQjRPQurW-292" value="sync" style="edgeLabel;html=1;align=center;verticalAlign=middle;resizable=0;points=[];" vertex="1" connectable="0" parent="ivyYnvaPWOOoQjRPQurW-179">
          <mxGeometry x="-0.0488" y="-5" relative="1" as="geometry">
            <mxPoint as="offset" />
          </mxGeometry>
        </mxCell>
        <mxCell id="ivyYnvaPWOOoQjRPQurW-180" style="edgeStyle=orthogonalEdgeStyle;rounded=0;orthogonalLoop=1;jettySize=auto;html=1;entryX=0.029;entryY=0.028;entryDx=0;entryDy=0;entryPerimeter=0;exitX=0.952;exitY=0.039;exitDx=0;exitDy=0;exitPerimeter=0;dashed=1;dashPattern=8 8;endArrow=none;endFill=0;" edge="1" parent="ivyYnvaPWOOoQjRPQurW-169" source="ivyYnvaPWOOoQjRPQurW-87" target="ivyYnvaPWOOoQjRPQurW-144">
          <mxGeometry relative="1" as="geometry" />
        </mxCell>
        <mxCell id="ivyYnvaPWOOoQjRPQurW-287" value="sync" style="edgeLabel;html=1;align=center;verticalAlign=middle;resizable=0;points=[];" vertex="1" connectable="0" parent="ivyYnvaPWOOoQjRPQurW-180">
          <mxGeometry x="-0.1024" y="1" relative="1" as="geometry">
            <mxPoint x="1" as="offset" />
          </mxGeometry>
        </mxCell>
        <mxCell id="ivyYnvaPWOOoQjRPQurW-181" value="" style="group" vertex="1" connectable="0" parent="1">
          <mxGeometry x="483" y="360" width="1110.22" height="1030" as="geometry" />
        </mxCell>
        <mxCell id="ivyYnvaPWOOoQjRPQurW-182" value="&lt;div style=&quot;font-size: 1px&quot;&gt;&lt;font style=&quot;font-size:22.58px;font-family:Arial;color:#000000;direction:ltr;letter-spacing:0px;line-height:120%;opacity:1&quot;&gt;Зона доступности 1&lt;br&gt;&lt;/font&gt;&lt;/div&gt;" style="verticalAlign=bottom;align=center;overflow=width;vsdxID=5;fillColor=#e3ebff;gradientColor=none;shape=stencil(vVNBDsIgEHwNRwxCjHqu+g9iaUtEaBa09fdSwdpi9dBDb8vOwOwsGcQyW/FaIEqsA3MRjcxdhdgBUSp1JUA6XyF2RCwrDIgSzE3n4VzzjtlVV3PvXmjDPdLdoOQRTrvtavNqnAKXw9mDELkBIhDJaxrJZIy/YRLfbjFvpcVgHHfS6JGu4lAK7GVwoXg5gmwjRP3VjoMpqQcm9tPKs0z0Y6crWcBHqt0PN8tJspXFfmNKdpaBH8tYwML/VPjiE6dCKhXSOMTT+PlWiC47PgE=);strokeColor=none;spacingTop=-3;spacingBottom=-3;spacingLeft=-3;spacingRight=-3;points=[];labelBackgroundColor=none;rounded=0;html=1;whiteSpace=wrap;container=0;" vertex="1" parent="ivyYnvaPWOOoQjRPQurW-181">
          <mxGeometry width="1110.22" height="1030" as="geometry" />
        </mxCell>
        <mxCell id="ivyYnvaPWOOoQjRPQurW-183" value="" style="group" vertex="1" connectable="0" parent="ivyYnvaPWOOoQjRPQurW-181">
          <mxGeometry x="410" y="26.29000000000002" width="320" height="133.71" as="geometry" />
        </mxCell>
        <mxCell id="ivyYnvaPWOOoQjRPQurW-184" value="" style="shape=image;verticalLabelPosition=bottom;verticalAlign=top;imageAspect=0;aspect=fixed;image=data:image/svg+xml,PHN2ZyB4bWxucz0iaHR0cDovL3d3dy53My5vcmcvMjAwMC9zdmciIHdpZHRoPSIzMiIgaGVpZ2h0PSIzMiIgdmlld0JveD0iMCAwIDMyIDMyIiBmaWxsPSJub25lIj4mI3hhOzxwYXRoIGQ9Ik0wIDE2QzAgNy4xNjM0NCA3LjE2MzQ0IDAgMTYgMFYwQzI0LjgzNjYgMCAzMiA3LjE2MzQ0IDMyIDE2VjE2QzMyIDI0LjgzNjYgMjQuODM2NiAzMiAxNiAzMlYzMkM3LjE2MzQ0IDMyIDAgMjQuODM2NiAwIDE2VjE2WiIgZmlsbD0iIzUyODJGRiIvPiYjeGE7PHBhdGggZD0iTTExLjk5NSAyNEw3LjAwMDk4IDE3LjczOEw4Ljc4MTk4IDkuOTI3TDE2IDYuNDUzTDIzLjIxOCA5LjkyOEwyNC45OTkgMTcuNzM5TDIwLjAwNSAyNEgxMS45OTVaTTIwIDEzLjE5NkwxNS45OTkgMTAuODk5TDEyIDEzLjE5NlYxOC4xTDE2IDIwLjQwMUwyMCAxOC4xVjEzLjE5NlpNMTguNzggMTMuODk2SDE4Ljc4N0wxNiAxNS40OTlMMTMuMjE0IDEzLjg5NUgxMy4yMTlMMTUuOTk5IDEyLjI5OUwxOC43OCAxMy44OTZaIiBmaWxsPSJ3aGl0ZSIvPiYjeGE7PC9zdmc+;container=0;" vertex="1" parent="ivyYnvaPWOOoQjRPQurW-183">
          <mxGeometry x="43.99515151515152" y="86.14999999999996" width="27.69545454545455" height="27.69545454545455" as="geometry" />
        </mxCell>
        <mxCell id="ivyYnvaPWOOoQjRPQurW-185" value="&lt;div style=&quot;font-size: 1px&quot;&gt;&lt;font style=&quot;font-size:22.58px;font-family:Arial;color:#000000;direction:ltr;letter-spacing:0px;line-height:120%;opacity:1&quot;&gt;Kubernetes&lt;br&gt;&lt;/font&gt;&lt;/div&gt;&lt;div style=&quot;font-size: 1px&quot;&gt;&lt;font style=&quot;font-size:22.58px;font-family:Arial;color:#000000;direction:ltr;letter-spacing:0px;line-height:120%;opacity:1&quot;&gt;cluster 1&lt;/font&gt;&lt;/div&gt;" style="verticalAlign=middle;align=center;overflow=width;vsdxID=7;fillColor=none;gradientColor=none;shape=stencil(nZBLDoAgDERP0z3SIyjew0SURgSD+Lu9kMZoXLhwN9O+tukAlrNpJg1SzDH4QW/URgNYgZTkjA4UkwJUgGXng+6DX1zLfmoymdXo17xh5zmRJ6Q42BWCfc2oJfdAr+Yv+AP9Cb7OJ3H/2JG1HNGz/84klThPVCc=);strokeColor=none;points=[];labelBackgroundColor=none;rounded=0;html=1;whiteSpace=wrap;container=0;" vertex="1" parent="ivyYnvaPWOOoQjRPQurW-183">
          <mxGeometry x="9.696969696969697" width="116.36363636363637" height="86.13999999999999" as="geometry" />
        </mxCell>
        <mxCell id="ivyYnvaPWOOoQjRPQurW-186" style="vsdxID=6;fillColor=none;gradientColor=none;shape=stencil(vVNdD4IgFP01POIQms1nq//BEpVF4q6U9u/DoFJxPdjm2/04cO65cBDL2oo3AlHSGtAX0cncVIgdEKWyrgRIYyPEjohlhQZRgr7VucsbPiCH6Krvww29O0eGE5Q8XJaSaPcqnByWw9k2wWNZRFMHhzc+SlwhQHhATDxBj3kvWwzacCN1PSFXHEqBLRcuFC8nrbYTognKfjol65GSNIn28SL5SjGf2efL2UBMwO1nWykl3M1mzxJ8ib/eZHkrG8j47RMbfA1WSKWcP8f9uSFtyZmZHZ8=);strokeColor=#5282ff;spacingTop=-3;spacingBottom=-3;spacingLeft=-3;spacingRight=-3;points=[];labelBackgroundColor=none;rounded=0;html=1;whiteSpace=wrap;container=0;" vertex="1" parent="ivyYnvaPWOOoQjRPQurW-183">
          <mxGeometry width="320" height="133.70999999999998" as="geometry" />
        </mxCell>
        <mxCell id="ivyYnvaPWOOoQjRPQurW-187" value="" style="group" vertex="1" connectable="0" parent="ivyYnvaPWOOoQjRPQurW-183">
          <mxGeometry x="169" y="20" width="130" height="100" as="geometry" />
        </mxCell>
        <mxCell id="ivyYnvaPWOOoQjRPQurW-188" value="" style="shape=image;verticalLabelPosition=bottom;verticalAlign=top;imageAspect=0;aspect=fixed;image=data:image/svg+xml,PHN2ZyB4bWxucz0iaHR0cDovL3d3dy53My5vcmcvMjAwMC9zdmciIHdpZHRoPSIzMiIgaGVpZ2h0PSIzMiIgdmlld0JveD0iMCAwIDMyIDMyIiBmaWxsPSJub25lIj4mI3hhOzxwYXRoIGQ9Ik0wIDE2QzAgNy4xNjM0NCA3LjE2MzQ0IDAgMTYgMFYwQzI0LjgzNjYgMCAzMiA3LjE2MzQ0IDMyIDE2VjE2QzMyIDI0LjgzNjYgMjQuODM2NiAzMiAxNiAzMlYzMkM3LjE2MzQ0IDMyIDAgMjQuODM2NiAwIDE2VjE2WiIgZmlsbD0iIzUyODJGRiIvPiYjeGE7PHBhdGggZD0iTTExLjk5NSAyNEw3LjAwMDk4IDE3LjczOEw4Ljc4MTk4IDkuOTI3TDE2IDYuNDUzTDIzLjIxOCA5LjkyOEwyNC45OTkgMTcuNzM5TDIwLjAwNSAyNEgxMS45OTVaTTIwIDEzLjE5NkwxNS45OTkgMTAuODk5TDEyIDEzLjE5NlYxOC4xTDE2IDIwLjQwMUwyMCAxOC4xVjEzLjE5NlpNMTguNzggMTMuODk2SDE4Ljc4N0wxNiAxNS40OTlMMTMuMjE0IDEzLjg5NUgxMy4yMTlMMTUuOTk5IDEyLjI5OUwxOC43OCAxMy44OTZaIiBmaWxsPSJ3aGl0ZSIvPiYjeGE7PC9zdmc+;container=0;" vertex="1" parent="ivyYnvaPWOOoQjRPQurW-187">
          <mxGeometry x="53.819999999999936" y="10" width="28.571428571428573" height="28.571428571428573" as="geometry" />
        </mxCell>
        <mxCell id="ivyYnvaPWOOoQjRPQurW-189" style="vsdxID=5;fillColor=none;gradientColor=none;shape=stencil(vVPLEoIgFP0aljgEVuPa6j+YRGUica6U9vdhUKk4LWzG3X0cOPdcOIilTclrgShpDOiLaGVmSsQOiFJZlQKksRFiR8TSXIMoQN+qzOU175F9dNX3/obOnSP9CUoeLktIFL8KJ4flcLZN8NhtRJiDwxsf7VwhQHjAhniCDvNONhi04UbqakSuOBQCWy6cK16MWk0rRB2U/XRKVgMlSRwl+1nyhWI+s0+Xs4KYgNvPtlBKuJvVniX4En+9yfxWVpDx2yc2+Bosl0o5fw77U0PakjMzOz4B);strokeColor=#ff5958;spacingTop=-3;spacingBottom=-3;spacingLeft=-3;spacingRight=-3;points=[];labelBackgroundColor=none;rounded=0;html=1;whiteSpace=wrap;container=0;" vertex="1" parent="ivyYnvaPWOOoQjRPQurW-187">
          <mxGeometry width="130" height="100" as="geometry" />
        </mxCell>
        <mxCell id="ivyYnvaPWOOoQjRPQurW-190" value="&lt;div style=&quot;font-size: 1px&quot;&gt;&lt;font style=&quot;font-size:22.58px;font-family:Arial;color:#000000;direction:ltr;letter-spacing:0px;line-height:120%;opacity:1&quot;&gt;InsureTech&lt;/font&gt;&lt;/div&gt;&lt;div style=&quot;font-size: 1px&quot;&gt;&lt;font style=&quot;font-size:22.58px;font-family:Arial;color:#000000;direction:ltr;letter-spacing:0px;line-height:120%;opacity:1&quot;&gt;namespace&lt;/font&gt;&lt;/div&gt;" style="verticalAlign=bottom;align=center;overflow=width;vsdxID=6;fillColor=none;gradientColor=none;strokeColor=none;spacingTop=-3;spacingBottom=-3;spacingLeft=-3;spacingRight=-3;points=[];labelBackgroundColor=none;rounded=0;html=1;whiteSpace=wrap;container=0;" vertex="1" parent="ivyYnvaPWOOoQjRPQurW-187">
          <mxGeometry y="46" width="130" height="54" as="geometry" />
        </mxCell>
        <mxCell id="ivyYnvaPWOOoQjRPQurW-191" value="" style="group" vertex="1" connectable="0" parent="ivyYnvaPWOOoQjRPQurW-181">
          <mxGeometry x="690" y="186.29000000000002" width="320" height="160" as="geometry" />
        </mxCell>
        <mxCell id="ivyYnvaPWOOoQjRPQurW-192" value="" style="shape=image;verticalLabelPosition=bottom;verticalAlign=top;imageAspect=0;aspect=fixed;image=data:image/svg+xml,PHN2ZyB4bWxucz0iaHR0cDovL3d3dy53My5vcmcvMjAwMC9zdmciIHdpZHRoPSIzMiIgaGVpZ2h0PSIzMiIgdmlld0JveD0iMCAwIDMyIDMyIiBmaWxsPSJub25lIj4mI3hhOzxwYXRoIGQ9Ik0wIDE2QzAgNy4xNjM0NCA3LjE2MzQ0IDAgMTYgMFYwQzI0LjgzNjYgMCAzMiA3LjE2MzQ0IDMyIDE2VjE2QzMyIDI0LjgzNjYgMjQuODM2NiAzMiAxNiAzMlYzMkM3LjE2MzQ0IDMyIDAgMjQuODM2NiAwIDE2VjE2WiIgZmlsbD0iIzUyODJGRiIvPiYjeGE7PHBhdGggZD0iTTExLjk5NSAyNEw3LjAwMDk4IDE3LjczOEw4Ljc4MTk4IDkuOTI3TDE2IDYuNDUzTDIzLjIxOCA5LjkyOEwyNC45OTkgMTcuNzM5TDIwLjAwNSAyNEgxMS45OTVaTTIwIDEzLjE5NkwxNS45OTkgMTAuODk5TDEyIDEzLjE5NlYxOC4xTDE2IDIwLjQwMUwyMCAxOC4xVjEzLjE5NlpNMTguNzggMTMuODk2SDE4Ljc4N0wxNiAxNS40OTlMMTMuMjE0IDEzLjg5NUgxMy4yMTlMMTUuOTk5IDEyLjI5OUwxOC43OCAxMy44OTZaIiBmaWxsPSJ3aGl0ZSIvPiYjeGE7PC9zdmc+;container=0;" vertex="1" parent="ivyYnvaPWOOoQjRPQurW-191">
          <mxGeometry x="46.305151515151465" y="69.99999999999977" width="27.69545454545455" height="27.69545454545455" as="geometry" />
        </mxCell>
        <mxCell id="ivyYnvaPWOOoQjRPQurW-193" value="&lt;div style=&quot;&quot;&gt;&lt;font face=&quot;Arial&quot;&gt;&lt;span style=&quot;font-size: 22.58px;&quot;&gt;VM1&lt;/span&gt;&lt;/font&gt;&lt;/div&gt;" style="verticalAlign=middle;align=center;overflow=width;vsdxID=7;fillColor=none;gradientColor=none;shape=stencil(nZBLDoAgDERP0z3SIyjew0SURgSD+Lu9kMZoXLhwN9O+tukAlrNpJg1SzDH4QW/URgNYgZTkjA4UkwJUgGXng+6DX1zLfmoymdXo17xh5zmRJ6Q42BWCfc2oJfdAr+Yv+AP9Cb7OJ3H/2JG1HNGz/84klThPVCc=);strokeColor=none;points=[];labelBackgroundColor=none;rounded=0;html=1;whiteSpace=wrap;container=0;" vertex="1" parent="ivyYnvaPWOOoQjRPQurW-191">
          <mxGeometry x="20" y="20" width="80.3" height="50" as="geometry" />
        </mxCell>
        <mxCell id="ivyYnvaPWOOoQjRPQurW-194" style="vsdxID=6;fillColor=none;gradientColor=none;shape=stencil(vVNdD4IgFP01POIQms1nq//BEpVF4q6U9u/DoFJxPdjm2/04cO65cBDL2oo3AlHSGtAX0cncVIgdEKWyrgRIYyPEjohlhQZRgr7VucsbPiCH6Krvww29O0eGE5Q8XJaSaPcqnByWw9k2wWNZRFMHhzc+SlwhQHhATDxBj3kvWwzacCN1PSFXHEqBLRcuFC8nrbYTognKfjol65GSNIn28SL5SjGf2efL2UBMwO1nWykl3M1mzxJ8ib/eZHkrG8j47RMbfA1WSKWcP8f9uSFtyZmZHZ8=);strokeColor=#5282ff;spacingTop=-3;spacingBottom=-3;spacingLeft=-3;spacingRight=-3;points=[];labelBackgroundColor=none;rounded=0;html=1;whiteSpace=wrap;container=0;" vertex="1" parent="ivyYnvaPWOOoQjRPQurW-191">
          <mxGeometry width="320" height="160" as="geometry" />
        </mxCell>
        <mxCell id="ivyYnvaPWOOoQjRPQurW-195" value="" style="group" vertex="1" connectable="0" parent="ivyYnvaPWOOoQjRPQurW-191">
          <mxGeometry x="160" y="30" width="130" height="105.5" as="geometry" />
        </mxCell>
        <mxCell id="ivyYnvaPWOOoQjRPQurW-196" style="vsdxID=5;fillColor=none;gradientColor=none;shape=stencil(vVPLEoIgFP0aljgEVuPa6j+YRGUica6U9vdhUKk4LWzG3X0cOPdcOIilTclrgShpDOiLaGVmSsQOiFJZlQKksRFiR8TSXIMoQN+qzOU175F9dNX3/obOnSP9CUoeLktIFL8KJ4flcLZN8NhtRJiDwxsf7VwhQHjAhniCDvNONhi04UbqakSuOBQCWy6cK16MWk0rRB2U/XRKVgMlSRwl+1nyhWI+s0+Xs4KYgNvPtlBKuJvVniX4En+9yfxWVpDx2yc2+Bosl0o5fw77U0PakjMzOz4B);strokeColor=#ff5958;spacingTop=-3;spacingBottom=-3;spacingLeft=-3;spacingRight=-3;points=[];labelBackgroundColor=none;rounded=0;html=1;whiteSpace=wrap;container=0;" vertex="1" parent="ivyYnvaPWOOoQjRPQurW-195">
          <mxGeometry width="130" height="105.5" as="geometry" />
        </mxCell>
        <mxCell id="ivyYnvaPWOOoQjRPQurW-197" value="&lt;div style=&quot;&quot;&gt;&lt;font face=&quot;Arial&quot;&gt;&lt;span style=&quot;font-size: 22.58px;&quot;&gt;HAProxy&lt;/span&gt;&lt;/font&gt;&lt;/div&gt;" style="verticalAlign=bottom;align=center;overflow=width;vsdxID=6;fillColor=none;gradientColor=none;strokeColor=none;spacingTop=-3;spacingBottom=-3;spacingLeft=-3;spacingRight=-3;points=[];labelBackgroundColor=none;rounded=0;html=1;whiteSpace=wrap;container=0;" vertex="1" parent="ivyYnvaPWOOoQjRPQurW-195">
          <mxGeometry y="52.29" width="130" height="27.71" as="geometry" />
        </mxCell>
        <mxCell id="ivyYnvaPWOOoQjRPQurW-198" value="" style="shape=image;verticalLabelPosition=bottom;verticalAlign=top;imageAspect=0;aspect=fixed;image=data:image/svg+xml,PHN2ZyB4bWxucz0iaHR0cDovL3d3dy53My5vcmcvMjAwMC9zdmciIHdpZHRoPSIzMiIgaGVpZ2h0PSIzMiIgdmlld0JveD0iMCAwIDMyIDMyIiBmaWxsPSJub25lIj4mI3hhOzxwYXRoIGQ9Ik0wIDE2QzAgNy4xNjM0NCA3LjE2MzQ0IDAgMTYgMFYwQzI0LjgzNjYgMCAzMiA3LjE2MzQ0IDMyIDE2VjE2QzMyIDI0LjgzNjYgMjQuODM2NiAzMiAxNiAzMlYzMkM3LjE2MzQ0IDMyIDAgMjQuODM2NiAwIDE2VjE2WiIgZmlsbD0iIzUyODJGRiIvPiYjeGE7PHBhdGggZD0iTTE3IDE3SDE5LjNDMTkuNyAxNy42IDIwLjMgMTggMjEgMThDMjIuMSAxOCAyMyAxNy4xIDIzIDE2QzIzIDE0LjkgMjIuMSAxNCAyMSAxNEMyMC4zIDE0IDE5LjYgMTQuNCAxOS4zIDE1SDE3VjExSDE5LjNDMTkuNyAxMS42IDIwLjMgMTIgMjEgMTJDMjIuMSAxMiAyMyAxMS4xIDIzIDEwQzIzIDguOSAyMi4xIDggMjEgOEMyMC4zIDggMTkuNiA4LjQgMTkuMyA5SDE3QzE1LjkgOSAxNSA5LjkgMTUgMTFWMTUuM0wxMCAxMlYxNUg3VjE3SDEwVjIwTDE1IDE2LjdWMjFDMTUgMjIuMSAxNS45IDIzIDE3IDIzSDE5LjNDMTkuNyAyMy42IDIwLjMgMjQgMjEgMjRDMjIuMSAyNCAyMyAyMy4xIDIzIDIyQzIzIDIwLjkgMjIuMSAyMCAyMSAyMEMyMC4zIDIwIDE5LjYgMjAuNCAxOS4zIDIxSDE3VjE3WiIgZmlsbD0id2hpdGUiLz4mI3hhOzwvc3ZnPg==;" vertex="1" parent="ivyYnvaPWOOoQjRPQurW-195">
          <mxGeometry x="49" y="10" width="32" height="32" as="geometry" />
        </mxCell>
        <mxCell id="ivyYnvaPWOOoQjRPQurW-199" value="" style="group" vertex="1" connectable="0" parent="ivyYnvaPWOOoQjRPQurW-181">
          <mxGeometry x="60" y="366.29" width="460" height="440" as="geometry" />
        </mxCell>
        <mxCell id="ivyYnvaPWOOoQjRPQurW-200" style="vsdxID=6;fillColor=none;gradientColor=none;shape=stencil(vVNdD4IgFP01POIQms1nq//BEpVF4q6U9u/DoFJxPdjm2/04cO65cBDL2oo3AlHSGtAX0cncVIgdEKWyrgRIYyPEjohlhQZRgr7VucsbPiCH6Krvww29O0eGE5Q8XJaSaPcqnByWw9k2wWNZRFMHhzc+SlwhQHhATDxBj3kvWwzacCN1PSFXHEqBLRcuFC8nrbYTognKfjol65GSNIn28SL5SjGf2efL2UBMwO1nWykl3M1mzxJ8ib/eZHkrG8j47RMbfA1WSKWcP8f9uSFtyZmZHZ8=);strokeColor=#5282ff;spacingTop=-3;spacingBottom=-3;spacingLeft=-3;spacingRight=-3;points=[];labelBackgroundColor=none;rounded=0;html=1;whiteSpace=wrap;container=0;" vertex="1" parent="ivyYnvaPWOOoQjRPQurW-199">
          <mxGeometry width="460" height="440" as="geometry" />
        </mxCell>
        <mxCell id="ivyYnvaPWOOoQjRPQurW-201" value="&lt;div style=&quot;&quot;&gt;&lt;font face=&quot;Arial&quot;&gt;&lt;span style=&quot;font-size: 22.58px;&quot;&gt;VM2&lt;/span&gt;&lt;/font&gt;&lt;/div&gt;" style="verticalAlign=middle;align=center;overflow=width;vsdxID=7;fillColor=none;gradientColor=none;shape=stencil(nZBLDoAgDERP0z3SIyjew0SURgSD+Lu9kMZoXLhwN9O+tukAlrNpJg1SzDH4QW/URgNYgZTkjA4UkwJUgGXng+6DX1zLfmoymdXo17xh5zmRJ6Q42BWCfc2oJfdAr+Yv+AP9Cb7OJ3H/2JG1HNGz/84klThPVCc=);strokeColor=none;points=[];labelBackgroundColor=none;rounded=0;html=1;whiteSpace=wrap;container=0;" vertex="1" parent="ivyYnvaPWOOoQjRPQurW-199">
          <mxGeometry width="120" height="60" as="geometry" />
        </mxCell>
        <mxCell id="ivyYnvaPWOOoQjRPQurW-202" value="" style="shape=image;verticalLabelPosition=bottom;verticalAlign=top;imageAspect=0;aspect=fixed;image=data:image/svg+xml,PHN2ZyB4bWxucz0iaHR0cDovL3d3dy53My5vcmcvMjAwMC9zdmciIHdpZHRoPSIzMiIgaGVpZ2h0PSIzMiIgdmlld0JveD0iMCAwIDMyIDMyIiBmaWxsPSJub25lIj4mI3hhOzxwYXRoIGQ9Ik0wIDE2QzAgNy4xNjM0NCA3LjE2MzQ0IDAgMTYgMFYwQzI0LjgzNjYgMCAzMiA3LjE2MzQ0IDMyIDE2VjE2QzMyIDI0LjgzNjYgMjQuODM2NiAzMiAxNiAzMlYzMkM3LjE2MzQ0IDMyIDAgMjQuODM2NiAwIDE2VjE2WiIgZmlsbD0iIzUyODJGRiIvPiYjeGE7PHBhdGggZD0iTTExLjk5NSAyNEw3LjAwMDk4IDE3LjczOEw4Ljc4MTk4IDkuOTI3TDE2IDYuNDUzTDIzLjIxOCA5LjkyOEwyNC45OTkgMTcuNzM5TDIwLjAwNSAyNEgxMS45OTVaTTIwIDEzLjE5NkwxNS45OTkgMTAuODk5TDEyIDEzLjE5NlYxOC4xTDE2IDIwLjQwMUwyMCAxOC4xVjEzLjE5NlpNMTguNzggMTMuODk2SDE4Ljc4N0wxNiAxNS40OTlMMTMuMjE0IDEzLjg5NUgxMy4yMTlMMTUuOTk5IDEyLjI5OUwxOC43OCAxMy44OTZaIiBmaWxsPSJ3aGl0ZSIvPiYjeGE7PC9zdmc+;container=0;" vertex="1" parent="ivyYnvaPWOOoQjRPQurW-199">
          <mxGeometry x="46.15303030303028" y="49.99999999999977" width="27.69545454545455" height="27.69545454545455" as="geometry" />
        </mxCell>
        <mxCell id="ivyYnvaPWOOoQjRPQurW-203" value="" style="group" vertex="1" connectable="0" parent="ivyYnvaPWOOoQjRPQurW-199">
          <mxGeometry x="180" y="31.09999999999991" width="130" height="105.5" as="geometry" />
        </mxCell>
        <mxCell id="ivyYnvaPWOOoQjRPQurW-204" style="vsdxID=5;fillColor=none;gradientColor=none;shape=stencil(vVPLEoIgFP0aljgEVuPa6j+YRGUica6U9vdhUKk4LWzG3X0cOPdcOIilTclrgShpDOiLaGVmSsQOiFJZlQKksRFiR8TSXIMoQN+qzOU175F9dNX3/obOnSP9CUoeLktIFL8KJ4flcLZN8NhtRJiDwxsf7VwhQHjAhniCDvNONhi04UbqakSuOBQCWy6cK16MWk0rRB2U/XRKVgMlSRwl+1nyhWI+s0+Xs4KYgNvPtlBKuJvVniX4En+9yfxWVpDx2yc2+Bosl0o5fw77U0PakjMzOz4B);strokeColor=#ff5958;spacingTop=-3;spacingBottom=-3;spacingLeft=-3;spacingRight=-3;points=[];labelBackgroundColor=none;rounded=0;html=1;whiteSpace=wrap;container=0;" vertex="1" parent="ivyYnvaPWOOoQjRPQurW-203">
          <mxGeometry width="130" height="105.5" as="geometry" />
        </mxCell>
        <mxCell id="ivyYnvaPWOOoQjRPQurW-205" value="" style="shape=image;verticalLabelPosition=bottom;verticalAlign=top;imageAspect=0;aspect=fixed;image=data:image/svg+xml,PHN2ZyB4bWxucz0iaHR0cDovL3d3dy53My5vcmcvMjAwMC9zdmciIHdpZHRoPSIzMiIgaGVpZ2h0PSIzMiIgdmlld0JveD0iMCAwIDMyIDMyIiBmaWxsPSJub25lIj4mI3hhOzxwYXRoIGQ9Ik0wIDE2QzAgNy4xNjM0NCA3LjE2MzQ0IDAgMTYgMFYwQzI0LjgzNjYgMCAzMiA3LjE2MzQ0IDMyIDE2VjE2QzMyIDI0LjgzNjYgMjQuODM2NiAzMiAxNiAzMlYzMkM3LjE2MzQ0IDMyIDAgMjQuODM2NiAwIDE2VjE2WiIgZmlsbD0iIzUyODJGRiIvPiYjeGE7PHBhdGggZmlsbC1ydWxlPSJldmVub2RkIiBjbGlwLXJ1bGU9ImV2ZW5vZGQiIGQ9Ik0xMyA4SDE4QzIxLjMgOCAyNCAxMC43IDI0IDE0VjI0SDIwVjIwSDIyVjE5SDE4LjZDMTUuNSAxOSAxMyAxNi41IDEzIDEzLjRWOFpNMTkgMTdIMjFWMTVIMTlWMTdaTTEyIDkuMDk5OThWMTMuNEMxMiAxNi44IDE0LjYgMTkuNyAxOCAyMC4xVjIwLjZDMTggMjIgMTUuOCAyMy4xIDEzIDIzLjFDMTAuMiAyMy4xIDggMjIgOCAyMC42VjExLjZDOCAxMC4zIDkuNyA5LjI5OTk4IDEyIDkuMDk5OThaIiBmaWxsPSJ3aGl0ZSIvPiYjeGE7PC9zdmc+;container=0;" vertex="1" parent="ivyYnvaPWOOoQjRPQurW-203">
          <mxGeometry x="46.87000000000002" y="3.730000000000018" width="36.26923076923077" height="36.26923076923077" as="geometry" />
        </mxCell>
        <mxCell id="ivyYnvaPWOOoQjRPQurW-206" value="&lt;div style=&quot;font-size: 1px&quot;&gt;&lt;font style=&quot;font-size:22.58px;font-family:Arial;color:#000000;direction:ltr;letter-spacing:0px;line-height:120%;opacity:1&quot;&gt;PosrgreSQL&lt;br&gt;&lt;/font&gt;&lt;/div&gt;&lt;div style=&quot;font-size: 1px&quot;&gt;&lt;font style=&quot;font-size:22.58px;font-family:Arial;color:#000000;direction:ltr;letter-spacing:0px;line-height:120%;opacity:1&quot;&gt;(shard)&lt;/font&gt;&lt;/div&gt;&lt;div style=&quot;font-size: 1px&quot;&gt;&lt;br&gt;&lt;/div&gt;" style="verticalAlign=bottom;align=center;overflow=width;vsdxID=6;fillColor=none;gradientColor=none;strokeColor=none;spacingTop=-3;spacingBottom=-3;spacingLeft=-3;spacingRight=-3;points=[];labelBackgroundColor=none;rounded=0;html=1;whiteSpace=wrap;container=0;" vertex="1" parent="ivyYnvaPWOOoQjRPQurW-203">
          <mxGeometry y="52.289999999999964" width="130" height="53.21" as="geometry" />
        </mxCell>
        <mxCell id="ivyYnvaPWOOoQjRPQurW-207" value="" style="group" vertex="1" connectable="0" parent="ivyYnvaPWOOoQjRPQurW-199">
          <mxGeometry x="270" y="199.99999999999991" width="130" height="105.5" as="geometry" />
        </mxCell>
        <mxCell id="ivyYnvaPWOOoQjRPQurW-208" style="vsdxID=5;fillColor=none;gradientColor=none;shape=stencil(vVPLEoIgFP0aljgEVuPa6j+YRGUica6U9vdhUKk4LWzG3X0cOPdcOIilTclrgShpDOiLaGVmSsQOiFJZlQKksRFiR8TSXIMoQN+qzOU175F9dNX3/obOnSP9CUoeLktIFL8KJ4flcLZN8NhtRJiDwxsf7VwhQHjAhniCDvNONhi04UbqakSuOBQCWy6cK16MWk0rRB2U/XRKVgMlSRwl+1nyhWI+s0+Xs4KYgNvPtlBKuJvVniX4En+9yfxWVpDx2yc2+Bosl0o5fw77U0PakjMzOz4B);strokeColor=#ff5958;spacingTop=-3;spacingBottom=-3;spacingLeft=-3;spacingRight=-3;points=[];labelBackgroundColor=none;rounded=0;html=1;whiteSpace=wrap;container=0;" vertex="1" parent="ivyYnvaPWOOoQjRPQurW-207">
          <mxGeometry width="130" height="105.5" as="geometry" />
        </mxCell>
        <mxCell id="ivyYnvaPWOOoQjRPQurW-209" value="&lt;div style=&quot;&quot;&gt;&lt;font face=&quot;Arial&quot;&gt;&lt;span style=&quot;font-size: 22.58px;&quot;&gt;PPM Client&lt;/span&gt;&lt;/font&gt;&lt;/div&gt;" style="verticalAlign=bottom;align=center;overflow=width;vsdxID=6;fillColor=none;gradientColor=none;strokeColor=none;spacingTop=-3;spacingBottom=-3;spacingLeft=-3;spacingRight=-3;points=[];labelBackgroundColor=none;rounded=0;html=1;whiteSpace=wrap;container=0;" vertex="1" parent="ivyYnvaPWOOoQjRPQurW-207">
          <mxGeometry y="52.289999999999964" width="130" height="53.21" as="geometry" />
        </mxCell>
        <mxCell id="ivyYnvaPWOOoQjRPQurW-210" value="" style="shape=image;verticalLabelPosition=bottom;verticalAlign=top;imageAspect=0;aspect=fixed;image=data:image/svg+xml,PHN2ZyB4bWxucz0iaHR0cDovL3d3dy53My5vcmcvMjAwMC9zdmciIHdpZHRoPSIzMiIgaGVpZ2h0PSIzMiIgdmlld0JveD0iMCAwIDMyIDMyIiBmaWxsPSJub25lIj4mI3hhOzxwYXRoIGQ9Ik0wIDE2QzAgNy4xNjM0NCA3LjE2MzQ0IDAgMTYgMFYwQzI0LjgzNjYgMCAzMiA3LjE2MzQ0IDMyIDE2VjE2QzMyIDI0LjgzNjYgMjQuODM2NiAzMiAxNiAzMlYzMkM3LjE2MzQ0IDMyIDAgMjQuODM2NiAwIDE2VjE2WiIgZmlsbD0iIzUyODJGRiIvPiYjeGE7PHBhdGggZD0iTTkgMTBIOFYyMkgyNFYyMEg5VjEwWk0yMC41IDE1LjVMMTcgMTJMMTMuNSAxNS41TDEwIDEyVjE5SDI0VjEyTDIwLjUgMTUuNVoiIGZpbGw9IndoaXRlIi8+JiN4YTs8L3N2Zz4=;" vertex="1" parent="ivyYnvaPWOOoQjRPQurW-207">
          <mxGeometry x="49" y="10" width="32" height="32" as="geometry" />
        </mxCell>
        <mxCell id="ivyYnvaPWOOoQjRPQurW-211" value="" style="group" vertex="1" connectable="0" parent="ivyYnvaPWOOoQjRPQurW-199">
          <mxGeometry x="30" y="170" width="130" height="105.5" as="geometry" />
        </mxCell>
        <mxCell id="ivyYnvaPWOOoQjRPQurW-212" style="vsdxID=5;fillColor=none;gradientColor=none;shape=stencil(vVPLEoIgFP0aljgEVuPa6j+YRGUica6U9vdhUKk4LWzG3X0cOPdcOIilTclrgShpDOiLaGVmSsQOiFJZlQKksRFiR8TSXIMoQN+qzOU175F9dNX3/obOnSP9CUoeLktIFL8KJ4flcLZN8NhtRJiDwxsf7VwhQHjAhniCDvNONhi04UbqakSuOBQCWy6cK16MWk0rRB2U/XRKVgMlSRwl+1nyhWI+s0+Xs4KYgNvPtlBKuJvVniX4En+9yfxWVpDx2yc2+Bosl0o5fw77U0PakjMzOz4B);strokeColor=#ff5958;spacingTop=-3;spacingBottom=-3;spacingLeft=-3;spacingRight=-3;points=[];labelBackgroundColor=none;rounded=0;html=1;whiteSpace=wrap;container=0;" vertex="1" parent="ivyYnvaPWOOoQjRPQurW-211">
          <mxGeometry width="130" height="105.5" as="geometry" />
        </mxCell>
        <mxCell id="ivyYnvaPWOOoQjRPQurW-213" value="&lt;div style=&quot;&quot;&gt;&lt;font face=&quot;Arial&quot;&gt;&lt;span style=&quot;font-size: 22.58px;&quot;&gt;P&lt;/span&gt;&lt;/font&gt;&lt;span style=&quot;font-size: 22.58px; font-family: Arial; background-color: initial;&quot;&gt;atroni&lt;/span&gt;&lt;/div&gt;" style="verticalAlign=bottom;align=center;overflow=width;vsdxID=6;fillColor=none;gradientColor=none;strokeColor=none;spacingTop=-3;spacingBottom=-3;spacingLeft=-3;spacingRight=-3;points=[];labelBackgroundColor=none;rounded=0;html=1;whiteSpace=wrap;container=0;" vertex="1" parent="ivyYnvaPWOOoQjRPQurW-211">
          <mxGeometry y="52.289999999999964" width="130" height="53.21" as="geometry" />
        </mxCell>
        <mxCell id="ivyYnvaPWOOoQjRPQurW-214" value="" style="shape=image;verticalLabelPosition=bottom;verticalAlign=top;imageAspect=0;aspect=fixed;image=data:image/svg+xml,PHN2ZyB4bWxucz0iaHR0cDovL3d3dy53My5vcmcvMjAwMC9zdmciIHdpZHRoPSIzMiIgaGVpZ2h0PSIzMiIgdmlld0JveD0iMCAwIDMyIDMyIiBmaWxsPSJub25lIj4mI3hhOzxwYXRoIGQ9Ik0wIDE2QzAgNy4xNjM0NCA3LjE2MzQ0IDAgMTYgMFYwQzI0LjgzNjYgMCAzMiA3LjE2MzQ0IDMyIDE2VjE2QzMyIDI0LjgzNjYgMjQuODM2NiAzMiAxNiAzMlYzMkM3LjE2MzQ0IDMyIDAgMjQuODM2NiAwIDE2VjE2WiIgZmlsbD0iIzUyODJGRiIvPiYjeGE7PHBhdGggZmlsbC1ydWxlPSJldmVub2RkIiBjbGlwLXJ1bGU9ImV2ZW5vZGQiIGQ9Ik0xNS4xIDExLjg2QzE1LjI1IDExIDE3LjA0IDEwIDE5LjUgMTBDMjIgMTAgMjQgMTEgMjQgMTIuMThMMjMuNzYgMTRDMjMuNjcgMTQuNyAyMiAxNiAxOSAxNkMxNi42MiAxNiAxNC43MSAxNC42NiAxNC44NSAxMy42M0wxNS4xIDExLjg2Wk0xNC42NiAxNUwxNC4zOSAxN0MxNC4yNSAxNy44MSAxNi41NCAxOSAxOSAxOUMyMS4yNSAxOSAyMy4yNCAxOC4wNSAyMy4zNSAxNy4yMUMyMy40MiAxNi42MyAyMy41IDE2LjAzIDIzLjU4IDE1LjQ0QzIyLjc2IDE2LjQ1IDIxIDE3IDE5LjE2IDE3QzE3LjE2IDE3IDE1LjI1IDE2LjI4IDE0LjY2IDE1Wk0xNC4yIDE4LjMxOTlDMTQuMDggMTkuMTk5OSAxNCAxOS44MTk5IDE0IDE5LjgxOTlDMTMuODQgMjAuOTk5OSAxNiAyMS45OTk5IDE4LjUgMjEuOTk5OUMyMC43NyAyMS45OTk5IDIyLjg1IDIxLjA2OTkgMjIuOTYgMjAuMTE5OUwyMy4xNSAxOC42OTk5QzIxLjk5MTggMTkuNjYyOCAyMC41MDA1IDIwLjEyOTkgMTkgMTkuOTk5OUMxNi42MiAxOS45OTk5IDE0Ljg0IDE5LjI3OTkgMTQuMiAxOC4zMTk5Wk0xMyAxNEg4VjE1SDEzVjE0Wk05IDE3SDEzVjE4SDlWMTdaIiBmaWxsPSJ3aGl0ZSIvPiYjeGE7PC9zdmc+;" vertex="1" parent="ivyYnvaPWOOoQjRPQurW-211">
          <mxGeometry x="49" y="10" width="32" height="32" as="geometry" />
        </mxCell>
        <mxCell id="ivyYnvaPWOOoQjRPQurW-215" value="" style="group" vertex="1" connectable="0" parent="ivyYnvaPWOOoQjRPQurW-199">
          <mxGeometry x="30" y="330" width="130" height="105.5" as="geometry" />
        </mxCell>
        <mxCell id="ivyYnvaPWOOoQjRPQurW-216" style="vsdxID=5;fillColor=none;gradientColor=none;shape=stencil(vVPLEoIgFP0aljgEVuPa6j+YRGUica6U9vdhUKk4LWzG3X0cOPdcOIilTclrgShpDOiLaGVmSsQOiFJZlQKksRFiR8TSXIMoQN+qzOU175F9dNX3/obOnSP9CUoeLktIFL8KJ4flcLZN8NhtRJiDwxsf7VwhQHjAhniCDvNONhi04UbqakSuOBQCWy6cK16MWk0rRB2U/XRKVgMlSRwl+1nyhWI+s0+Xs4KYgNvPtlBKuJvVniX4En+9yfxWVpDx2yc2+Bosl0o5fw77U0PakjMzOz4B);strokeColor=#ff5958;spacingTop=-3;spacingBottom=-3;spacingLeft=-3;spacingRight=-3;points=[];labelBackgroundColor=none;rounded=0;html=1;whiteSpace=wrap;container=0;" vertex="1" parent="ivyYnvaPWOOoQjRPQurW-215">
          <mxGeometry width="130" height="105.5" as="geometry" />
        </mxCell>
        <mxCell id="ivyYnvaPWOOoQjRPQurW-217" value="&lt;div style=&quot;&quot;&gt;&lt;font face=&quot;Arial&quot;&gt;&lt;span style=&quot;font-size: 22.58px;&quot;&gt;ETCD&lt;/span&gt;&lt;/font&gt;&lt;/div&gt;" style="verticalAlign=bottom;align=center;overflow=width;vsdxID=6;fillColor=none;gradientColor=none;strokeColor=none;spacingTop=-3;spacingBottom=-3;spacingLeft=-3;spacingRight=-3;points=[];labelBackgroundColor=none;rounded=0;html=1;whiteSpace=wrap;container=0;" vertex="1" parent="ivyYnvaPWOOoQjRPQurW-215">
          <mxGeometry y="52.289999999999964" width="130" height="53.21" as="geometry" />
        </mxCell>
        <mxCell id="ivyYnvaPWOOoQjRPQurW-218" value="" style="shape=image;verticalLabelPosition=bottom;verticalAlign=top;imageAspect=0;aspect=fixed;image=data:image/svg+xml,PHN2ZyB4bWxucz0iaHR0cDovL3d3dy53My5vcmcvMjAwMC9zdmciIHdpZHRoPSIzMiIgaGVpZ2h0PSIzMiIgdmlld0JveD0iMCAwIDMyIDMyIiBmaWxsPSJub25lIj4mI3hhOzxwYXRoIGQ9Ik0wIDE2QzAgNy4xNjM0NCA3LjE2MzQ0IDAgMTYgMFYwQzI0LjgzNjYgMCAzMiA3LjE2MzQ0IDMyIDE2VjE2QzMyIDI0LjgzNjYgMjQuODM2NiAzMiAxNiAzMlYzMkM3LjE2MzQ0IDMyIDAgMjQuODM2NiAwIDE2VjE2WiIgZmlsbD0iIzUyODJGRiIvPiYjeGE7PHBhdGggZmlsbC1ydWxlPSJldmVub2RkIiBjbGlwLXJ1bGU9ImV2ZW5vZGQiIGQ9Ik0xNS4xIDExLjg2QzE1LjI1IDExIDE3LjA0IDEwIDE5LjUgMTBDMjIgMTAgMjQgMTEgMjQgMTIuMThMMjMuNzYgMTRDMjMuNjcgMTQuNyAyMiAxNiAxOSAxNkMxNi42MiAxNiAxNC43MSAxNC42NiAxNC44NSAxMy42M0wxNS4xIDExLjg2Wk0xNC42NiAxNUwxNC4zOSAxN0MxNC4yNSAxNy44MSAxNi41NCAxOSAxOSAxOUMyMS4yNSAxOSAyMy4yNCAxOC4wNSAyMy4zNSAxNy4yMUMyMy40MiAxNi42MyAyMy41IDE2LjAzIDIzLjU4IDE1LjQ0QzIyLjc2IDE2LjQ1IDIxIDE3IDE5LjE2IDE3QzE3LjE2IDE3IDE1LjI1IDE2LjI4IDE0LjY2IDE1Wk0xNC4yIDE4LjMxOTlDMTQuMDggMTkuMTk5OSAxNCAxOS44MTk5IDE0IDE5LjgxOTlDMTMuODQgMjAuOTk5OSAxNiAyMS45OTk5IDE4LjUgMjEuOTk5OUMyMC43NyAyMS45OTk5IDIyLjg1IDIxLjA2OTkgMjIuOTYgMjAuMTE5OUwyMy4xNSAxOC42OTk5QzIxLjk5MTggMTkuNjYyOCAyMC41MDA1IDIwLjEyOTkgMTkgMTkuOTk5OUMxNi42MiAxOS45OTk5IDE0Ljg0IDE5LjI3OTkgMTQuMiAxOC4zMTk5Wk0xMyAxNEg4VjE1SDEzVjE0Wk05IDE3SDEzVjE4SDlWMTdaIiBmaWxsPSJ3aGl0ZSIvPiYjeGE7PC9zdmc+;" vertex="1" parent="ivyYnvaPWOOoQjRPQurW-215">
          <mxGeometry x="49" y="10" width="32" height="32" as="geometry" />
        </mxCell>
        <mxCell id="ivyYnvaPWOOoQjRPQurW-219" style="edgeStyle=orthogonalEdgeStyle;rounded=0;orthogonalLoop=1;jettySize=auto;html=1;entryX=0.495;entryY=0.008;entryDx=0;entryDy=0;entryPerimeter=0;exitX=1.001;exitY=0.426;exitDx=0;exitDy=0;exitPerimeter=0;" edge="1" parent="ivyYnvaPWOOoQjRPQurW-199" source="ivyYnvaPWOOoQjRPQurW-206" target="ivyYnvaPWOOoQjRPQurW-208">
          <mxGeometry relative="1" as="geometry" />
        </mxCell>
        <mxCell id="ivyYnvaPWOOoQjRPQurW-220" style="edgeStyle=orthogonalEdgeStyle;rounded=0;orthogonalLoop=1;jettySize=auto;html=1;entryX=0.478;entryY=0.015;entryDx=0;entryDy=0;entryPerimeter=0;startArrow=classic;startFill=1;exitX=-0.012;exitY=0.554;exitDx=0;exitDy=0;exitPerimeter=0;" edge="1" parent="ivyYnvaPWOOoQjRPQurW-199" source="ivyYnvaPWOOoQjRPQurW-206" target="ivyYnvaPWOOoQjRPQurW-212">
          <mxGeometry relative="1" as="geometry" />
        </mxCell>
        <mxCell id="ivyYnvaPWOOoQjRPQurW-221" style="edgeStyle=orthogonalEdgeStyle;rounded=0;orthogonalLoop=1;jettySize=auto;html=1;entryX=0.496;entryY=-0.001;entryDx=0;entryDy=0;entryPerimeter=0;startArrow=classic;startFill=1;" edge="1" parent="ivyYnvaPWOOoQjRPQurW-199" source="ivyYnvaPWOOoQjRPQurW-213" target="ivyYnvaPWOOoQjRPQurW-216">
          <mxGeometry relative="1" as="geometry" />
        </mxCell>
        <mxCell id="ivyYnvaPWOOoQjRPQurW-222" value="" style="group" vertex="1" connectable="0" parent="ivyYnvaPWOOoQjRPQurW-181">
          <mxGeometry x="600" y="366.29" width="460" height="440" as="geometry" />
        </mxCell>
        <mxCell id="ivyYnvaPWOOoQjRPQurW-223" style="vsdxID=6;fillColor=none;gradientColor=none;shape=stencil(vVNdD4IgFP01POIQms1nq//BEpVF4q6U9u/DoFJxPdjm2/04cO65cBDL2oo3AlHSGtAX0cncVIgdEKWyrgRIYyPEjohlhQZRgr7VucsbPiCH6Krvww29O0eGE5Q8XJaSaPcqnByWw9k2wWNZRFMHhzc+SlwhQHhATDxBj3kvWwzacCN1PSFXHEqBLRcuFC8nrbYTognKfjol65GSNIn28SL5SjGf2efL2UBMwO1nWykl3M1mzxJ8ib/eZHkrG8j47RMbfA1WSKWcP8f9uSFtyZmZHZ8=);strokeColor=#5282ff;spacingTop=-3;spacingBottom=-3;spacingLeft=-3;spacingRight=-3;points=[];labelBackgroundColor=none;rounded=0;html=1;whiteSpace=wrap;container=0;" vertex="1" parent="ivyYnvaPWOOoQjRPQurW-222">
          <mxGeometry width="460" height="440" as="geometry" />
        </mxCell>
        <mxCell id="ivyYnvaPWOOoQjRPQurW-224" value="&lt;div style=&quot;&quot;&gt;&lt;font face=&quot;Arial&quot;&gt;&lt;span style=&quot;font-size: 22.58px;&quot;&gt;VM3&lt;/span&gt;&lt;/font&gt;&lt;/div&gt;" style="verticalAlign=middle;align=center;overflow=width;vsdxID=7;fillColor=none;gradientColor=none;shape=stencil(nZBLDoAgDERP0z3SIyjew0SURgSD+Lu9kMZoXLhwN9O+tukAlrNpJg1SzDH4QW/URgNYgZTkjA4UkwJUgGXng+6DX1zLfmoymdXo17xh5zmRJ6Q42BWCfc2oJfdAr+Yv+AP9Cb7OJ3H/2JG1HNGz/84klThPVCc=);strokeColor=none;points=[];labelBackgroundColor=none;rounded=0;html=1;whiteSpace=wrap;container=0;" vertex="1" parent="ivyYnvaPWOOoQjRPQurW-222">
          <mxGeometry width="120" height="60" as="geometry" />
        </mxCell>
        <mxCell id="ivyYnvaPWOOoQjRPQurW-225" value="" style="shape=image;verticalLabelPosition=bottom;verticalAlign=top;imageAspect=0;aspect=fixed;image=data:image/svg+xml,PHN2ZyB4bWxucz0iaHR0cDovL3d3dy53My5vcmcvMjAwMC9zdmciIHdpZHRoPSIzMiIgaGVpZ2h0PSIzMiIgdmlld0JveD0iMCAwIDMyIDMyIiBmaWxsPSJub25lIj4mI3hhOzxwYXRoIGQ9Ik0wIDE2QzAgNy4xNjM0NCA3LjE2MzQ0IDAgMTYgMFYwQzI0LjgzNjYgMCAzMiA3LjE2MzQ0IDMyIDE2VjE2QzMyIDI0LjgzNjYgMjQuODM2NiAzMiAxNiAzMlYzMkM3LjE2MzQ0IDMyIDAgMjQuODM2NiAwIDE2VjE2WiIgZmlsbD0iIzUyODJGRiIvPiYjeGE7PHBhdGggZD0iTTExLjk5NSAyNEw3LjAwMDk4IDE3LjczOEw4Ljc4MTk4IDkuOTI3TDE2IDYuNDUzTDIzLjIxOCA5LjkyOEwyNC45OTkgMTcuNzM5TDIwLjAwNSAyNEgxMS45OTVaTTIwIDEzLjE5NkwxNS45OTkgMTAuODk5TDEyIDEzLjE5NlYxOC4xTDE2IDIwLjQwMUwyMCAxOC4xVjEzLjE5NlpNMTguNzggMTMuODk2SDE4Ljc4N0wxNiAxNS40OTlMMTMuMjE0IDEzLjg5NUgxMy4yMTlMMTUuOTk5IDEyLjI5OUwxOC43OCAxMy44OTZaIiBmaWxsPSJ3aGl0ZSIvPiYjeGE7PC9zdmc+;container=0;" vertex="1" parent="ivyYnvaPWOOoQjRPQurW-222">
          <mxGeometry x="46.15303030303028" y="49.99999999999977" width="27.69545454545455" height="27.69545454545455" as="geometry" />
        </mxCell>
        <mxCell id="ivyYnvaPWOOoQjRPQurW-226" value="" style="group" vertex="1" connectable="0" parent="ivyYnvaPWOOoQjRPQurW-222">
          <mxGeometry x="180" y="31.09999999999991" width="130" height="105.5" as="geometry" />
        </mxCell>
        <mxCell id="ivyYnvaPWOOoQjRPQurW-227" style="vsdxID=5;fillColor=none;gradientColor=none;shape=stencil(vVPLEoIgFP0aljgEVuPa6j+YRGUica6U9vdhUKk4LWzG3X0cOPdcOIilTclrgShpDOiLaGVmSsQOiFJZlQKksRFiR8TSXIMoQN+qzOU175F9dNX3/obOnSP9CUoeLktIFL8KJ4flcLZN8NhtRJiDwxsf7VwhQHjAhniCDvNONhi04UbqakSuOBQCWy6cK16MWk0rRB2U/XRKVgMlSRwl+1nyhWI+s0+Xs4KYgNvPtlBKuJvVniX4En+9yfxWVpDx2yc2+Bosl0o5fw77U0PakjMzOz4B);strokeColor=#ff5958;spacingTop=-3;spacingBottom=-3;spacingLeft=-3;spacingRight=-3;points=[];labelBackgroundColor=none;rounded=0;html=1;whiteSpace=wrap;container=0;" vertex="1" parent="ivyYnvaPWOOoQjRPQurW-226">
          <mxGeometry width="130" height="105.5" as="geometry" />
        </mxCell>
        <mxCell id="ivyYnvaPWOOoQjRPQurW-228" value="" style="shape=image;verticalLabelPosition=bottom;verticalAlign=top;imageAspect=0;aspect=fixed;image=data:image/svg+xml,PHN2ZyB4bWxucz0iaHR0cDovL3d3dy53My5vcmcvMjAwMC9zdmciIHdpZHRoPSIzMiIgaGVpZ2h0PSIzMiIgdmlld0JveD0iMCAwIDMyIDMyIiBmaWxsPSJub25lIj4mI3hhOzxwYXRoIGQ9Ik0wIDE2QzAgNy4xNjM0NCA3LjE2MzQ0IDAgMTYgMFYwQzI0LjgzNjYgMCAzMiA3LjE2MzQ0IDMyIDE2VjE2QzMyIDI0LjgzNjYgMjQuODM2NiAzMiAxNiAzMlYzMkM3LjE2MzQ0IDMyIDAgMjQuODM2NiAwIDE2VjE2WiIgZmlsbD0iIzUyODJGRiIvPiYjeGE7PHBhdGggZmlsbC1ydWxlPSJldmVub2RkIiBjbGlwLXJ1bGU9ImV2ZW5vZGQiIGQ9Ik0xMyA4SDE4QzIxLjMgOCAyNCAxMC43IDI0IDE0VjI0SDIwVjIwSDIyVjE5SDE4LjZDMTUuNSAxOSAxMyAxNi41IDEzIDEzLjRWOFpNMTkgMTdIMjFWMTVIMTlWMTdaTTEyIDkuMDk5OThWMTMuNEMxMiAxNi44IDE0LjYgMTkuNyAxOCAyMC4xVjIwLjZDMTggMjIgMTUuOCAyMy4xIDEzIDIzLjFDMTAuMiAyMy4xIDggMjIgOCAyMC42VjExLjZDOCAxMC4zIDkuNyA5LjI5OTk4IDEyIDkuMDk5OThaIiBmaWxsPSJ3aGl0ZSIvPiYjeGE7PC9zdmc+;container=0;" vertex="1" parent="ivyYnvaPWOOoQjRPQurW-226">
          <mxGeometry x="46.87000000000002" y="3.730000000000018" width="36.26923076923077" height="36.26923076923077" as="geometry" />
        </mxCell>
        <mxCell id="ivyYnvaPWOOoQjRPQurW-229" value="&lt;div style=&quot;font-size: 1px&quot;&gt;&lt;font style=&quot;font-size:22.58px;font-family:Arial;color:#000000;direction:ltr;letter-spacing:0px;line-height:120%;opacity:1&quot;&gt;PosrgreSQL&lt;br&gt;&lt;/font&gt;&lt;/div&gt;&lt;div style=&quot;&quot;&gt;&lt;font face=&quot;Arial&quot;&gt;&lt;span style=&quot;font-size: 22.58px;&quot;&gt;(shard)&lt;/span&gt;&lt;/font&gt;&lt;/div&gt;&lt;div style=&quot;font-size: 1px&quot;&gt;&lt;br&gt;&lt;/div&gt;" style="verticalAlign=bottom;align=center;overflow=width;vsdxID=6;fillColor=none;gradientColor=none;strokeColor=none;spacingTop=-3;spacingBottom=-3;spacingLeft=-3;spacingRight=-3;points=[];labelBackgroundColor=none;rounded=0;html=1;whiteSpace=wrap;container=0;" vertex="1" parent="ivyYnvaPWOOoQjRPQurW-226">
          <mxGeometry y="52.289999999999964" width="130" height="53.21" as="geometry" />
        </mxCell>
        <mxCell id="ivyYnvaPWOOoQjRPQurW-230" value="" style="group" vertex="1" connectable="0" parent="ivyYnvaPWOOoQjRPQurW-222">
          <mxGeometry x="270" y="199.99999999999991" width="130" height="105.5" as="geometry" />
        </mxCell>
        <mxCell id="ivyYnvaPWOOoQjRPQurW-231" style="vsdxID=5;fillColor=none;gradientColor=none;shape=stencil(vVPLEoIgFP0aljgEVuPa6j+YRGUica6U9vdhUKk4LWzG3X0cOPdcOIilTclrgShpDOiLaGVmSsQOiFJZlQKksRFiR8TSXIMoQN+qzOU175F9dNX3/obOnSP9CUoeLktIFL8KJ4flcLZN8NhtRJiDwxsf7VwhQHjAhniCDvNONhi04UbqakSuOBQCWy6cK16MWk0rRB2U/XRKVgMlSRwl+1nyhWI+s0+Xs4KYgNvPtlBKuJvVniX4En+9yfxWVpDx2yc2+Bosl0o5fw77U0PakjMzOz4B);strokeColor=#ff5958;spacingTop=-3;spacingBottom=-3;spacingLeft=-3;spacingRight=-3;points=[];labelBackgroundColor=none;rounded=0;html=1;whiteSpace=wrap;container=0;" vertex="1" parent="ivyYnvaPWOOoQjRPQurW-230">
          <mxGeometry width="130" height="105.5" as="geometry" />
        </mxCell>
        <mxCell id="ivyYnvaPWOOoQjRPQurW-232" value="&lt;div style=&quot;&quot;&gt;&lt;font face=&quot;Arial&quot;&gt;&lt;span style=&quot;font-size: 22.58px;&quot;&gt;PPM Client&lt;/span&gt;&lt;/font&gt;&lt;/div&gt;" style="verticalAlign=bottom;align=center;overflow=width;vsdxID=6;fillColor=none;gradientColor=none;strokeColor=none;spacingTop=-3;spacingBottom=-3;spacingLeft=-3;spacingRight=-3;points=[];labelBackgroundColor=none;rounded=0;html=1;whiteSpace=wrap;container=0;" vertex="1" parent="ivyYnvaPWOOoQjRPQurW-230">
          <mxGeometry y="52.289999999999964" width="130" height="53.21" as="geometry" />
        </mxCell>
        <mxCell id="ivyYnvaPWOOoQjRPQurW-233" value="" style="shape=image;verticalLabelPosition=bottom;verticalAlign=top;imageAspect=0;aspect=fixed;image=data:image/svg+xml,PHN2ZyB4bWxucz0iaHR0cDovL3d3dy53My5vcmcvMjAwMC9zdmciIHdpZHRoPSIzMiIgaGVpZ2h0PSIzMiIgdmlld0JveD0iMCAwIDMyIDMyIiBmaWxsPSJub25lIj4mI3hhOzxwYXRoIGQ9Ik0wIDE2QzAgNy4xNjM0NCA3LjE2MzQ0IDAgMTYgMFYwQzI0LjgzNjYgMCAzMiA3LjE2MzQ0IDMyIDE2VjE2QzMyIDI0LjgzNjYgMjQuODM2NiAzMiAxNiAzMlYzMkM3LjE2MzQ0IDMyIDAgMjQuODM2NiAwIDE2VjE2WiIgZmlsbD0iIzUyODJGRiIvPiYjeGE7PHBhdGggZD0iTTkgMTBIOFYyMkgyNFYyMEg5VjEwWk0yMC41IDE1LjVMMTcgMTJMMTMuNSAxNS41TDEwIDEyVjE5SDI0VjEyTDIwLjUgMTUuNVoiIGZpbGw9IndoaXRlIi8+JiN4YTs8L3N2Zz4=;" vertex="1" parent="ivyYnvaPWOOoQjRPQurW-230">
          <mxGeometry x="49" y="10" width="32" height="32" as="geometry" />
        </mxCell>
        <mxCell id="ivyYnvaPWOOoQjRPQurW-234" value="" style="group" vertex="1" connectable="0" parent="ivyYnvaPWOOoQjRPQurW-222">
          <mxGeometry x="30" y="170" width="130" height="105.5" as="geometry" />
        </mxCell>
        <mxCell id="ivyYnvaPWOOoQjRPQurW-235" style="vsdxID=5;fillColor=none;gradientColor=none;shape=stencil(vVPLEoIgFP0aljgEVuPa6j+YRGUica6U9vdhUKk4LWzG3X0cOPdcOIilTclrgShpDOiLaGVmSsQOiFJZlQKksRFiR8TSXIMoQN+qzOU175F9dNX3/obOnSP9CUoeLktIFL8KJ4flcLZN8NhtRJiDwxsf7VwhQHjAhniCDvNONhi04UbqakSuOBQCWy6cK16MWk0rRB2U/XRKVgMlSRwl+1nyhWI+s0+Xs4KYgNvPtlBKuJvVniX4En+9yfxWVpDx2yc2+Bosl0o5fw77U0PakjMzOz4B);strokeColor=#ff5958;spacingTop=-3;spacingBottom=-3;spacingLeft=-3;spacingRight=-3;points=[];labelBackgroundColor=none;rounded=0;html=1;whiteSpace=wrap;container=0;" vertex="1" parent="ivyYnvaPWOOoQjRPQurW-234">
          <mxGeometry width="130" height="105.5" as="geometry" />
        </mxCell>
        <mxCell id="ivyYnvaPWOOoQjRPQurW-236" value="&lt;div style=&quot;&quot;&gt;&lt;font face=&quot;Arial&quot;&gt;&lt;span style=&quot;font-size: 22.58px;&quot;&gt;P&lt;/span&gt;&lt;/font&gt;&lt;span style=&quot;font-size: 22.58px; font-family: Arial; background-color: initial;&quot;&gt;atroni&lt;/span&gt;&lt;/div&gt;" style="verticalAlign=bottom;align=center;overflow=width;vsdxID=6;fillColor=none;gradientColor=none;strokeColor=none;spacingTop=-3;spacingBottom=-3;spacingLeft=-3;spacingRight=-3;points=[];labelBackgroundColor=none;rounded=0;html=1;whiteSpace=wrap;container=0;" vertex="1" parent="ivyYnvaPWOOoQjRPQurW-234">
          <mxGeometry y="52.289999999999964" width="130" height="53.21" as="geometry" />
        </mxCell>
        <mxCell id="ivyYnvaPWOOoQjRPQurW-237" value="" style="shape=image;verticalLabelPosition=bottom;verticalAlign=top;imageAspect=0;aspect=fixed;image=data:image/svg+xml,PHN2ZyB4bWxucz0iaHR0cDovL3d3dy53My5vcmcvMjAwMC9zdmciIHdpZHRoPSIzMiIgaGVpZ2h0PSIzMiIgdmlld0JveD0iMCAwIDMyIDMyIiBmaWxsPSJub25lIj4mI3hhOzxwYXRoIGQ9Ik0wIDE2QzAgNy4xNjM0NCA3LjE2MzQ0IDAgMTYgMFYwQzI0LjgzNjYgMCAzMiA3LjE2MzQ0IDMyIDE2VjE2QzMyIDI0LjgzNjYgMjQuODM2NiAzMiAxNiAzMlYzMkM3LjE2MzQ0IDMyIDAgMjQuODM2NiAwIDE2VjE2WiIgZmlsbD0iIzUyODJGRiIvPiYjeGE7PHBhdGggZmlsbC1ydWxlPSJldmVub2RkIiBjbGlwLXJ1bGU9ImV2ZW5vZGQiIGQ9Ik0xNS4xIDExLjg2QzE1LjI1IDExIDE3LjA0IDEwIDE5LjUgMTBDMjIgMTAgMjQgMTEgMjQgMTIuMThMMjMuNzYgMTRDMjMuNjcgMTQuNyAyMiAxNiAxOSAxNkMxNi42MiAxNiAxNC43MSAxNC42NiAxNC44NSAxMy42M0wxNS4xIDExLjg2Wk0xNC42NiAxNUwxNC4zOSAxN0MxNC4yNSAxNy44MSAxNi41NCAxOSAxOSAxOUMyMS4yNSAxOSAyMy4yNCAxOC4wNSAyMy4zNSAxNy4yMUMyMy40MiAxNi42MyAyMy41IDE2LjAzIDIzLjU4IDE1LjQ0QzIyLjc2IDE2LjQ1IDIxIDE3IDE5LjE2IDE3QzE3LjE2IDE3IDE1LjI1IDE2LjI4IDE0LjY2IDE1Wk0xNC4yIDE4LjMxOTlDMTQuMDggMTkuMTk5OSAxNCAxOS44MTk5IDE0IDE5LjgxOTlDMTMuODQgMjAuOTk5OSAxNiAyMS45OTk5IDE4LjUgMjEuOTk5OUMyMC43NyAyMS45OTk5IDIyLjg1IDIxLjA2OTkgMjIuOTYgMjAuMTE5OUwyMy4xNSAxOC42OTk5QzIxLjk5MTggMTkuNjYyOCAyMC41MDA1IDIwLjEyOTkgMTkgMTkuOTk5OUMxNi42MiAxOS45OTk5IDE0Ljg0IDE5LjI3OTkgMTQuMiAxOC4zMTk5Wk0xMyAxNEg4VjE1SDEzVjE0Wk05IDE3SDEzVjE4SDlWMTdaIiBmaWxsPSJ3aGl0ZSIvPiYjeGE7PC9zdmc+;" vertex="1" parent="ivyYnvaPWOOoQjRPQurW-234">
          <mxGeometry x="49" y="10" width="32" height="32" as="geometry" />
        </mxCell>
        <mxCell id="ivyYnvaPWOOoQjRPQurW-238" value="" style="group" vertex="1" connectable="0" parent="ivyYnvaPWOOoQjRPQurW-222">
          <mxGeometry x="30" y="330" width="130" height="105.5" as="geometry" />
        </mxCell>
        <mxCell id="ivyYnvaPWOOoQjRPQurW-239" style="vsdxID=5;fillColor=none;gradientColor=none;shape=stencil(vVPLEoIgFP0aljgEVuPa6j+YRGUica6U9vdhUKk4LWzG3X0cOPdcOIilTclrgShpDOiLaGVmSsQOiFJZlQKksRFiR8TSXIMoQN+qzOU175F9dNX3/obOnSP9CUoeLktIFL8KJ4flcLZN8NhtRJiDwxsf7VwhQHjAhniCDvNONhi04UbqakSuOBQCWy6cK16MWk0rRB2U/XRKVgMlSRwl+1nyhWI+s0+Xs4KYgNvPtlBKuJvVniX4En+9yfxWVpDx2yc2+Bosl0o5fw77U0PakjMzOz4B);strokeColor=#ff5958;spacingTop=-3;spacingBottom=-3;spacingLeft=-3;spacingRight=-3;points=[];labelBackgroundColor=none;rounded=0;html=1;whiteSpace=wrap;container=0;" vertex="1" parent="ivyYnvaPWOOoQjRPQurW-238">
          <mxGeometry width="130" height="105.5" as="geometry" />
        </mxCell>
        <mxCell id="ivyYnvaPWOOoQjRPQurW-240" value="&lt;div style=&quot;&quot;&gt;&lt;font face=&quot;Arial&quot;&gt;&lt;span style=&quot;font-size: 22.58px;&quot;&gt;ETCD&lt;/span&gt;&lt;/font&gt;&lt;/div&gt;" style="verticalAlign=bottom;align=center;overflow=width;vsdxID=6;fillColor=none;gradientColor=none;strokeColor=none;spacingTop=-3;spacingBottom=-3;spacingLeft=-3;spacingRight=-3;points=[];labelBackgroundColor=none;rounded=0;html=1;whiteSpace=wrap;container=0;" vertex="1" parent="ivyYnvaPWOOoQjRPQurW-238">
          <mxGeometry y="52.289999999999964" width="130" height="53.21" as="geometry" />
        </mxCell>
        <mxCell id="ivyYnvaPWOOoQjRPQurW-241" value="" style="shape=image;verticalLabelPosition=bottom;verticalAlign=top;imageAspect=0;aspect=fixed;image=data:image/svg+xml,PHN2ZyB4bWxucz0iaHR0cDovL3d3dy53My5vcmcvMjAwMC9zdmciIHdpZHRoPSIzMiIgaGVpZ2h0PSIzMiIgdmlld0JveD0iMCAwIDMyIDMyIiBmaWxsPSJub25lIj4mI3hhOzxwYXRoIGQ9Ik0wIDE2QzAgNy4xNjM0NCA3LjE2MzQ0IDAgMTYgMFYwQzI0LjgzNjYgMCAzMiA3LjE2MzQ0IDMyIDE2VjE2QzMyIDI0LjgzNjYgMjQuODM2NiAzMiAxNiAzMlYzMkM3LjE2MzQ0IDMyIDAgMjQuODM2NiAwIDE2VjE2WiIgZmlsbD0iIzUyODJGRiIvPiYjeGE7PHBhdGggZmlsbC1ydWxlPSJldmVub2RkIiBjbGlwLXJ1bGU9ImV2ZW5vZGQiIGQ9Ik0xNS4xIDExLjg2QzE1LjI1IDExIDE3LjA0IDEwIDE5LjUgMTBDMjIgMTAgMjQgMTEgMjQgMTIuMThMMjMuNzYgMTRDMjMuNjcgMTQuNyAyMiAxNiAxOSAxNkMxNi42MiAxNiAxNC43MSAxNC42NiAxNC44NSAxMy42M0wxNS4xIDExLjg2Wk0xNC42NiAxNUwxNC4zOSAxN0MxNC4yNSAxNy44MSAxNi41NCAxOSAxOSAxOUMyMS4yNSAxOSAyMy4yNCAxOC4wNSAyMy4zNSAxNy4yMUMyMy40MiAxNi42MyAyMy41IDE2LjAzIDIzLjU4IDE1LjQ0QzIyLjc2IDE2LjQ1IDIxIDE3IDE5LjE2IDE3QzE3LjE2IDE3IDE1LjI1IDE2LjI4IDE0LjY2IDE1Wk0xNC4yIDE4LjMxOTlDMTQuMDggMTkuMTk5OSAxNCAxOS44MTk5IDE0IDE5LjgxOTlDMTMuODQgMjAuOTk5OSAxNiAyMS45OTk5IDE4LjUgMjEuOTk5OUMyMC43NyAyMS45OTk5IDIyLjg1IDIxLjA2OTkgMjIuOTYgMjAuMTE5OUwyMy4xNSAxOC42OTk5QzIxLjk5MTggMTkuNjYyOCAyMC41MDA1IDIwLjEyOTkgMTkgMTkuOTk5OUMxNi42MiAxOS45OTk5IDE0Ljg0IDE5LjI3OTkgMTQuMiAxOC4zMTk5Wk0xMyAxNEg4VjE1SDEzVjE0Wk05IDE3SDEzVjE4SDlWMTdaIiBmaWxsPSJ3aGl0ZSIvPiYjeGE7PC9zdmc+;" vertex="1" parent="ivyYnvaPWOOoQjRPQurW-238">
          <mxGeometry x="49" y="10" width="32" height="32" as="geometry" />
        </mxCell>
        <mxCell id="ivyYnvaPWOOoQjRPQurW-242" style="edgeStyle=orthogonalEdgeStyle;rounded=0;orthogonalLoop=1;jettySize=auto;html=1;entryX=0.495;entryY=0.008;entryDx=0;entryDy=0;entryPerimeter=0;exitX=1.006;exitY=0.466;exitDx=0;exitDy=0;exitPerimeter=0;" edge="1" parent="ivyYnvaPWOOoQjRPQurW-222" source="ivyYnvaPWOOoQjRPQurW-227" target="ivyYnvaPWOOoQjRPQurW-231">
          <mxGeometry relative="1" as="geometry" />
        </mxCell>
        <mxCell id="ivyYnvaPWOOoQjRPQurW-243" style="edgeStyle=orthogonalEdgeStyle;rounded=0;orthogonalLoop=1;jettySize=auto;html=1;entryX=0.478;entryY=0.015;entryDx=0;entryDy=0;entryPerimeter=0;startArrow=classic;startFill=1;exitX=-0.012;exitY=0.481;exitDx=0;exitDy=0;exitPerimeter=0;" edge="1" parent="ivyYnvaPWOOoQjRPQurW-222" source="ivyYnvaPWOOoQjRPQurW-229" target="ivyYnvaPWOOoQjRPQurW-235">
          <mxGeometry relative="1" as="geometry" />
        </mxCell>
        <mxCell id="ivyYnvaPWOOoQjRPQurW-244" style="edgeStyle=orthogonalEdgeStyle;rounded=0;orthogonalLoop=1;jettySize=auto;html=1;entryX=0.496;entryY=-0.001;entryDx=0;entryDy=0;entryPerimeter=0;startArrow=classic;startFill=1;" edge="1" parent="ivyYnvaPWOOoQjRPQurW-222" source="ivyYnvaPWOOoQjRPQurW-236" target="ivyYnvaPWOOoQjRPQurW-239">
          <mxGeometry relative="1" as="geometry" />
        </mxCell>
        <mxCell id="ivyYnvaPWOOoQjRPQurW-245" value="" style="group" vertex="1" connectable="0" parent="ivyYnvaPWOOoQjRPQurW-181">
          <mxGeometry x="310" y="176.29000000000002" width="320" height="160" as="geometry" />
        </mxCell>
        <mxCell id="ivyYnvaPWOOoQjRPQurW-246" value="" style="shape=image;verticalLabelPosition=bottom;verticalAlign=top;imageAspect=0;aspect=fixed;image=data:image/svg+xml,PHN2ZyB4bWxucz0iaHR0cDovL3d3dy53My5vcmcvMjAwMC9zdmciIHdpZHRoPSIzMiIgaGVpZ2h0PSIzMiIgdmlld0JveD0iMCAwIDMyIDMyIiBmaWxsPSJub25lIj4mI3hhOzxwYXRoIGQ9Ik0wIDE2QzAgNy4xNjM0NCA3LjE2MzQ0IDAgMTYgMFYwQzI0LjgzNjYgMCAzMiA3LjE2MzQ0IDMyIDE2VjE2QzMyIDI0LjgzNjYgMjQuODM2NiAzMiAxNiAzMlYzMkM3LjE2MzQ0IDMyIDAgMjQuODM2NiAwIDE2VjE2WiIgZmlsbD0iIzUyODJGRiIvPiYjeGE7PHBhdGggZD0iTTExLjk5NSAyNEw3LjAwMDk4IDE3LjczOEw4Ljc4MTk4IDkuOTI3TDE2IDYuNDUzTDIzLjIxOCA5LjkyOEwyNC45OTkgMTcuNzM5TDIwLjAwNSAyNEgxMS45OTVaTTIwIDEzLjE5NkwxNS45OTkgMTAuODk5TDEyIDEzLjE5NlYxOC4xTDE2IDIwLjQwMUwyMCAxOC4xVjEzLjE5NlpNMTguNzggMTMuODk2SDE4Ljc4N0wxNiAxNS40OTlMMTMuMjE0IDEzLjg5NUgxMy4yMTlMMTUuOTk5IDEyLjI5OUwxOC43OCAxMy44OTZaIiBmaWxsPSJ3aGl0ZSIvPiYjeGE7PC9zdmc+;container=0;" vertex="1" parent="ivyYnvaPWOOoQjRPQurW-245">
          <mxGeometry x="29.995151515151463" y="59.99999999999977" width="27.69545454545455" height="27.69545454545455" as="geometry" />
        </mxCell>
        <mxCell id="ivyYnvaPWOOoQjRPQurW-247" style="vsdxID=6;fillColor=none;gradientColor=none;shape=stencil(vVNdD4IgFP01POIQms1nq//BEpVF4q6U9u/DoFJxPdjm2/04cO65cBDL2oo3AlHSGtAX0cncVIgdEKWyrgRIYyPEjohlhQZRgr7VucsbPiCH6Krvww29O0eGE5Q8XJaSaPcqnByWw9k2wWNZRFMHhzc+SlwhQHhATDxBj3kvWwzacCN1PSFXHEqBLRcuFC8nrbYTognKfjol65GSNIn28SL5SjGf2efL2UBMwO1nWykl3M1mzxJ8ib/eZHkrG8j47RMbfA1WSKWcP8f9uSFtyZmZHZ8=);strokeColor=#5282ff;spacingTop=-3;spacingBottom=-3;spacingLeft=-3;spacingRight=-3;points=[];labelBackgroundColor=none;rounded=0;html=1;whiteSpace=wrap;container=0;" vertex="1" parent="ivyYnvaPWOOoQjRPQurW-245">
          <mxGeometry width="320" height="160" as="geometry" />
        </mxCell>
        <mxCell id="ivyYnvaPWOOoQjRPQurW-248" value="&lt;div style=&quot;&quot;&gt;&lt;font face=&quot;Arial&quot;&gt;&lt;span style=&quot;font-size: 22.58px;&quot;&gt;VM4&lt;/span&gt;&lt;/font&gt;&lt;/div&gt;" style="verticalAlign=middle;align=center;overflow=width;vsdxID=7;fillColor=none;gradientColor=none;shape=stencil(nZBLDoAgDERP0z3SIyjew0SURgSD+Lu9kMZoXLhwN9O+tukAlrNpJg1SzDH4QW/URgNYgZTkjA4UkwJUgGXng+6DX1zLfmoymdXo17xh5zmRJ6Q42BWCfc2oJfdAr+Yv+AP9Cb7OJ3H/2JG1HNGz/84klThPVCc=);strokeColor=none;points=[];labelBackgroundColor=none;rounded=0;html=1;whiteSpace=wrap;container=0;" vertex="1" parent="ivyYnvaPWOOoQjRPQurW-245">
          <mxGeometry x="10" y="10" width="80.3" height="50" as="geometry" />
        </mxCell>
        <mxCell id="ivyYnvaPWOOoQjRPQurW-249" value="" style="group" vertex="1" connectable="0" parent="ivyYnvaPWOOoQjRPQurW-245">
          <mxGeometry x="170" y="27.25" width="130" height="105.5" as="geometry" />
        </mxCell>
        <mxCell id="ivyYnvaPWOOoQjRPQurW-250" style="vsdxID=5;fillColor=none;gradientColor=none;shape=stencil(vVPLEoIgFP0aljgEVuPa6j+YRGUica6U9vdhUKk4LWzG3X0cOPdcOIilTclrgShpDOiLaGVmSsQOiFJZlQKksRFiR8TSXIMoQN+qzOU175F9dNX3/obOnSP9CUoeLktIFL8KJ4flcLZN8NhtRJiDwxsf7VwhQHjAhniCDvNONhi04UbqakSuOBQCWy6cK16MWk0rRB2U/XRKVgMlSRwl+1nyhWI+s0+Xs4KYgNvPtlBKuJvVniX4En+9yfxWVpDx2yc2+Bosl0o5fw77U0PakjMzOz4B);strokeColor=#ff5958;spacingTop=-3;spacingBottom=-3;spacingLeft=-3;spacingRight=-3;points=[];labelBackgroundColor=none;rounded=0;html=1;whiteSpace=wrap;container=0;" vertex="1" parent="ivyYnvaPWOOoQjRPQurW-249">
          <mxGeometry width="130" height="105.5" as="geometry" />
        </mxCell>
        <mxCell id="ivyYnvaPWOOoQjRPQurW-251" value="&lt;div style=&quot;&quot;&gt;&lt;font face=&quot;Arial&quot;&gt;&lt;span style=&quot;font-size: 22.58px;&quot;&gt;pgBackRest&lt;/span&gt;&lt;/font&gt;&lt;/div&gt;" style="verticalAlign=bottom;align=center;overflow=width;vsdxID=6;fillColor=none;gradientColor=none;strokeColor=none;spacingTop=-3;spacingBottom=-3;spacingLeft=-3;spacingRight=-3;points=[];labelBackgroundColor=none;rounded=0;html=1;whiteSpace=wrap;container=0;" vertex="1" parent="ivyYnvaPWOOoQjRPQurW-249">
          <mxGeometry y="52.289999999999964" width="130" height="27.71" as="geometry" />
        </mxCell>
        <mxCell id="ivyYnvaPWOOoQjRPQurW-252" value="" style="shape=image;verticalLabelPosition=bottom;verticalAlign=top;imageAspect=0;aspect=fixed;image=data:image/svg+xml,PHN2ZyB4bWxucz0iaHR0cDovL3d3dy53My5vcmcvMjAwMC9zdmciIHdpZHRoPSIzMiIgaGVpZ2h0PSIzMiIgdmlld0JveD0iMCAwIDMyIDMyIiBmaWxsPSJub25lIj4mI3hhOzxwYXRoIGQ9Ik0wIDE2QzAgNy4xNjM0NCA3LjE2MzQ0IDAgMTYgMFYwQzI0LjgzNjYgMCAzMiA3LjE2MzQ0IDMyIDE2VjE2QzMyIDI0LjgzNjYgMjQuODM2NiAzMiAxNiAzMlYzMkM3LjE2MzQ0IDMyIDAgMjQuODM2NiAwIDE2VjE2WiIgZmlsbD0iIzUyODJGRiIvPiYjeGE7PHBhdGggZmlsbC1ydWxlPSJldmVub2RkIiBjbGlwLXJ1bGU9ImV2ZW5vZGQiIGQ9Ik0yMiA4QzIyIDcuNCAyMS42IDcgMjEgN0gxMUMxMC40IDcgMTAgNy40IDEwIDhWMTBIMjJWOFpNMjMgMTJDMjMgMTEuNCAyMi42IDExIDIyIDExSDEwQzkuNCAxMSA5IDExLjQgOSAxMlYxNEgyM1YxMlpNOSAxNUgyM0MyMy41IDE1IDI0IDE1LjQgMjQgMTZWMjJDMjQgMjIuNiAyMy42IDIzIDIzIDIzSDlDOC40IDIzIDggMjIuNiA4IDIyVjE2QzggMTUuNCA4LjQgMTUgOSAxNVpNMTQgMjBIMThDMTguNSAyMCAxOSAxOS41IDE5IDE5QzE5IDE4LjQgMTguNiAxOCAxOCAxOEgxNEMxMy40IDE4IDEzIDE4LjQgMTMgMTlDMTMgMTkuNiAxMy40IDIwIDE0IDIwWiIgZmlsbD0id2hpdGUiLz4mI3hhOzwvc3ZnPg==;" vertex="1" parent="ivyYnvaPWOOoQjRPQurW-249">
          <mxGeometry x="49" y="10" width="32" height="32" as="geometry" />
        </mxCell>
        <mxCell id="ivyYnvaPWOOoQjRPQurW-253" value="" style="group" vertex="1" connectable="0" parent="ivyYnvaPWOOoQjRPQurW-181">
          <mxGeometry x="330" y="836.29" width="320" height="160" as="geometry" />
        </mxCell>
        <mxCell id="ivyYnvaPWOOoQjRPQurW-254" value="" style="shape=image;verticalLabelPosition=bottom;verticalAlign=top;imageAspect=0;aspect=fixed;image=data:image/svg+xml,PHN2ZyB4bWxucz0iaHR0cDovL3d3dy53My5vcmcvMjAwMC9zdmciIHdpZHRoPSIzMiIgaGVpZ2h0PSIzMiIgdmlld0JveD0iMCAwIDMyIDMyIiBmaWxsPSJub25lIj4mI3hhOzxwYXRoIGQ9Ik0wIDE2QzAgNy4xNjM0NCA3LjE2MzQ0IDAgMTYgMFYwQzI0LjgzNjYgMCAzMiA3LjE2MzQ0IDMyIDE2VjE2QzMyIDI0LjgzNjYgMjQuODM2NiAzMiAxNiAzMlYzMkM3LjE2MzQ0IDMyIDAgMjQuODM2NiAwIDE2VjE2WiIgZmlsbD0iIzUyODJGRiIvPiYjeGE7PHBhdGggZD0iTTExLjk5NSAyNEw3LjAwMDk4IDE3LjczOEw4Ljc4MTk4IDkuOTI3TDE2IDYuNDUzTDIzLjIxOCA5LjkyOEwyNC45OTkgMTcuNzM5TDIwLjAwNSAyNEgxMS45OTVaTTIwIDEzLjE5NkwxNS45OTkgMTAuODk5TDEyIDEzLjE5NlYxOC4xTDE2IDIwLjQwMUwyMCAxOC4xVjEzLjE5NlpNMTguNzggMTMuODk2SDE4Ljc4N0wxNiAxNS40OTlMMTMuMjE0IDEzLjg5NUgxMy4yMTlMMTUuOTk5IDEyLjI5OUwxOC43OCAxMy44OTZaIiBmaWxsPSJ3aGl0ZSIvPiYjeGE7PC9zdmc+;container=0;" vertex="1" parent="ivyYnvaPWOOoQjRPQurW-253">
          <mxGeometry x="29.995151515151463" y="59.99999999999977" width="27.69545454545455" height="27.69545454545455" as="geometry" />
        </mxCell>
        <mxCell id="ivyYnvaPWOOoQjRPQurW-255" style="vsdxID=6;fillColor=none;gradientColor=none;shape=stencil(vVNdD4IgFP01POIQms1nq//BEpVF4q6U9u/DoFJxPdjm2/04cO65cBDL2oo3AlHSGtAX0cncVIgdEKWyrgRIYyPEjohlhQZRgr7VucsbPiCH6Krvww29O0eGE5Q8XJaSaPcqnByWw9k2wWNZRFMHhzc+SlwhQHhATDxBj3kvWwzacCN1PSFXHEqBLRcuFC8nrbYTognKfjol65GSNIn28SL5SjGf2efL2UBMwO1nWykl3M1mzxJ8ib/eZHkrG8j47RMbfA1WSKWcP8f9uSFtyZmZHZ8=);strokeColor=#5282ff;spacingTop=-3;spacingBottom=-3;spacingLeft=-3;spacingRight=-3;points=[];labelBackgroundColor=none;rounded=0;html=1;whiteSpace=wrap;container=0;" vertex="1" parent="ivyYnvaPWOOoQjRPQurW-253">
          <mxGeometry width="320" height="160" as="geometry" />
        </mxCell>
        <mxCell id="ivyYnvaPWOOoQjRPQurW-256" value="&lt;div style=&quot;&quot;&gt;&lt;font face=&quot;Arial&quot;&gt;&lt;span style=&quot;font-size: 22.58px;&quot;&gt;VM5&lt;/span&gt;&lt;/font&gt;&lt;/div&gt;" style="verticalAlign=middle;align=center;overflow=width;vsdxID=7;fillColor=none;gradientColor=none;shape=stencil(nZBLDoAgDERP0z3SIyjew0SURgSD+Lu9kMZoXLhwN9O+tukAlrNpJg1SzDH4QW/URgNYgZTkjA4UkwJUgGXng+6DX1zLfmoymdXo17xh5zmRJ6Q42BWCfc2oJfdAr+Yv+AP9Cb7OJ3H/2JG1HNGz/84klThPVCc=);strokeColor=none;points=[];labelBackgroundColor=none;rounded=0;html=1;whiteSpace=wrap;container=0;" vertex="1" parent="ivyYnvaPWOOoQjRPQurW-253">
          <mxGeometry x="10" y="10" width="80.3" height="50" as="geometry" />
        </mxCell>
        <mxCell id="ivyYnvaPWOOoQjRPQurW-257" value="" style="group" vertex="1" connectable="0" parent="ivyYnvaPWOOoQjRPQurW-253">
          <mxGeometry x="170" y="27.25" width="130" height="122.75" as="geometry" />
        </mxCell>
        <mxCell id="ivyYnvaPWOOoQjRPQurW-258" style="vsdxID=5;fillColor=none;gradientColor=none;shape=stencil(vVPLEoIgFP0aljgEVuPa6j+YRGUica6U9vdhUKk4LWzG3X0cOPdcOIilTclrgShpDOiLaGVmSsQOiFJZlQKksRFiR8TSXIMoQN+qzOU175F9dNX3/obOnSP9CUoeLktIFL8KJ4flcLZN8NhtRJiDwxsf7VwhQHjAhniCDvNONhi04UbqakSuOBQCWy6cK16MWk0rRB2U/XRKVgMlSRwl+1nyhWI+s0+Xs4KYgNvPtlBKuJvVniX4En+9yfxWVpDx2yc2+Bosl0o5fw77U0PakjMzOz4B);strokeColor=#ff5958;spacingTop=-3;spacingBottom=-3;spacingLeft=-3;spacingRight=-3;points=[];labelBackgroundColor=none;rounded=0;html=1;whiteSpace=wrap;container=0;" vertex="1" parent="ivyYnvaPWOOoQjRPQurW-257">
          <mxGeometry width="130" height="122.75" as="geometry" />
        </mxCell>
        <mxCell id="ivyYnvaPWOOoQjRPQurW-259" value="&lt;div style=&quot;&quot;&gt;&lt;font face=&quot;Arial&quot;&gt;&lt;span style=&quot;font-size: 22.58px;&quot;&gt;Percona (PMM)&lt;/span&gt;&lt;/font&gt;&lt;/div&gt;" style="verticalAlign=bottom;align=center;overflow=width;vsdxID=6;fillColor=none;gradientColor=none;strokeColor=none;spacingTop=-3;spacingBottom=-3;spacingLeft=-3;spacingRight=-3;points=[];labelBackgroundColor=none;rounded=0;html=1;whiteSpace=wrap;container=0;" vertex="1" parent="ivyYnvaPWOOoQjRPQurW-257">
          <mxGeometry y="60.84" width="130" height="59.16" as="geometry" />
        </mxCell>
        <mxCell id="ivyYnvaPWOOoQjRPQurW-260" value="" style="shape=image;verticalLabelPosition=bottom;verticalAlign=top;imageAspect=0;aspect=fixed;image=data:image/svg+xml,PHN2ZyB4bWxucz0iaHR0cDovL3d3dy53My5vcmcvMjAwMC9zdmciIHdpZHRoPSIzMiIgaGVpZ2h0PSIzMiIgdmlld0JveD0iMCAwIDMyIDMyIiBmaWxsPSJub25lIj4mI3hhOzxwYXRoIGQ9Ik0wIDE2QzAgNy4xNjM0NCA3LjE2MzQ0IDAgMTYgMFYwQzI0LjgzNjYgMCAzMiA3LjE2MzQ0IDMyIDE2VjE2QzMyIDI0LjgzNjYgMjQuODM2NiAzMiAxNiAzMlYzMkM3LjE2MzQ0IDMyIDAgMjQuODM2NiAwIDE2VjE2WiIgZmlsbD0iIzUyODJGRiIvPiYjeGE7PHBhdGggZmlsbC1ydWxlPSJldmVub2RkIiBjbGlwLXJ1bGU9ImV2ZW5vZGQiIGQ9Ik0yMiA4QzIyIDcuNCAyMS42IDcgMjEgN0gxMUMxMC40IDcgMTAgNy40IDEwIDhWMTBIMjJWOFpNMjMgMTJDMjMgMTEuNCAyMi42IDExIDIyIDExSDEwQzkuNCAxMSA5IDExLjQgOSAxMlYxNEgyM1YxMlpNOSAxNUgyM0MyMy41IDE1IDI0IDE1LjQgMjQgMTZWMjJDMjQgMjIuNiAyMy42IDIzIDIzIDIzSDlDOC40IDIzIDggMjIuNiA4IDIyVjE2QzggMTUuNCA4LjQgMTUgOSAxNVpNMTQgMjBIMThDMTguNSAyMCAxOSAxOS41IDE5IDE5QzE5IDE4LjQgMTguNiAxOCAxOCAxOEgxNEMxMy40IDE4IDEzIDE4LjQgMTMgMTlDMTMgMTkuNiAxMy40IDIwIDE0IDIwWiIgZmlsbD0id2hpdGUiLz4mI3hhOzwvc3ZnPg==;" vertex="1" parent="ivyYnvaPWOOoQjRPQurW-257">
          <mxGeometry x="49" y="11.635071090047393" width="32" height="32" as="geometry" />
        </mxCell>
        <mxCell id="ivyYnvaPWOOoQjRPQurW-261" style="edgeStyle=orthogonalEdgeStyle;rounded=0;orthogonalLoop=1;jettySize=auto;html=1;entryX=0.482;entryY=0.05;entryDx=0;entryDy=0;entryPerimeter=0;" edge="1" parent="ivyYnvaPWOOoQjRPQurW-181" source="ivyYnvaPWOOoQjRPQurW-196" target="ivyYnvaPWOOoQjRPQurW-227">
          <mxGeometry relative="1" as="geometry">
            <Array as="points">
              <mxPoint x="915" y="360" />
              <mxPoint x="843" y="360" />
            </Array>
          </mxGeometry>
        </mxCell>
        <mxCell id="ivyYnvaPWOOoQjRPQurW-262" style="edgeStyle=orthogonalEdgeStyle;rounded=0;orthogonalLoop=1;jettySize=auto;html=1;entryX=0.5;entryY=0.014;entryDx=0;entryDy=0;entryPerimeter=0;" edge="1" parent="ivyYnvaPWOOoQjRPQurW-181" source="ivyYnvaPWOOoQjRPQurW-196" target="ivyYnvaPWOOoQjRPQurW-204">
          <mxGeometry relative="1" as="geometry">
            <Array as="points">
              <mxPoint x="915" y="360" />
              <mxPoint x="305" y="360" />
            </Array>
          </mxGeometry>
        </mxCell>
        <mxCell id="ivyYnvaPWOOoQjRPQurW-263" style="edgeStyle=orthogonalEdgeStyle;rounded=0;orthogonalLoop=1;jettySize=auto;html=1;" edge="1" parent="ivyYnvaPWOOoQjRPQurW-181" source="ivyYnvaPWOOoQjRPQurW-209" target="ivyYnvaPWOOoQjRPQurW-258">
          <mxGeometry relative="1" as="geometry" />
        </mxCell>
        <mxCell id="ivyYnvaPWOOoQjRPQurW-264" style="edgeStyle=orthogonalEdgeStyle;rounded=0;orthogonalLoop=1;jettySize=auto;html=1;entryX=0.992;entryY=0.066;entryDx=0;entryDy=0;entryPerimeter=0;exitX=0.521;exitY=1.009;exitDx=0;exitDy=0;exitPerimeter=0;" edge="1" parent="ivyYnvaPWOOoQjRPQurW-181" source="ivyYnvaPWOOoQjRPQurW-232" target="ivyYnvaPWOOoQjRPQurW-259">
          <mxGeometry relative="1" as="geometry" />
        </mxCell>
        <mxCell id="ivyYnvaPWOOoQjRPQurW-265" style="edgeStyle=orthogonalEdgeStyle;rounded=0;orthogonalLoop=1;jettySize=auto;html=1;fillColor=#d5e8d4;strokeColor=#82b366;exitX=0.539;exitY=1.002;exitDx=0;exitDy=0;exitPerimeter=0;" edge="1" parent="ivyYnvaPWOOoQjRPQurW-181" source="ivyYnvaPWOOoQjRPQurW-250" target="ivyYnvaPWOOoQjRPQurW-227">
          <mxGeometry relative="1" as="geometry">
            <mxPoint x="780" y="416.29" as="targetPoint" />
            <Array as="points">
              <mxPoint x="550" y="309" />
              <mxPoint x="550" y="416" />
            </Array>
          </mxGeometry>
        </mxCell>
        <mxCell id="ivyYnvaPWOOoQjRPQurW-266" style="edgeStyle=orthogonalEdgeStyle;rounded=0;orthogonalLoop=1;jettySize=auto;html=1;entryX=1;entryY=0.194;entryDx=0;entryDy=0;entryPerimeter=0;fillColor=#d5e8d4;strokeColor=#82b366;" edge="1" parent="ivyYnvaPWOOoQjRPQurW-181" source="ivyYnvaPWOOoQjRPQurW-250" target="ivyYnvaPWOOoQjRPQurW-204">
          <mxGeometry relative="1" as="geometry">
            <Array as="points">
              <mxPoint x="550" y="416" />
              <mxPoint x="450" y="416" />
              <mxPoint x="450" y="418" />
            </Array>
          </mxGeometry>
        </mxCell>
        <mxCell id="ivyYnvaPWOOoQjRPQurW-267" style="edgeStyle=orthogonalEdgeStyle;rounded=0;orthogonalLoop=1;jettySize=auto;html=1;entryX=0.494;entryY=0.062;entryDx=0;entryDy=0;entryPerimeter=0;" edge="1" parent="ivyYnvaPWOOoQjRPQurW-181" source="ivyYnvaPWOOoQjRPQurW-190" target="ivyYnvaPWOOoQjRPQurW-196">
          <mxGeometry relative="1" as="geometry" />
        </mxCell>
        <mxCell id="ivyYnvaPWOOoQjRPQurW-268" style="edgeStyle=orthogonalEdgeStyle;rounded=0;orthogonalLoop=1;jettySize=auto;html=1;entryX=0.01;entryY=0.027;entryDx=0;entryDy=0;entryPerimeter=0;dashed=1;dashPattern=8 8;startArrow=none;startFill=0;endArrow=none;endFill=0;" edge="1" parent="ivyYnvaPWOOoQjRPQurW-181" source="ivyYnvaPWOOoQjRPQurW-216" target="ivyYnvaPWOOoQjRPQurW-240">
          <mxGeometry relative="1" as="geometry" />
        </mxCell>
        <mxCell id="ivyYnvaPWOOoQjRPQurW-290" value="sync" style="edgeLabel;html=1;align=center;verticalAlign=middle;resizable=0;points=[];" vertex="1" connectable="0" parent="ivyYnvaPWOOoQjRPQurW-268">
          <mxGeometry x="0.0559" y="-1" relative="1" as="geometry">
            <mxPoint as="offset" />
          </mxGeometry>
        </mxCell>
        <mxCell id="ivyYnvaPWOOoQjRPQurW-269" style="edgeStyle=orthogonalEdgeStyle;rounded=0;orthogonalLoop=1;jettySize=auto;html=1;entryX=0.029;entryY=0.028;entryDx=0;entryDy=0;entryPerimeter=0;exitX=0.952;exitY=0.039;exitDx=0;exitDy=0;exitPerimeter=0;dashed=1;dashPattern=8 8;endArrow=none;endFill=0;" edge="1" parent="ivyYnvaPWOOoQjRPQurW-181" source="ivyYnvaPWOOoQjRPQurW-206" target="ivyYnvaPWOOoQjRPQurW-229">
          <mxGeometry relative="1" as="geometry" />
        </mxCell>
        <mxCell id="ivyYnvaPWOOoQjRPQurW-289" value="sync" style="edgeLabel;html=1;align=center;verticalAlign=middle;resizable=0;points=[];" vertex="1" connectable="0" parent="ivyYnvaPWOOoQjRPQurW-269">
          <mxGeometry x="-0.0548" relative="1" as="geometry">
            <mxPoint as="offset" />
          </mxGeometry>
        </mxCell>
        <mxCell id="ivyYnvaPWOOoQjRPQurW-270" style="edgeStyle=orthogonalEdgeStyle;rounded=0;orthogonalLoop=1;jettySize=auto;html=1;entryX=0.493;entryY=0.008;entryDx=0;entryDy=0;entryPerimeter=0;" edge="1" parent="1" source="ivyYnvaPWOOoQjRPQurW-35" target="ivyYnvaPWOOoQjRPQurW-204">
          <mxGeometry relative="1" as="geometry">
            <Array as="points">
              <mxPoint x="168" y="720" />
              <mxPoint x="787" y="720" />
            </Array>
          </mxGeometry>
        </mxCell>
        <mxCell id="ivyYnvaPWOOoQjRPQurW-271" style="edgeStyle=orthogonalEdgeStyle;rounded=0;orthogonalLoop=1;jettySize=auto;html=1;entryX=0.433;entryY=-0.002;entryDx=0;entryDy=0;entryPerimeter=0;exitX=0.496;exitY=0.997;exitDx=0;exitDy=0;exitPerimeter=0;" edge="1" parent="1" source="ivyYnvaPWOOoQjRPQurW-35" target="ivyYnvaPWOOoQjRPQurW-228">
          <mxGeometry relative="1" as="geometry">
            <mxPoint x="168" y="680" as="sourcePoint" />
            <Array as="points">
              <mxPoint x="168" y="720" />
              <mxPoint x="1326" y="720" />
            </Array>
          </mxGeometry>
        </mxCell>
        <mxCell id="ivyYnvaPWOOoQjRPQurW-273" style="edgeStyle=orthogonalEdgeStyle;rounded=0;orthogonalLoop=1;jettySize=auto;html=1;entryX=-0.028;entryY=0.099;entryDx=0;entryDy=0;entryPerimeter=0;exitX=0.992;exitY=0.029;exitDx=0;exitDy=0;exitPerimeter=0;endArrow=none;endFill=0;dashed=1;dashPattern=12 12;" edge="1" parent="1" source="ivyYnvaPWOOoQjRPQurW-144" target="ivyYnvaPWOOoQjRPQurW-206">
          <mxGeometry relative="1" as="geometry" />
        </mxCell>
        <mxCell id="ivyYnvaPWOOoQjRPQurW-288" value="sync" style="edgeLabel;html=1;align=center;verticalAlign=middle;resizable=0;points=[];" vertex="1" connectable="0" parent="ivyYnvaPWOOoQjRPQurW-273">
          <mxGeometry x="-0.1345" y="-3" relative="1" as="geometry">
            <mxPoint as="offset" />
          </mxGeometry>
        </mxCell>
        <mxCell id="ivyYnvaPWOOoQjRPQurW-274" style="edgeStyle=orthogonalEdgeStyle;rounded=0;orthogonalLoop=1;jettySize=auto;html=1;entryX=0.007;entryY=0.066;entryDx=0;entryDy=0;entryPerimeter=0;endArrow=none;endFill=0;dashed=1;dashPattern=8 8;" edge="1" parent="1" source="ivyYnvaPWOOoQjRPQurW-154" target="ivyYnvaPWOOoQjRPQurW-217">
          <mxGeometry relative="1" as="geometry" />
        </mxCell>
        <mxCell id="ivyYnvaPWOOoQjRPQurW-291" value="sync" style="edgeLabel;html=1;align=center;verticalAlign=middle;resizable=0;points=[];" vertex="1" connectable="0" parent="ivyYnvaPWOOoQjRPQurW-274">
          <mxGeometry x="0.48" y="-1" relative="1" as="geometry">
            <mxPoint as="offset" />
          </mxGeometry>
        </mxCell>
        <mxCell id="ivyYnvaPWOOoQjRPQurW-275" style="edgeStyle=orthogonalEdgeStyle;rounded=0;orthogonalLoop=1;jettySize=auto;html=1;entryX=0;entryY=0.525;entryDx=0;entryDy=0;entryPerimeter=0;" edge="1" parent="1" source="ivyYnvaPWOOoQjRPQurW-49" target="ivyYnvaPWOOoQjRPQurW-27">
          <mxGeometry relative="1" as="geometry" />
        </mxCell>
        <mxCell id="ivyYnvaPWOOoQjRPQurW-277" style="edgeStyle=orthogonalEdgeStyle;rounded=0;orthogonalLoop=1;jettySize=auto;html=1;entryX=0.535;entryY=0.02;entryDx=0;entryDy=0;entryPerimeter=0;" edge="1" parent="1" source="ivyYnvaPWOOoQjRPQurW-49" target="Zcm5tQwCMB2YyKj0-IPv-5">
          <mxGeometry relative="1" as="geometry">
            <Array as="points">
              <mxPoint x="129" y="290" />
              <mxPoint x="-166" y="290" />
            </Array>
          </mxGeometry>
        </mxCell>
        <mxCell id="ivyYnvaPWOOoQjRPQurW-278" style="edgeStyle=orthogonalEdgeStyle;rounded=0;orthogonalLoop=1;jettySize=auto;html=1;" edge="1" parent="1" source="ivyYnvaPWOOoQjRPQurW-50">
          <mxGeometry relative="1" as="geometry">
            <mxPoint x="1132" y="390" as="targetPoint" />
            <Array as="points">
              <mxPoint x="129" y="290" />
              <mxPoint x="1132" y="290" />
            </Array>
          </mxGeometry>
        </mxCell>
        <mxCell id="ivyYnvaPWOOoQjRPQurW-279" style="edgeStyle=orthogonalEdgeStyle;rounded=0;orthogonalLoop=1;jettySize=auto;html=1;entryX=0.535;entryY=0.024;entryDx=0;entryDy=0;entryPerimeter=0;" edge="1" parent="1" source="Zcm5tQwCMB2YyKj0-IPv-39" target="Zcm5tQwCMB2YyKj0-IPv-5">
          <mxGeometry relative="1" as="geometry">
            <Array as="points">
              <mxPoint x="599" y="290" />
              <mxPoint x="-166" y="290" />
            </Array>
          </mxGeometry>
        </mxCell>
        <mxCell id="ivyYnvaPWOOoQjRPQurW-280" style="edgeStyle=orthogonalEdgeStyle;rounded=0;orthogonalLoop=1;jettySize=auto;html=1;entryX=0.746;entryY=0.012;entryDx=0;entryDy=0;entryPerimeter=0;" edge="1" parent="1" source="Zcm5tQwCMB2YyKj0-IPv-39" target="ivyYnvaPWOOoQjRPQurW-186">
          <mxGeometry relative="1" as="geometry">
            <mxPoint x="1133" y="380" as="targetPoint" />
            <Array as="points">
              <mxPoint x="599" y="290" />
              <mxPoint x="1132" y="290" />
            </Array>
          </mxGeometry>
        </mxCell>
        <mxCell id="ivyYnvaPWOOoQjRPQurW-281" style="edgeStyle=orthogonalEdgeStyle;rounded=0;orthogonalLoop=1;jettySize=auto;html=1;entryX=0.213;entryY=-0.022;entryDx=0;entryDy=0;entryPerimeter=0;" edge="1" parent="1" source="ivyYnvaPWOOoQjRPQurW-27" target="Zcm5tQwCMB2YyKj0-IPv-5">
          <mxGeometry relative="1" as="geometry">
            <Array as="points">
              <mxPoint x="368" y="60" />
              <mxPoint x="-269" y="60" />
            </Array>
          </mxGeometry>
        </mxCell>
        <mxCell id="ivyYnvaPWOOoQjRPQurW-283" value="Health check" style="edgeLabel;html=1;align=center;verticalAlign=middle;resizable=0;points=[];" vertex="1" connectable="0" parent="ivyYnvaPWOOoQjRPQurW-281">
          <mxGeometry x="0.1155" y="2" relative="1" as="geometry">
            <mxPoint x="-134" y="268" as="offset" />
          </mxGeometry>
        </mxCell>
        <mxCell id="ivyYnvaPWOOoQjRPQurW-282" style="edgeStyle=orthogonalEdgeStyle;rounded=0;orthogonalLoop=1;jettySize=auto;html=1;entryX=0.906;entryY=0.028;entryDx=0;entryDy=0;entryPerimeter=0;" edge="1" parent="1" source="ivyYnvaPWOOoQjRPQurW-27" target="ivyYnvaPWOOoQjRPQurW-186">
          <mxGeometry relative="1" as="geometry">
            <Array as="points">
              <mxPoint x="368" y="60" />
              <mxPoint x="1183" y="60" />
            </Array>
          </mxGeometry>
        </mxCell>
        <mxCell id="ivyYnvaPWOOoQjRPQurW-284" value="Health check" style="edgeLabel;html=1;align=center;verticalAlign=middle;resizable=0;points=[];" vertex="1" connectable="0" parent="ivyYnvaPWOOoQjRPQurW-282">
          <mxGeometry x="0.8491" y="5" relative="1" as="geometry">
            <mxPoint x="4" y="32" as="offset" />
          </mxGeometry>
        </mxCell>
        <mxCell id="ivyYnvaPWOOoQjRPQurW-293" value="&lt;b&gt;Задание 1&lt;/b&gt;&lt;div style=&quot;text-align: left;&quot;&gt;&lt;br&gt;&lt;/div&gt;&lt;div style=&quot;text-align: left;&quot;&gt;&lt;div&gt;&lt;b&gt;2а)&amp;nbsp;&lt;/b&gt;&lt;span style=&quot;background-color: initial;&quot;&gt;В рамках решения будут использоваться независимые кластеры Kubernetes, размещенные на разных географических площадках. Это позволит уменьшить зависимость от сетевых связей между ЦОД и внутренних недостатков механизмов аварийного переключения в Kubernetes. Пользователи смогут обращаться к ближайшему ЦОД, что обеспечит одинаковое время загрузки страниц для всех регионов.&lt;/span&gt;&lt;/div&gt;&lt;div&gt;&lt;b&gt;&lt;br&gt;&lt;/b&gt;&lt;/div&gt;&lt;div&gt;&lt;b&gt;2б)&amp;nbsp;&lt;/b&gt;&lt;span style=&quot;background-color: initial;&quot;&gt;В качестве балансировщика нагрузки будет выступать GSLB, который обеспечит распределение трафика между несколькими ЦОД. Это позволит минимизировать задержки в работе системы и защитит от возможных аварий в одном из центров.&lt;/span&gt;&lt;/div&gt;&lt;div&gt;&lt;b&gt;&lt;br&gt;&lt;/b&gt;&lt;/div&gt;&lt;div&gt;&lt;b&gt;2c)&amp;nbsp;&lt;/b&gt;&lt;span style=&quot;background-color: initial;&quot;&gt;В качестве файловер-стратегии будет использоваться Георезервированный Active-Active. Этот подход ускорит отклик системы для региональных пользователей и обеспечит защиту от возможных аварий в ЦОДе.&lt;/span&gt;&lt;/div&gt;&lt;/div&gt;&lt;div style=&quot;text-align: left;&quot;&gt;&lt;br&gt;&lt;/div&gt;&lt;div style=&quot;text-align: left;&quot;&gt;&lt;b&gt;3)&lt;/b&gt;&amp;nbsp;Шаржирование по хешу будет создаваться в рамках одного ЦОД для обеспечения дублирования всех данных во всех доступных ЦОДах.&lt;/div&gt;" style="shape=note;whiteSpace=wrap;html=1;backgroundOutline=1;darkOpacity=0.05;fillColor=#fff2cc;strokeColor=#d6b656;" vertex="1" parent="1">
          <mxGeometry x="-790" width="500" height="280" as="geometry" />
        </mxCell>
      </root>
    </mxGraphModel>
  </diagram>
</mxfile>
